{"glyphs":{"0":{"ha":560,"x_min":0,"x_max":0,"o":"m 283 -8 b 508 213 361 79 410 125 l 508 468 b 407 657 508 614 494 633 l 235 703 l 147 572 l 58 547 l 58 336 b 38 144 58 242 53 196 b 283 -8 74 82 199 15 z m 199 215 b 214 396 210 276 214 322 l 214 553 b 354 510 263 539 315 525 b 357 360 356 457 357 408 b 350 117 357 278 354 200 b 199 215 278 149 231 179 z "},"1":{"ha":311,"x_min":0,"x_max":0,"o":"m 221 -8 b 353 133 268 47 308 93 l 333 154 b 304 121 324 142 314 131 b 222 201 263 150 239 171 b 238 396 236 247 238 264 l 238 551 b 181 656 238 593 232 629 l 90 703 b -42 561 43 647 3 601 l -22 540 b 7 572 -12 553 -3 563 b 82 526 33 561 53 549 l 82 336 b 61 144 82 242 76 196 b 221 -8 94 86 160 24 z "},"2":{"ha":419,"x_min":0,"x_max":0,"o":"m 275 -8 b 407 133 322 47 363 93 l 388 154 b 354 117 376 140 365 128 b 185 178 267 136 219 157 b 190 274 188 201 190 236 l 190 290 b 374 433 242 336 285 367 b 385 536 382 460 385 499 b 326 646 385 597 369 631 l 160 703 b 13 544 107 640 63 589 l 32 524 b 76 574 47 543 63 558 b 226 514 131 560 176 542 b 218 371 229 465 228 419 b 31 229 167 328 114 288 l 31 186 b 22 81 31 135 28 113 b 275 -8 97 43 172 15 z "},"3":{"ha":432,"x_min":0,"x_max":0,"o":"m 178 -147 b 403 74 256 -60 304 -14 l 403 171 b 332 310 403 254 392 279 l 238 357 l 351 432 b 363 536 360 458 363 499 b 304 646 363 597 347 631 l 138 703 b -10 544 85 640 40 589 l 10 524 b 54 574 25 543 40 558 b 204 514 108 560 154 542 b 192 367 207 464 203 418 l 69 281 l 69 269 b 249 183 139 242 188 219 b 251 103 250 154 251 128 b 242 -21 251 63 249 24 b 72 92 164 13 111 53 b 113 129 85 104 97 117 l 90 147 b -56 6 47 100 1 56 b 176 -147 -19 -56 96 -125 l 179 -143 z "},"4":{"ha":575,"x_min":0,"x_max":0,"o":"m 376 -271 l 376 -132 l 501 -58 l 503 156 b 561 150 525 154 544 151 l 579 183 l 503 183 l 506 519 l 497 525 l 351 449 l 351 188 b 232 269 288 214 263 240 b 240 360 238 290 240 318 l 240 697 l 233 703 b 29 600 160 661 96 626 l 40 574 b 85 599 56 583 71 592 l 85 433 b 69 214 85 364 76 254 b 272 61 115 157 181 100 l 351 154 l 351 -71 b 335 -283 351 -150 344 -215 z "},"5":{"ha":524,"x_min":0,"x_max":0,"o":"m 264 -147 b 489 74 342 -60 390 -14 l 489 197 b 419 333 489 279 474 304 l 310 392 l 210 319 b 215 517 217 356 215 400 l 215 561 b 403 506 283 549 353 528 b 388 469 399 494 393 482 l 415 463 b 483 643 432 519 454 576 b 239 703 414 672 328 693 l 147 571 l 60 546 l 60 457 b 50 199 60 329 56 268 l 60 193 l 200 275 b 335 199 256 256 300 229 b 338 101 336 167 338 133 b 332 -22 338 60 336 18 b 146 92 246 14 188 51 b 179 122 156 101 167 113 l 157 140 b 18 6 117 96 72 53 b 264 -147 54 -57 179 -124 z "},"6":{"ha":578,"x_min":0,"x_max":0,"o":"m 301 -8 b 526 213 379 79 428 125 l 526 418 b 468 515 526 457 518 494 l 382 551 b 504 763 425 610 463 676 b 254 822 431 793 349 813 l 163 689 l 76 665 l 76 336 b 56 144 76 242 71 196 b 301 -8 92 82 217 15 z m 232 417 l 232 681 b 404 633 294 671 357 654 b 232 417 360 560 304 490 z m 372 386 b 374 301 374 357 374 329 b 368 117 374 240 371 181 b 219 213 299 147 251 178 b 232 378 231 249 232 272 b 278 425 249 393 264 410 b 372 386 308 415 336 403 z "},"7":{"ha":449,"x_min":0,"x_max":0,"o":"m 65 -299 l 107 -286 l 107 -147 l 242 -74 l 242 299 b 396 432 285 339 313 361 b 407 536 403 468 407 510 b 326 647 407 608 379 635 l 99 703 b -49 544 46 640 1 589 l -29 524 b 10 568 -15 540 -3 554 b 249 507 81 556 176 532 b 233 344 253 450 249 401 b 82 228 196 310 154 278 l 82 -86 b 65 -299 82 -165 75 -231 z "},"8":{"ha":557,"x_min":0,"x_max":0,"o":"m 290 -8 b 493 192 365 81 410 124 l 496 193 l 497 194 l 496 194 b 507 307 500 222 507 283 b 465 394 507 350 499 376 b 354 454 433 411 394 432 l 488 518 b 499 678 494 565 499 653 b 442 763 499 721 483 750 l 242 821 l 181 707 l 68 657 b 61 479 63 597 61 539 l 61 461 b 193 375 99 435 146 404 l 57 314 b 50 111 53 250 50 181 l 50 93 z m 343 631 l 343 608 b 332 467 343 568 339 525 b 214 539 289 490 247 515 b 221 669 214 581 217 626 b 343 631 263 658 303 644 z m 350 286 l 350 247 b 343 135 350 214 349 179 b 203 197 294 151 244 175 b 215 363 204 249 208 304 b 350 286 271 329 322 300 z "},"9":{"ha":593,"x_min":0,"x_max":0,"o":"m 517 75 l 517 468 b 415 657 517 614 503 635 l 238 703 l 150 572 l 61 547 l 61 475 b 50 283 61 381 58 336 b 179 143 79 233 128 176 b 32 7 132 93 81 46 b 278 -146 68 -56 193 -122 b 517 75 356 -58 418 -12 z m 206 343 b 217 535 214 394 217 449 l 217 556 b 356 510 276 544 324 528 b 358 360 357 458 357 408 b 285 260 340 331 314 297 b 206 343 244 289 222 311 z m 358 282 b 351 -22 358 176 356 76 b 164 90 271 11 204 51 b 358 314 239 163 304 235 z "},"\r":{"ha":0,"x_min":0,"x_max":0,"o":""}," ":{"ha":208,"x_min":0,"x_max":0,"o":""}," ":{"ha":208,"x_min":0,"x_max":0,"o":""},"A":{"ha":1122,"x_min":0,"x_max":0,"o":"m 672 -200 l 672 0 l 1060 0 l 1060 28 l 972 28 b 956 499 960 174 956 358 b 971 928 956 694 960 782 b 721 893 926 915 832 899 b 758 219 743 781 758 644 l 758 28 l 672 28 l 672 893 b 724 1132 672 972 692 1065 l 643 1119 l 643 744 b 321 942 543 806 451 942 b 94 615 172 942 94 807 b 96 575 94 601 94 588 l 121 575 b 381 732 125 700 211 732 b 643 715 476 732 567 722 l 643 575 b 521 418 611 538 568 481 l 168 418 l 154 339 b 393 390 221 371 314 390 l 499 390 b 303 150 435 307 365 217 b 83 10 219 60 149 10 b -15 50 49 10 17 22 l -32 32 b -3 4 -24 22 -14 14 b 239 -110 75 -69 160 -110 b 411 -29 301 -110 360 -85 b 643 538 568 150 517 382 l 643 28 l 556 28 l 556 0 l 643 0 l 643 -4 b 594 -210 643 -82 624 -147 z "},"B":{"ha":1086,"x_min":0,"x_max":0,"o":"m 496 -200 l 496 113 b 665 -14 522 31 572 -14 b 1001 238 844 -14 1001 56 b 649 479 1001 388 878 479 b 974 715 858 496 974 578 b 642 942 974 867 822 942 b 496 824 564 942 519 900 l 496 893 b 547 1132 496 972 515 1065 l 467 1119 l 467 493 l 383 493 l 383 499 b 399 928 383 694 388 782 b 65 892 343 911 214 890 l 65 864 l 151 864 b 186 219 174 751 186 644 l 186 28 l 75 28 l 75 0 l 403 0 l 403 1 b 383 465 389 140 383 321 l 467 465 l 467 -4 b 418 -210 467 -82 447 -147 z m 496 533 b 625 913 496 754 518 913 b 738 703 696 913 738 839 b 561 493 738 568 692 493 l 496 493 z m 643 15 b 496 388 521 15 496 171 l 496 465 l 561 465 b 765 236 713 465 765 388 b 643 15 765 97 719 15 z "},"C":{"ha":1011,"x_min":0,"x_max":0,"o":"m 507 -200 l 507 -10 b 568 -14 526 -12 547 -14 b 938 229 788 -14 938 121 l 788 274 l 765 258 b 771 211 768 242 771 226 b 568 14 771 93 675 14 b 507 21 546 14 526 17 l 507 451 l 599 360 l 717 478 l 596 599 l 507 510 l 507 913 b 536 914 517 914 526 914 b 804 711 690 914 681 711 b 935 951 890 711 935 811 l 935 992 l 910 992 b 786 921 908 933 833 921 b 558 942 707 921 675 942 b 508 939 542 942 525 940 b 558 1132 515 1007 532 1078 l 478 1119 l 478 935 b 72 464 251 896 72 699 b 478 -6 72 231 249 36 b 429 -210 478 -82 458 -147 z m 308 464 b 478 906 308 717 360 869 l 478 29 b 308 464 354 75 308 225 z "},"D":{"ha":1221,"x_min":0,"x_max":0,"o":"m 590 -200 l 590 -12 b 633 -14 608 -14 618 -14 b 1150 478 928 -14 1150 188 b 621 942 1150 740 901 942 l 592 942 b 642 1132 597 1010 617 1078 l 561 1119 l 561 939 b 267 918 486 932 388 918 b 21 1075 111 918 25 950 l -4 1075 l -4 1035 b 226 708 -4 843 74 708 b 561 906 365 708 431 867 l 561 669 b 132 349 271 669 132 511 b 561 -11 132 168 297 14 b 513 -210 561 -82 542 -147 z m 632 14 b 590 17 618 14 603 15 l 590 451 l 682 360 l 800 478 l 679 599 l 590 510 l 590 911 b 621 914 597 913 610 914 b 914 457 807 914 914 751 b 632 14 914 171 824 14 z m 353 353 b 561 642 353 531 425 636 l 561 21 b 353 353 424 51 353 174 z "},"E":{"ha":1079,"x_min":0,"x_max":0,"o":"m 506 -200 l 506 -6 b 608 -14 539 -11 574 -14 b 1006 229 844 -14 1006 121 l 856 274 l 833 258 b 838 214 836 243 838 228 b 608 14 838 93 732 14 b 506 28 569 14 536 18 l 506 410 l 557 410 b 753 397 686 410 715 406 l 753 332 l 781 332 l 781 621 l 753 621 l 753 556 b 557 543 715 547 686 543 l 506 543 l 506 908 b 560 914 522 913 540 914 b 863 711 744 914 735 711 b 1007 951 953 711 1007 811 l 1007 992 l 982 992 b 844 921 976 933 892 921 b 571 942 758 921 724 942 b 507 938 550 942 532 940 b 557 1132 513 1006 531 1078 l 476 1119 l 476 932 b 71 464 256 890 71 703 b 476 1 71 242 244 53 l 476 -4 b 428 -210 476 -82 457 -147 z m 310 543 b 476 899 319 736 374 858 l 476 543 z m 476 39 b 308 410 364 90 315 217 l 476 410 z "},"F":{"ha":956,"x_min":0,"x_max":0,"o":"m 496 -200 l 496 0 l 658 0 l 658 28 l 496 28 l 496 368 l 508 368 b 704 356 638 368 667 364 l 704 290 l 732 290 l 732 579 l 704 579 l 704 514 b 508 501 667 506 638 501 l 496 501 l 496 900 b 753 700 581 844 649 700 b 908 999 854 700 908 824 l 908 1039 l 883 1039 b 693 910 881 936 817 910 b 497 926 621 910 554 921 b 547 1132 501 997 519 1075 l 467 1119 l 467 501 l 383 501 b 399 928 383 694 388 782 b 65 892 344 911 210 890 l 65 864 l 151 864 b 186 219 174 751 186 644 l 186 28 l 75 28 l 75 0 l 467 0 l 467 -4 b 418 -210 467 -82 447 -147 z m 467 28 l 400 28 b 385 368 390 132 386 256 l 467 368 z "},"G":{"ha":1100,"x_min":0,"x_max":0,"o":"m 503 -200 l 503 -10 b 568 -14 526 -12 546 -14 b 1013 361 829 -14 1013 151 b 764 608 1013 499 925 608 b 503 413 640 608 546 539 l 503 910 b 543 914 517 913 529 914 b 836 722 731 914 721 722 b 981 951 926 722 981 818 l 981 992 l 956 992 b 818 921 950 933 865 921 b 564 942 732 921 697 942 b 504 939 544 942 524 940 b 554 1132 511 1006 528 1078 l 474 1119 l 474 933 b 72 464 247 893 72 701 b 474 -6 72 232 246 38 b 425 -210 474 -82 454 -147 z m 308 464 b 474 903 308 710 358 861 l 474 31 b 308 464 353 78 308 228 z m 568 14 b 503 21 544 14 524 17 l 503 200 b 664 492 503 422 557 492 b 829 278 778 492 829 413 b 568 14 829 100 719 14 z "},"H":{"ha":1157,"x_min":0,"x_max":0,"o":"m 496 -200 l 496 0 l 582 0 l 582 28 l 496 28 l 496 117 b 672 590 496 453 543 590 b 836 317 793 590 836 453 b 769 0 836 206 814 86 l 1031 0 l 1031 28 l 836 28 b 1068 350 988 115 1068 233 b 717 622 1068 522 897 622 b 496 440 592 622 526 576 l 496 900 b 808 701 599 878 682 701 b 1033 1014 956 701 1033 831 l 1033 1054 l 1008 1054 b 749 911 1004 940 918 911 b 497 928 657 911 569 921 b 547 1132 501 999 519 1075 l 467 1119 l 467 28 l 400 28 b 383 499 388 174 383 358 b 399 928 383 694 388 782 b 65 892 344 911 210 890 l 65 864 l 151 864 b 186 219 174 751 186 644 l 186 28 l 75 28 l 75 0 l 467 0 l 467 -4 b 418 -210 467 -82 447 -147 z "},"I":{"ha":657,"x_min":0,"x_max":0,"o":"m 492 -200 l 492 0 l 578 0 l 578 28 l 492 28 l 492 893 b 543 1132 492 972 511 1065 l 463 1119 l 463 28 l 400 28 b 383 499 388 174 383 358 b 399 928 383 694 388 782 b 65 892 344 911 210 890 l 65 864 l 151 864 b 186 219 174 751 186 644 l 186 28 l 75 28 l 75 0 l 463 0 l 463 -4 b 414 -210 463 -82 443 -147 z "},"J":{"ha":806,"x_min":0,"x_max":0,"o":"m 349 -204 b 589 -32 463 -204 553 -147 b 607 97 603 13 607 56 b 561 481 607 221 561 336 b 603 710 561 549 572 624 b 633 708 614 708 624 708 b 772 782 733 708 772 742 b 732 860 772 807 757 835 b 586 749 678 860 626 821 b 499 793 556 758 526 774 l 521 876 b 629 1096 542 954 582 1039 l 551 1103 l 474 811 b 213 942 394 869 319 942 b -1 615 72 942 -1 807 l -1 575 l 24 575 b 272 732 28 700 110 732 b 449 722 335 732 394 728 l 217 -142 b 78 -69 165 -137 114 -111 l 60 -90 b 207 -178 85 -119 140 -154 l 201 -197 b 104 -385 181 -272 147 -331 l 178 -393 l 233 -187 b 349 -204 271 -197 310 -204 z m 408 89 b 246 -140 365 -50 319 -129 l 479 719 b 569 711 511 717 542 714 b 408 89 529 611 489 351 z "},"K":{"ha":1067,"x_min":0,"x_max":0,"o":"m 492 -200 l 492 465 b 672 -29 589 313 542 121 b 844 -110 724 -85 782 -110 b 1086 4 924 -110 1008 -69 b 1115 32 1097 14 1107 22 l 1099 50 b 1004 11 1067 24 1036 11 b 786 157 940 11 872 63 b 571 414 718 231 640 328 b 982 793 775 590 982 668 b 724 942 982 868 904 942 b 632 936 696 942 665 940 l 632 908 b 751 753 707 908 751 854 b 554 436 751 660 692 560 b 492 514 532 464 511 490 l 492 893 b 543 1132 492 972 511 1065 l 463 1119 l 463 28 l 400 28 b 383 499 388 174 383 358 b 399 928 383 694 388 782 b 65 892 343 911 214 890 l 65 864 l 151 864 b 186 219 174 751 186 644 l 186 28 l 75 28 l 75 0 l 463 0 l 463 -4 b 414 -210 463 -82 443 -147 z "},"L":{"ha":882,"x_min":0,"x_max":0,"o":"m 499 -200 l 499 183 b 738 -14 576 126 640 -14 b 879 313 829 -14 879 121 l 879 353 l 854 353 b 678 196 850 228 793 196 b 499 213 613 196 551 206 l 499 451 l 590 360 l 708 478 l 588 599 l 499 510 l 499 893 b 550 1132 499 972 518 1065 l 469 1119 l 469 28 l 403 28 b 386 499 390 174 386 358 b 401 928 386 694 390 782 b 60 892 346 911 208 890 l 60 864 l 154 864 b 189 219 176 751 189 644 l 189 28 l 78 28 l 78 0 l 469 0 l 469 -4 b 421 -210 469 -82 450 -147 z "},"M":{"ha":1717,"x_min":0,"x_max":0,"o":"m 1085 -199 l 1085 0 l 1171 0 l 1171 28 l 1085 28 l 1085 451 l 1176 360 l 1294 478 l 1174 599 l 1085 510 b 1240 910 1088 771 1133 910 b 1397 493 1335 910 1397 801 b 1303 0 1397 294 1367 128 l 1564 0 l 1564 28 l 1369 28 b 1633 526 1531 163 1633 318 b 1261 942 1633 776 1453 942 b 1085 786 1175 942 1117 899 l 1085 893 b 1136 1132 1085 972 1104 1065 l 1056 1119 l 1056 28 l 997 28 l 997 453 b 669 942 997 732 913 942 b 496 810 571 942 521 893 l 496 893 b 547 1132 496 972 515 1065 l 467 1119 l 467 28 l 400 28 b 383 499 388 174 383 358 b 399 928 383 694 388 782 b 65 892 343 911 214 890 l 65 864 l 151 864 b 186 219 174 751 186 644 l 186 28 l 75 28 l 75 0 l 467 0 l 467 -3 b 418 -208 467 -75 447 -140 l 496 -199 l 496 0 l 582 0 l 582 28 l 496 28 l 496 451 l 588 360 l 706 478 l 585 599 l 496 510 l 496 594 b 636 908 496 843 561 908 b 789 513 729 908 789 829 l 789 28 l 678 28 l 678 0 l 1056 0 l 1056 -3 b 1007 -208 1056 -75 1036 -140 z "},"N":{"ha":1261,"x_min":0,"x_max":0,"o":"m 496 510 l 496 533 b 714 907 496 750 565 907 b 882 611 847 907 882 772 b 799 154 882 424 799 292 b 953 -14 799 40 861 -14 b 1179 232 1093 -14 1179 92 l 1058 261 l 1044 246 b 1050 178 1049 221 1050 199 b 931 14 1050 54 982 14 b 846 117 881 14 846 50 b 1114 647 846 296 1114 396 b 743 942 1114 850 953 942 b 496 756 608 942 533 868 l 496 893 b 547 1132 496 972 515 1065 l 467 1119 l 467 28 l 400 28 b 383 499 388 174 383 358 b 399 928 383 694 388 782 b 65 892 343 911 214 890 l 65 864 l 151 864 b 186 219 174 751 186 644 l 186 28 l 75 28 l 75 0 l 467 0 l 467 -4 b 418 -210 467 -82 447 -147 l 496 -200 l 496 0 l 582 0 l 582 28 l 496 28 l 496 451 l 588 360 l 706 478 l 585 599 z "},"O":{"ha":1242,"x_min":0,"x_max":0,"o":"m 500 -200 l 500 -3 b 621 -14 539 -10 579 -14 b 1172 485 924 -14 1172 211 b 708 942 1172 743 925 942 b 500 789 593 942 531 886 l 500 893 b 551 1132 500 972 519 1065 l 471 1119 l 471 926 b 69 457 239 867 69 678 b 471 4 69 242 240 60 l 471 -4 b 422 -210 471 -82 451 -147 z m 621 14 b 500 32 575 14 535 21 l 500 451 l 592 360 l 710 478 l 589 599 l 500 510 l 500 533 b 692 914 500 756 535 914 b 936 464 846 914 936 754 b 621 14 936 174 853 14 z m 306 464 b 471 897 306 683 353 825 l 471 44 b 306 464 351 104 306 247 z "},"P":{"ha":1044,"x_min":0,"x_max":0,"o":"m 421 -210 l 499 -200 l 499 0 l 661 0 l 661 28 l 499 28 l 499 326 l 564 326 b 990 654 825 326 990 475 b 651 942 990 817 835 942 b 499 817 569 942 524 897 l 499 893 b 550 1132 499 972 518 1065 l 469 1119 l 469 354 l 388 354 b 386 499 386 406 386 454 b 401 928 386 694 390 782 b 60 892 346 911 208 890 l 60 864 l 154 864 b 189 219 176 751 189 644 l 189 28 l 78 28 l 78 0 l 469 0 l 469 -4 b 421 -210 469 -82 450 -147 z m 499 533 b 635 914 499 756 522 914 b 754 633 710 914 754 815 b 564 354 754 454 704 354 l 499 354 z m 469 326 l 469 28 l 403 28 b 388 326 394 119 390 225 z "},"Q":{"ha":1242,"x_min":0,"x_max":0,"o":"m 894 -406 b 1153 -118 1038 -406 1128 -290 b 1157 -78 1156 -104 1157 -90 l 1133 -74 b 953 -197 1115 -165 1058 -197 b 443 -107 797 -197 599 -139 b 488 0 464 -75 479 -39 b 621 -14 531 -10 575 -14 b 1172 485 924 -14 1172 211 b 708 942 1172 743 925 942 b 500 797 597 942 533 889 l 500 893 b 551 1132 500 972 519 1065 l 471 1119 l 471 926 b 69 457 239 867 69 678 b 457 7 69 246 233 67 b 383 -96 443 -46 417 -76 b 290 -87 349 -90 318 -87 b 201 -135 228 -87 201 -106 b 233 -204 201 -154 214 -178 b 408 -140 299 -204 361 -176 b 894 -406 567 -215 685 -406 z m 621 14 b 494 35 572 14 531 21 b 500 115 499 60 500 86 l 500 451 l 592 360 l 710 478 l 589 599 l 500 510 l 500 533 b 692 914 500 756 535 914 b 936 464 846 914 936 754 b 621 14 936 174 853 14 z m 306 464 b 471 897 306 683 353 825 l 471 131 b 465 47 471 99 469 72 b 306 464 350 108 306 251 z "},"R":{"ha":1076,"x_min":0,"x_max":0,"o":"m 494 -200 l 494 0 l 581 0 l 581 28 l 494 28 l 494 410 l 582 410 b 746 -97 656 260 617 44 b 918 -178 797 -153 856 -178 b 1160 -64 997 -178 1082 -137 b 1189 -36 1171 -54 1181 -46 l 1172 -18 b 1078 -57 1140 -44 1110 -57 b 860 89 1014 -57 946 -6 b 610 411 751 204 675 332 b 986 696 842 426 986 543 b 647 942 986 842 831 942 b 494 821 567 942 519 903 l 494 893 b 546 1132 494 972 514 1065 l 465 1119 l 465 438 l 382 438 l 382 499 b 397 928 382 694 386 782 b 67 892 342 911 215 890 l 67 864 l 150 864 b 185 219 172 751 185 644 l 185 28 l 74 28 l 74 0 l 465 0 l 465 -4 b 417 -210 465 -82 446 -147 z m 494 533 b 631 913 494 754 518 913 b 750 675 706 913 750 829 b 560 438 750 522 700 438 l 494 438 z m 465 28 l 399 28 b 382 410 389 144 383 286 l 465 410 z "},"S":{"ha":1181,"x_min":0,"x_max":0,"o":"m 624 -200 l 624 -14 l 640 -14 b 1103 379 894 -14 1103 154 b 910 568 1103 492 1032 568 b 624 539 826 568 710 539 l 624 751 b 639 753 629 753 633 753 b 843 722 706 753 763 722 b 1043 993 975 722 1043 835 l 1043 1033 l 1018 1033 b 810 921 1015 940 904 921 b 626 940 749 921 713 936 b 675 1132 632 1007 649 1078 l 594 1119 l 594 942 l 575 942 b 69 485 310 942 69 743 b 594 -12 69 225 303 8 b 546 -210 593 -86 574 -150 z m 306 464 b 575 914 306 754 407 914 b 594 913 581 914 582 914 l 594 775 b 417 556 508 757 417 685 b 594 351 417 453 481 360 l 594 15 b 306 464 383 35 306 193 z m 763 760 b 639 781 725 769 686 781 l 624 781 l 624 908 b 763 760 710 886 722 806 z m 503 631 b 594 747 503 685 539 731 l 594 540 b 503 631 535 546 503 572 z m 640 14 l 624 14 l 624 351 b 806 367 681 353 738 367 b 935 238 900 367 935 321 b 640 14 935 147 863 14 z "},"T":{"ha":1135,"x_min":0,"x_max":0,"o":"m 646 -200 l 646 -11 b 699 -14 663 -12 681 -14 b 1068 229 924 -14 1068 121 l 918 274 l 896 258 b 901 208 899 242 901 225 b 700 14 901 92 810 14 b 646 19 681 14 663 15 l 646 451 l 738 360 l 856 478 l 735 599 l 646 510 l 646 761 b 824 708 699 731 757 708 b 1100 1035 1006 708 1100 843 l 1100 1075 l 1075 1075 b 764 918 1071 950 968 918 b 647 922 724 918 685 919 b 697 1132 650 994 669 1074 l 617 1119 l 617 924 b 357 942 514 931 422 942 b 42 682 215 942 42 856 b 225 440 42 543 142 472 b 221 390 222 424 221 407 b 617 -8 221 190 378 22 b 568 -210 617 -82 597 -147 z m 167 700 b 339 913 167 814 217 913 b 610 782 436 913 518 842 b 232 474 411 749 271 624 b 167 700 190 518 167 592 z m 457 413 b 617 751 457 614 513 715 l 617 26 b 457 413 503 65 457 196 z "},"U":{"ha":1201,"x_min":0,"x_max":0,"o":"m 725 482 l 633 574 l 515 456 l 636 335 l 725 424 l 725 388 b 521 21 725 175 660 21 b 371 317 401 21 371 156 b 422 754 371 504 422 636 b 263 942 422 888 356 942 b 42 696 124 942 42 836 l 163 667 l 176 682 b 169 757 172 710 169 735 b 283 914 169 875 229 914 b 375 811 338 914 375 875 b 139 281 375 632 139 532 b 492 -14 139 78 293 -14 b 725 165 618 -14 689 57 l 725 40 b 674 -199 725 -39 706 -132 l 754 -186 l 754 0 l 1140 0 l 1140 28 l 1051 28 b 1035 499 1039 174 1035 358 b 1050 928 1035 694 1039 782 b 754 892 1000 914 883 894 l 754 925 b 803 1131 754 1003 774 1068 l 725 1121 l 725 892 l 639 892 l 639 864 l 725 864 z m 803 864 b 838 219 825 751 838 644 l 838 28 l 754 28 l 754 864 z "},"V":{"ha":1264,"x_min":0,"x_max":0,"o":"m 535 -210 l 613 -200 l 613 1 b 1189 546 957 18 1189 249 b 818 942 1189 822 1018 942 b 613 776 706 942 644 876 l 613 893 b 664 1132 613 972 632 1065 l 583 1119 l 583 28 l 500 28 l 500 485 b 197 942 500 786 413 942 b -18 696 51 942 -18 836 l 103 667 l 117 682 b 107 779 110 719 107 753 b 183 914 107 879 144 914 b 300 456 246 914 300 846 b 275 28 300 307 292 185 l 161 28 l 161 0 l 583 0 l 583 -4 b 535 -210 583 -82 564 -147 z m 704 360 l 822 478 l 701 599 l 613 510 l 613 533 b 789 910 613 756 671 910 b 953 563 881 910 953 806 b 613 29 953 292 860 54 l 613 451 z "},"W":{"ha":1750,"x_min":0,"x_max":0,"o":"m 801 -168 l 738 0 l 1081 0 b 1032 -210 1079 -75 1060 -150 l 1110 -200 l 1110 1 b 1672 539 1446 18 1672 239 b 1308 942 1672 819 1506 942 b 1110 769 1194 942 1138 875 l 1110 893 b 1161 1132 1110 972 1129 1065 l 1081 1119 l 1081 28 l 996 28 l 996 422 b 610 942 996 797 785 942 b 442 781 522 942 447 889 l 390 917 b 350 1153 365 986 349 1079 l 285 1106 l 696 28 l 618 28 b 269 928 458 432 400 586 b -31 892 221 913 100 890 l -31 864 l 64 864 b 396 28 193 576 338 197 l 268 28 l 268 0 l 707 0 l 710 -8 b 738 -212 735 -74 740 -144 z m 471 767 b 592 910 471 860 521 910 b 788 443 688 910 788 838 l 788 28 l 728 28 l 492 650 b 471 767 478 693 471 733 z m 1201 360 l 1319 478 l 1199 599 l 1110 510 l 1110 533 b 1279 908 1110 756 1165 908 b 1436 556 1367 908 1436 804 b 1110 29 1436 283 1346 54 l 1110 451 z "},"X":{"ha":1119,"x_min":0,"x_max":0,"o":"m 261 -232 l 274 -210 b 208 -92 228 -178 208 -139 b 475 368 208 13 346 233 b 613 128 536 263 588 174 l 667 28 l 544 28 l 544 0 l 999 0 l 1003 -7 b 1061 -210 1042 -75 1056 -142 l 1125 -162 l 1033 0 l 1096 0 l 1096 28 l 1017 28 l 721 550 b 992 818 849 633 992 736 b 740 942 992 875 915 942 b 642 936 710 942 678 940 l 642 908 b 761 768 717 908 761 860 b 692 601 761 719 747 668 l 522 901 b 450 1135 483 971 454 1061 l 385 1085 l 672 578 b 615 522 656 560 638 542 b 403 928 546 643 486 757 b 89 892 351 913 225 890 l 89 864 l 183 864 b 458 397 257 740 367 556 b 89 182 333 326 174 315 b 47 50 61 138 47 93 b 226 -210 47 -47 114 -140 b 261 -232 240 -218 250 -226 z m 983 28 l 922 28 b 632 493 788 236 703 371 b 696 535 651 506 674 519 z "},"Y":{"ha":1240,"x_min":0,"x_max":0,"o":"m 892 -96 l 740 -29 l 726 -42 b 733 -90 731 -57 733 -74 b 471 -319 733 -194 646 -319 b 224 -117 322 -319 224 -240 b 443 104 224 -1 293 104 l 585 104 b 536 -99 585 29 565 -36 l 614 -89 l 614 106 b 1174 601 951 122 1174 332 b 814 942 1174 839 1011 942 b 614 788 704 942 644 883 l 614 893 b 671 1132 614 972 639 1064 l 585 1119 l 585 132 l 503 132 l 503 485 b 197 942 503 786 414 942 b -18 696 51 942 -18 836 l 103 667 l 117 682 b 107 781 110 721 107 753 b 183 914 107 879 143 914 b 294 513 247 914 294 853 l 294 121 b 51 -111 138 90 51 -1 b 471 -347 51 -236 194 -347 b 892 -96 744 -347 892 -214 z m 706 360 l 824 478 l 703 599 l 614 510 l 614 533 b 785 910 614 760 664 910 b 942 618 872 910 942 822 b 614 135 942 375 851 158 l 614 451 z "},"Z":{"ha":1097,"x_min":0,"x_max":0,"o":"m 10 -208 l 129 0 l 463 0 b 821 -8 590 0 718 -8 b 1040 96 957 -8 1040 6 b 821 353 1040 164 982 260 l 804 332 b 850 244 835 308 850 279 b 531 28 850 149 750 28 l 460 28 b 942 879 619 332 806 667 l 1036 901 l 1029 928 b 710 901 890 899 788 900 b 206 28 578 635 411 333 l 146 28 l 657 919 b 819 1100 696 989 758 1060 l 743 1132 l 628 929 b 383 940 558 933 469 940 b 93 822 189 940 93 911 b 321 568 93 753 154 657 l 338 590 b 288 679 304 613 288 643 b 613 904 288 760 347 885 l 111 28 l 36 28 l 36 0 l 94 0 l 81 -25 b -64 -178 42 -93 -8 -137 z "},"Æ":{"ha":1632,"x_min":0,"x_max":0,"o":"m 1065 -200 l 1065 81 b 1261 -14 1099 8 1174 -14 b 1556 229 1406 -14 1556 97 l 1433 274 l 1411 258 b 1417 207 1415 240 1417 222 b 1244 14 1417 85 1322 14 b 1065 189 1138 14 1065 67 l 1065 410 l 1114 410 b 1310 397 1243 410 1272 406 l 1310 332 l 1338 332 l 1338 621 l 1310 621 l 1310 556 b 1114 543 1272 547 1243 543 l 1065 543 l 1065 690 b 1171 914 1065 817 1100 914 b 1413 711 1289 914 1285 711 b 1557 951 1503 711 1557 811 l 1557 992 l 1532 992 b 1394 921 1526 933 1442 921 b 1188 942 1308 921 1228 942 b 1065 843 1124 942 1086 903 l 1065 893 b 1117 1132 1065 972 1085 1065 l 1040 1119 l 1040 543 l 956 543 b 971 928 957 707 961 793 l 740 928 b 756 499 751 782 756 693 b 739 28 756 358 751 174 l 672 28 l 672 893 b 724 1132 672 972 692 1065 l 647 1119 l 647 742 b 321 942 546 801 453 942 b 94 615 172 942 94 807 b 96 575 94 601 94 588 l 121 575 b 381 732 125 700 211 732 b 647 715 478 732 571 722 l 647 579 b 518 415 614 542 569 482 l 167 415 l 154 339 b 393 390 221 371 314 390 l 499 390 b 303 150 435 307 365 217 b 83 10 219 60 149 10 b -15 50 49 10 17 22 l -32 32 b -3 4 -24 22 -14 14 b 239 -110 75 -69 160 -110 b 411 -29 301 -110 360 -85 b 647 543 569 153 515 386 l 647 28 l 560 28 l 560 0 l 647 0 l 647 -4 b 599 -210 647 -82 628 -147 l 672 -200 l 672 0 l 1040 0 l 1040 -4 b 992 -210 1040 -82 1021 -147 z m 1040 28 l 972 28 b 956 410 963 144 957 286 l 1040 410 z "},"Œ":{"ha":1901,"x_min":0,"x_max":0,"o":"m 1313 -200 l 1313 -4 b 1415 -14 1346 -11 1381 -14 b 1813 229 1651 -14 1813 121 l 1663 274 l 1640 258 b 1644 214 1643 243 1644 228 b 1415 14 1644 93 1539 14 b 1313 28 1376 14 1343 18 l 1313 410 l 1364 410 b 1560 397 1493 410 1522 406 l 1560 332 l 1588 332 l 1588 621 l 1560 621 l 1560 556 b 1364 543 1522 547 1493 543 l 1313 543 l 1313 908 b 1367 914 1329 913 1347 914 b 1669 711 1551 914 1542 711 b 1814 951 1760 711 1814 811 l 1814 992 l 1789 992 b 1651 921 1783 933 1699 921 b 1378 942 1565 921 1531 942 b 1314 938 1357 942 1335 940 b 1364 1132 1319 1006 1338 1078 l 1283 1119 l 1283 932 b 1017 767 1179 908 1085 850 b 693 942 933 875 808 942 b 499 793 588 942 528 888 l 499 893 b 550 1132 499 972 518 1065 l 474 1119 l 474 928 b 68 460 239 869 68 681 b 474 7 68 242 242 58 l 474 -4 b 425 -210 474 -82 454 -147 l 499 -200 l 499 3 b 606 -7 533 -4 569 -7 b 1019 165 771 -7 925 43 b 1283 3 1086 88 1178 29 l 1283 -4 b 1235 -210 1283 -82 1264 -147 z m 606 21 b 499 36 565 21 529 26 l 499 465 l 604 360 l 722 478 l 601 599 l 499 496 l 499 533 b 676 914 499 756 531 914 b 907 467 822 914 907 756 b 606 21 907 179 828 21 z m 304 467 b 474 899 304 688 353 829 l 474 46 b 304 467 351 101 304 246 z m 1117 543 b 1283 899 1126 736 1181 858 l 1283 543 z m 1283 39 b 1115 410 1171 90 1122 217 l 1283 410 z "},"Ł":{"ha":938,"x_min":0,"x_max":0,"o":"m 499 -200 l 499 183 b 738 -14 576 126 640 -14 b 879 313 829 -14 879 121 l 879 353 l 854 353 b 678 196 850 228 793 196 b 499 213 613 196 551 206 l 499 558 b 667 638 551 594 613 624 l 606 692 l 499 601 l 499 893 b 550 1132 499 972 518 1065 l 469 1119 l 469 578 l 386 507 b 401 928 386 694 390 782 b 60 892 346 911 208 890 l 60 864 l 154 864 b 189 342 174 763 186 667 b 13 256 132 297 75 272 l 69 203 l 189 303 l 189 28 l 78 28 l 78 0 l 469 0 l 469 -4 b 421 -210 469 -82 450 -147 z m 451 524 b 469 538 457 528 464 533 l 469 28 l 403 28 b 386 469 390 164 386 333 z "},"Ø":{"ha":1242,"x_min":0,"x_max":0,"o":"m 621 -14 b 1172 485 924 -14 1172 211 b 889 900 1172 672 1043 828 l 900 919 b 1063 1100 939 989 1001 1060 l 986 1132 l 860 911 b 708 942 810 931 758 942 b 500 789 593 942 531 886 l 500 893 b 551 1132 500 972 519 1065 l 471 1119 l 471 926 b 69 457 239 867 69 678 b 361 42 69 278 189 121 l 324 -25 b 179 -178 285 -93 235 -137 l 253 -208 l 389 31 b 621 -14 460 1 538 -14 z m 621 14 b 499 33 575 14 533 21 l 500 33 l 500 451 l 592 360 l 710 478 l 589 599 l 500 510 l 500 533 b 692 914 500 756 535 914 b 936 464 846 914 936 754 b 621 14 936 174 853 14 z m 306 464 b 471 897 306 683 353 825 l 471 44 b 306 464 351 104 306 247 z "},"Ð":{"ha":1268,"x_min":0,"x_max":0,"o":"m 638 -200 l 638 -12 b 681 -14 656 -14 665 -14 b 1197 478 975 -14 1197 188 b 668 942 1197 740 949 942 l 639 942 b 689 1132 644 1010 664 1078 l 608 1119 l 608 939 b 314 918 533 932 435 918 b 68 1075 158 918 72 950 l 43 1075 l 43 1035 b 274 708 43 843 121 708 b 608 906 413 708 478 867 l 608 669 b 179 365 328 669 189 522 l 8 365 l -7 317 b 176 338 44 325 107 336 l 179 338 b 608 -11 186 161 350 14 b 560 -210 608 -82 589 -147 z m 679 14 b 638 17 665 14 650 15 l 638 451 l 729 360 l 847 478 l 726 599 l 638 510 l 638 911 b 668 914 644 913 657 914 b 961 457 854 914 961 751 b 679 14 961 171 871 14 z m 608 642 l 608 365 l 400 365 b 608 642 404 536 475 636 z m 608 21 b 400 338 475 50 404 167 l 608 338 z "},"Þ":{"ha":1025,"x_min":0,"x_max":0,"o":"m 418 -210 l 496 -200 l 496 0 l 658 0 l 658 28 l 496 28 l 496 260 l 561 260 b 988 532 822 260 988 383 b 649 764 988 664 832 764 b 496 639 567 764 521 719 l 496 893 b 547 1132 496 972 515 1065 l 467 1119 l 467 288 l 386 288 b 383 499 385 363 383 435 b 399 928 383 694 388 782 b 57 892 343 911 206 890 l 57 864 l 151 864 b 186 219 174 751 186 644 l 186 28 l 75 28 l 75 0 l 467 0 l 467 -4 b 418 -210 467 -82 447 -147 z m 496 356 b 632 736 496 578 519 736 b 751 511 707 736 751 657 b 561 288 751 368 701 288 l 496 288 z m 467 260 l 467 28 l 400 28 b 388 260 394 99 390 179 z "},"a":{"ha":554,"x_min":0,"x_max":0,"o":"m 464 -8 b 596 133 511 47 551 93 l 576 154 b 547 121 567 142 557 131 b 465 201 506 150 482 171 b 481 394 475 256 481 322 l 481 551 b 424 656 481 610 464 647 l 197 703 l 110 596 b 58 485 81 560 58 519 b 144 383 58 440 86 400 l 54 357 l 54 322 b 33 144 54 235 47 193 b 210 -8 68 86 143 17 b 315 126 249 33 283 79 b 464 -8 350 74 408 21 z m 231 404 b 117 507 142 404 117 451 b 136 571 117 521 122 544 b 325 526 201 563 263 546 l 325 422 b 231 404 293 410 258 404 z m 190 208 b 206 357 199 244 206 307 l 206 375 l 208 375 b 325 394 244 375 279 378 l 325 338 b 279 129 325 275 317 183 b 190 208 238 153 213 176 z "},"b":{"ha":588,"x_min":0,"x_max":0,"o":"m 308 -8 b 533 213 386 79 435 125 l 533 551 b 475 649 533 590 525 628 l 342 703 b 239 574 306 667 271 624 l 239 935 b 256 1106 239 1014 244 1044 l 214 1093 l 214 946 l 90 1000 b -42 858 43 944 3 899 l -22 838 b 8 872 -11 850 -1 863 l 83 836 l 83 336 b 63 144 83 242 78 196 b 308 -8 99 82 224 15 z m 239 396 l 239 522 b 269 563 250 538 260 551 b 379 519 306 553 338 540 b 382 354 382 463 382 408 b 375 117 382 275 379 199 b 226 213 306 147 258 178 b 239 396 235 258 239 325 z "},"c":{"ha":396,"x_min":0,"x_max":0,"o":"m 240 -8 l 303 65 b 376 142 328 93 351 118 l 357 163 b 319 119 343 146 332 132 b 199 215 261 147 228 183 b 214 396 208 258 214 329 l 214 544 b 322 496 253 528 288 513 b 314 385 321 447 318 417 l 347 396 l 347 504 l 426 618 l 246 703 l 157 574 l 58 546 l 58 336 b 38 144 58 242 53 196 b 240 -8 72 83 165 13 z "},"d":{"ha":574,"x_min":0,"x_max":0,"o":"m 289 -8 b 514 213 367 79 415 125 l 514 524 b 422 708 514 622 500 669 b 65 942 124 858 65 904 b 72 968 65 950 68 960 l 93 1004 l 72 1019 b -12 892 47 971 21 933 b 19 754 -64 828 -53 794 l 360 565 b 364 361 363 492 364 424 b 356 117 364 268 361 188 b 214 215 286 147 246 179 b 229 396 224 258 229 329 l 229 590 l 74 547 l 74 336 b 53 144 74 242 68 196 b 289 -8 89 82 206 15 z "},"e":{"ha":453,"x_min":0,"x_max":0,"o":"m 276 -8 l 339 65 b 413 142 364 93 388 118 l 393 163 b 356 119 379 146 367 132 b 208 215 286 149 240 181 b 222 336 215 246 219 289 b 400 328 297 336 363 332 l 418 361 l 254 361 b 415 524 311 414 367 465 b 397 625 449 563 432 606 l 261 703 l 174 575 l 68 546 l 68 361 l 11 361 l -7 322 b 68 332 22 326 46 331 b 47 144 68 240 63 194 b 276 -8 83 82 193 15 z m 224 369 l 224 546 b 332 474 265 525 299 503 b 224 369 294 436 260 404 z "},"f":{"ha":339,"x_min":0,"x_max":0,"o":"m 239 -8 l 301 65 b 375 142 326 93 350 118 l 356 163 b 318 119 342 146 331 132 b 211 201 268 143 236 169 b 226 382 221 244 226 315 l 226 647 b 351 639 279 646 324 642 l 369 694 l 226 694 l 226 846 b 347 779 272 828 311 807 l 454 908 l 258 1000 l 169 871 l 71 843 l 71 694 l 18 694 l 0 633 b 71 643 25 638 49 640 l 71 336 b 50 144 71 242 65 196 b 239 -8 85 85 168 11 z "},"g":{"ha":560,"x_min":0,"x_max":0,"o":"m 392 -347 b 500 -211 425 -297 461 -253 b 528 -149 518 -192 528 -169 b 469 -64 528 -119 510 -90 b 261 46 404 -24 322 1 b 510 296 333 126 424 219 l 510 653 b 524 811 510 706 515 754 l 460 789 l 460 639 b 408 657 446 646 429 651 l 236 703 l 149 572 l 60 547 l 60 419 b 39 228 60 325 54 279 b 257 83 71 172 174 113 b 200 31 242 68 224 51 b 153 -43 171 4 153 -21 b 189 -92 153 -61 164 -78 l 293 -151 b 406 -262 376 -200 406 -232 b 388 -308 406 -278 399 -292 l 371 -332 z m 200 299 b 215 479 210 342 215 413 l 215 553 b 356 510 264 539 317 525 b 358 365 358 449 358 406 b 354 200 358 315 357 271 b 200 299 281 231 232 263 z "},"h":{"ha":607,"x_min":0,"x_max":0,"o":"m 517 -8 b 649 133 564 47 604 93 l 629 154 b 600 121 619 142 610 131 b 518 201 558 150 535 171 b 533 396 529 247 533 319 l 533 551 b 476 649 533 590 525 629 l 343 703 b 239 571 307 667 271 622 l 239 935 b 256 1106 239 1014 244 1044 l 214 1093 l 214 946 l 90 1000 b -42 858 43 944 3 899 l -22 838 b 8 872 -11 850 -1 863 l 83 836 l 83 336 b 63 144 83 242 78 196 b 222 -8 96 86 161 24 l 322 110 b 224 201 271 144 242 167 b 239 396 235 247 239 319 l 239 521 b 272 564 250 538 261 551 b 378 521 308 553 343 538 l 378 336 b 357 144 378 242 372 196 b 517 -8 390 86 456 24 z "},"i":{"ha":313,"x_min":0,"x_max":0,"o":"m 50 799 l 67 783 l 269 928 l 189 990 b 50 799 139 940 92 876 z m 222 -8 b 354 133 269 47 310 93 l 335 154 b 306 121 325 142 315 131 b 224 201 264 150 240 171 b 239 396 235 247 239 319 l 239 551 b 182 656 239 593 233 629 l 92 703 b -40 561 44 647 4 601 l -21 540 b 8 572 -11 553 -1 563 b 83 526 35 561 54 549 l 83 336 b 63 144 83 242 78 196 b 222 -8 96 86 161 24 z "},"j":{"ha":307,"x_min":0,"x_max":0,"o":"m 44 799 l 61 783 l 264 928 l 183 990 b 44 799 133 940 86 876 z m 4 -282 b 233 110 104 -101 157 -15 l 233 551 b 176 656 233 593 228 629 l 85 703 b -47 561 38 647 -3 601 l -28 540 b 1 574 -18 553 -8 564 b 78 526 29 561 49 549 b 83 275 83 419 83 375 b -17 -269 83 50 57 -68 z "},"k":{"ha":603,"x_min":0,"x_max":0,"o":"m 517 -8 b 649 133 564 47 604 93 l 629 154 b 600 121 619 142 610 131 b 524 201 560 150 540 171 b 533 288 531 228 533 268 l 533 347 b 481 429 533 386 529 408 l 436 447 b 493 501 457 467 475 483 b 542 585 525 533 542 560 b 474 665 542 613 519 639 l 410 703 b 239 518 343 636 296 586 l 239 935 b 256 1106 239 1014 244 1044 l 214 1093 l 214 946 l 90 1000 b -42 858 43 944 3 899 l -22 838 b 8 872 -11 850 -1 863 l 83 836 l 83 336 b 63 144 83 242 78 196 b 222 -8 96 86 161 24 l 322 110 b 224 201 271 144 242 167 b 236 292 229 226 233 257 b 306 342 258 307 282 324 l 308 340 b 378 310 332 332 354 321 l 378 239 b 363 144 378 207 375 181 b 517 -8 396 86 456 24 z m 239 396 l 239 471 b 321 571 267 508 293 540 l 356 551 b 417 488 396 529 417 508 b 385 438 417 472 406 456 b 238 325 339 397 290 361 b 239 396 239 347 239 371 z "},"l":{"ha":313,"x_min":0,"x_max":0,"o":"m 239 935 b 256 1106 239 1014 244 1044 l 214 1093 l 214 946 l 90 1000 b -42 858 43 944 3 899 l -22 838 b 8 872 -11 850 -1 863 l 83 836 l 83 336 b 63 144 83 242 78 196 b 208 -8 96 88 151 21 b 340 133 256 47 296 93 l 321 154 b 292 121 311 142 301 131 b 224 201 257 149 239 172 b 239 396 235 250 239 326 z "},"m":{"ha":899,"x_min":0,"x_max":0,"o":"m 808 -8 b 940 133 856 47 896 93 l 921 154 b 892 121 911 142 901 131 b 810 201 850 150 826 171 b 825 396 821 247 825 318 l 825 551 b 768 649 825 590 817 629 l 635 703 b 533 575 599 667 565 625 l 533 638 l 343 703 b 239 571 307 667 271 622 l 239 638 l 90 703 b -42 561 43 647 3 601 l -22 540 b 8 575 -11 553 -1 565 l 83 539 l 83 336 b 63 144 83 242 78 196 b 222 -8 96 86 161 24 l 322 110 b 224 201 271 144 242 167 b 239 396 235 247 239 318 l 239 521 b 275 568 251 539 264 554 b 378 532 310 558 342 547 l 378 336 b 357 144 378 242 372 196 b 517 -8 390 86 456 24 l 617 110 b 518 201 565 144 536 167 b 533 396 529 247 533 318 l 533 525 b 567 568 544 542 556 556 b 669 526 603 557 636 543 l 669 336 b 649 144 669 242 664 196 b 808 -8 682 86 747 24 z "},"n":{"ha":607,"x_min":0,"x_max":0,"o":"m 517 -8 b 649 133 564 47 604 93 l 629 154 b 600 121 619 142 610 131 b 518 201 558 150 535 171 b 533 396 531 247 533 313 l 533 551 b 476 649 533 590 525 629 l 343 703 b 239 571 307 667 271 622 l 239 638 l 90 703 b -42 561 43 647 3 601 l -22 540 b 8 575 -11 553 -1 565 l 83 539 l 83 336 b 63 144 83 242 78 196 b 222 -8 96 86 161 24 l 322 110 b 224 201 271 144 242 167 b 239 396 236 247 239 313 l 239 521 b 275 568 251 539 264 554 b 378 526 311 557 344 543 l 378 336 b 357 144 378 242 372 196 b 517 -8 390 86 456 24 z "},"o":{"ha":560,"x_min":0,"x_max":0,"o":"m 283 -8 b 508 213 361 79 410 125 l 508 468 b 407 657 508 614 494 633 l 235 703 l 147 572 l 58 547 l 58 336 b 38 144 58 242 53 196 b 283 -8 74 82 199 15 z m 199 215 b 214 396 210 276 214 322 l 214 553 b 354 510 263 539 315 525 b 357 360 356 457 357 408 b 350 117 357 278 354 200 b 199 215 278 149 231 179 z "},"p":{"ha":585,"x_min":0,"x_max":0,"o":"m 108 -400 l 108 -274 l 239 -197 l 239 14 b 308 -8 263 8 286 0 b 533 213 386 79 435 125 l 533 551 b 475 649 533 590 525 628 l 342 703 b 239 574 306 667 271 624 l 239 638 l 90 703 b -42 561 43 647 3 601 l -22 540 b 8 575 -11 553 -1 565 l 83 539 l 83 119 l 82 119 l -22 17 l -18 8 b 83 25 18 17 51 22 l 83 -200 b 67 -412 83 -279 76 -344 z m 379 519 b 382 365 381 467 382 415 b 375 117 382 281 379 199 b 239 144 332 132 285 142 l 239 522 b 269 563 250 538 260 551 b 379 519 306 553 338 540 z "},"q":{"ha":567,"x_min":0,"x_max":0,"o":"m 329 -412 l 371 -400 l 371 -274 l 500 -197 l 500 468 b 399 657 500 614 486 632 l 235 703 l 147 572 l 58 547 l 58 336 b 38 144 58 242 53 196 b 197 -8 71 86 136 24 b 353 174 254 50 310 107 b 344 -222 351 42 349 -90 b 329 -412 342 -292 338 -351 z m 279 122 b 199 201 239 150 214 171 b 214 396 210 247 214 311 l 214 551 b 346 510 260 539 308 524 b 353 236 350 411 353 326 l 353 222 b 279 122 331 186 306 151 z "},"r":{"ha":438,"x_min":0,"x_max":0,"o":"m 222 -8 l 285 65 b 358 142 310 93 333 118 l 339 163 b 304 122 326 147 315 135 b 224 201 264 150 239 171 b 239 396 236 253 239 319 l 239 517 b 272 561 250 533 261 547 b 360 493 303 542 333 519 b 353 390 360 449 357 419 l 386 401 l 386 497 l 471 607 l 346 703 b 239 567 308 665 272 619 l 239 638 l 90 703 b -42 561 43 647 3 601 l -22 540 b 8 575 -11 553 -1 565 l 83 539 l 83 336 b 63 144 83 242 78 196 b 222 -8 96 86 161 24 z "},"s":{"ha":518,"x_min":0,"x_max":0,"o":"m 250 -8 l 353 89 l 465 143 b 490 313 478 185 490 276 b 453 386 490 346 475 371 l 371 444 l 486 557 l 468 569 l 267 703 l 153 596 l 61 553 b 36 381 46 503 36 432 l 36 363 l 154 271 l 126 244 b 28 156 76 197 56 176 l 54 136 z m 256 368 b 175 432 225 392 200 411 b 193 565 175 474 182 521 b 344 453 251 536 297 501 z m 350 274 b 332 125 350 242 344 182 b 175 254 268 161 222 203 l 264 340 b 350 274 297 322 322 303 z "},"t":{"ha":356,"x_min":0,"x_max":0,"o":"m 314 65 b 388 142 339 93 363 118 l 368 163 b 331 119 354 146 343 132 b 224 201 281 143 249 169 b 239 364 233 240 238 297 l 239 647 b 368 639 293 646 339 642 l 386 694 l 239 694 l 239 849 b 256 1019 239 928 246 951 l 214 1007 l 214 865 l 83 789 l 83 694 l 7 694 l -11 633 b 83 644 22 639 53 642 l 83 336 b 63 144 83 242 78 196 b 251 -8 97 85 181 11 z "},"u":{"ha":607,"x_min":0,"x_max":0,"o":"m 517 -8 b 649 133 564 47 604 93 l 629 154 b 600 121 619 142 610 131 b 518 201 558 150 535 171 b 533 396 529 247 533 310 l 533 551 b 476 656 533 593 524 633 l 374 703 l 285 575 b 378 526 317 563 349 547 l 378 336 b 372 221 378 288 376 251 b 303 122 351 185 328 151 b 224 201 264 150 239 171 b 239 396 235 247 239 310 l 239 638 l 90 703 b -42 561 43 647 3 601 l -22 540 b 8 575 -11 553 -1 565 l 83 539 l 83 336 b 63 144 83 242 78 196 b 222 -8 96 86 161 24 b 357 143 271 42 318 89 b 517 -8 390 86 456 24 z "},"v":{"ha":585,"x_min":0,"x_max":0,"o":"m 308 -8 b 533 213 386 79 435 125 l 533 544 b 469 658 533 611 510 639 l 374 703 l 285 575 b 379 526 321 561 349 546 b 382 374 381 472 382 422 b 375 118 382 290 379 211 b 224 215 303 149 256 179 b 239 396 233 258 239 333 l 239 638 l 90 703 b -42 561 43 647 3 601 l -22 540 b 8 575 -11 553 -1 565 l 83 539 l 83 336 b 63 144 83 242 78 196 b 308 -8 99 81 218 17 z "},"w":{"ha":840,"x_min":0,"x_max":0,"o":"m 531 -8 b 817 446 624 85 817 232 b 679 703 817 557 756 646 l 569 568 b 678 306 642 517 678 433 b 617 117 678 229 654 164 b 518 201 564 146 536 172 b 533 396 532 247 533 264 l 533 625 l 374 703 l 285 575 b 378 526 317 563 349 547 l 378 336 b 372 221 378 288 376 251 b 303 122 351 185 328 151 b 224 201 264 150 239 171 b 239 396 238 247 239 264 l 239 638 l 90 703 b -42 561 43 647 3 601 l -22 540 b 8 575 -11 553 -1 565 l 83 539 l 83 336 b 63 144 83 242 78 196 b 222 -8 96 86 161 24 b 357 143 271 42 318 89 b 531 -8 392 85 450 35 z "},"x":{"ha":442,"x_min":0,"x_max":0,"o":"m 114 82 b 226 -8 146 44 188 11 l 289 65 b 363 142 314 93 338 118 l 343 163 b 308 122 331 147 319 135 b 228 201 268 150 243 171 b 242 333 238 242 240 282 l 265 333 b 410 325 339 333 374 329 l 428 361 l 243 361 l 243 522 b 272 561 253 536 263 549 b 360 493 303 542 333 519 b 353 390 360 449 357 419 l 386 401 l 386 497 l 471 607 l 346 703 b 243 574 310 667 275 624 l 243 638 l 94 703 b -37 561 47 647 7 601 l -18 540 b 13 575 -7 553 3 565 l 88 539 l 88 361 l -7 361 l -25 319 b 88 331 8 325 49 328 b -82 -240 88 183 57 19 l -61 -253 z "},"y":{"ha":576,"x_min":0,"x_max":0,"o":"m 414 -347 b 522 -211 447 -297 483 -253 b 550 -149 540 -192 550 -169 b 492 -64 550 -119 532 -90 b 283 46 426 -24 344 1 b 531 294 356 126 446 219 l 531 544 b 467 658 531 611 507 639 l 371 703 l 282 575 b 376 526 318 561 346 546 b 379 376 379 467 379 419 b 372 199 379 314 376 263 b 221 297 300 231 253 261 b 236 478 231 340 236 411 l 236 638 l 88 703 b -44 561 40 647 0 601 l -25 540 b 6 575 -14 553 -4 565 l 81 539 l 81 418 b 60 226 81 324 75 278 b 276 82 93 169 194 110 b 222 31 261 67 244 50 b 175 -43 193 4 175 -21 b 211 -92 175 -61 186 -78 l 315 -151 b 428 -262 399 -200 428 -232 b 410 -308 428 -278 421 -292 l 393 -332 z "},"z":{"ha":363,"x_min":0,"x_max":0,"o":"m 297 -254 b 351 -172 333 -228 351 -203 b 333 -114 351 -156 346 -136 b 172 219 276 -8 226 99 b 293 332 207 256 243 289 b 365 325 324 331 342 328 l 383 361 l 313 361 l 313 544 b 247 663 313 614 290 651 l 97 703 b -35 561 50 647 10 601 l -15 540 b 14 574 -6 553 4 564 b 158 526 72 563 113 549 b 161 431 160 493 161 461 b 160 361 161 407 161 385 l 18 361 l 0 319 b 158 333 57 328 106 333 b 150 239 156 304 153 272 l 89 189 b 51 133 63 168 51 153 b 69 75 51 118 58 101 l 200 -217 b 214 -264 210 -237 214 -253 b 196 -297 214 -278 208 -287 l 163 -325 l 183 -347 b 297 -254 215 -317 265 -278 z "},"æ":{"ha":721,"x_min":0,"x_max":0,"o":"m 544 -8 b 681 142 631 94 656 118 l 661 163 b 624 119 647 146 635 132 b 476 215 554 149 508 181 b 486 336 482 251 485 292 b 668 328 564 336 631 332 l 686 361 l 522 361 b 683 524 579 414 635 465 b 701 568 696 539 701 554 b 665 625 701 592 688 613 l 529 703 l 478 628 l 207 703 l 119 596 b 68 485 90 560 68 519 b 154 383 68 440 96 400 l 64 357 l 64 322 b 43 144 64 235 57 193 b 219 -8 78 86 153 17 b 326 129 258 35 293 79 b 544 -8 369 71 468 14 z m 240 404 b 126 507 151 404 126 451 b 146 571 126 521 132 544 b 335 519 213 561 275 544 l 335 422 b 240 404 303 410 268 404 z m 488 365 l 488 547 b 600 474 532 526 567 504 b 488 365 561 435 526 401 z m 200 208 b 215 357 208 244 215 307 l 215 375 l 218 375 b 335 394 254 375 289 378 l 335 338 b 289 129 335 275 326 183 b 200 208 247 153 222 176 z "},"œ":{"ha":743,"x_min":0,"x_max":0,"o":"m 567 -8 l 629 65 b 703 142 654 93 678 118 l 683 163 b 646 119 669 146 657 132 b 503 213 579 149 535 179 b 507 336 504 253 506 292 b 690 328 585 336 651 332 l 708 361 l 544 361 b 706 524 601 414 657 465 b 724 568 718 539 724 554 b 688 625 724 592 710 613 l 551 703 l 494 621 l 235 703 l 147 572 l 58 547 l 58 336 b 38 144 58 242 53 196 b 283 -8 74 82 199 15 b 381 96 321 33 350 65 b 567 -8 425 49 497 11 z m 199 215 b 214 396 210 276 214 322 l 214 553 b 358 506 263 542 319 524 b 361 396 360 468 361 432 b 347 118 361 299 356 206 b 199 215 275 150 231 179 z m 508 547 b 622 474 553 526 588 504 b 508 364 582 433 547 401 z "},"ł":{"ha":313,"x_min":0,"x_max":0,"o":"m 208 -8 b 340 133 256 47 296 93 l 321 154 b 292 121 311 142 301 131 b 224 201 257 149 239 172 b 239 396 235 250 239 326 l 239 601 b 365 694 278 639 321 672 l 293 733 l 239 663 l 239 953 b 256 1106 239 1024 243 1053 l 214 1093 l 214 946 l 90 1000 b -42 858 43 944 3 899 l -22 838 b 8 872 -11 850 -1 863 l 83 836 l 83 465 b -43 371 46 426 3 396 l 25 333 l 83 408 l 83 336 b 63 144 83 242 78 196 b 208 -8 96 88 151 21 z "},"ø":{"ha":560,"x_min":0,"x_max":0,"o":"m 283 -8 b 508 213 361 79 410 125 l 508 468 b 444 644 508 590 499 624 b 514 714 467 672 490 696 l 435 740 l 396 660 l 235 703 l 147 572 l 58 547 l 58 336 b 38 144 58 242 53 196 b 106 78 50 122 75 99 b 32 6 83 51 58 28 l 108 -19 l 143 53 b 283 -8 189 26 242 3 z m 214 396 l 214 553 b 329 518 253 542 294 531 l 206 257 b 214 396 211 300 214 340 z m 350 117 b 214 200 289 143 244 171 l 354 496 b 350 117 360 363 357 246 z "},"ð":{"ha":574,"x_min":0,"x_max":0,"o":"m 289 -8 b 514 213 367 79 415 125 l 514 524 b 422 708 514 622 500 669 b 306 768 378 731 339 750 b 425 844 343 800 383 825 l 354 886 l 271 786 b 65 942 103 876 65 911 b 72 968 65 950 68 960 l 93 1004 l 72 1019 b -12 892 47 971 21 933 b -44 825 -33 865 -44 844 b 19 754 -44 799 -24 778 l 169 671 b 39 582 131 633 86 606 l 104 540 l 200 654 l 360 565 b 356 117 367 382 364 235 b 214 215 286 147 246 179 b 229 396 224 258 229 329 l 229 539 l 74 496 l 74 336 b 53 144 74 242 68 196 b 289 -8 89 82 206 15 z "},"þ":{"ha":564,"x_min":0,"x_max":0,"o":"m 88 -400 l 88 -274 l 218 -197 l 218 14 b 288 -8 242 8 265 0 b 513 213 365 79 414 125 l 513 551 b 454 649 513 590 504 628 l 321 703 b 218 574 285 667 250 624 l 218 976 l 69 1042 b -62 900 22 986 -18 940 l -43 879 b -12 914 -32 892 -22 904 l 63 878 l 63 119 l 61 119 l -43 17 l -39 8 b 63 25 -3 17 31 22 l 63 -200 b 46 -412 63 -279 56 -344 z m 358 519 b 354 117 364 381 361 247 b 218 144 311 132 264 142 l 218 522 b 249 563 229 538 239 551 b 358 519 285 553 317 540 z "},"ß":{"ha":569,"x_min":0,"x_max":0,"o":"m 301 -8 l 404 89 l 517 143 b 542 313 529 185 542 276 b 504 386 542 346 529 368 l 392 469 l 507 582 l 489 594 l 318 703 l 226 618 l 226 846 b 347 779 272 828 311 807 l 454 908 l 258 1000 l 169 871 l 71 843 l 71 694 l 18 694 l 0 633 b 71 643 25 638 49 640 l 71 275 b -29 -269 71 50 44 -68 l -8 -282 b 179 97 81 -103 121 -15 z m 226 346 l 226 574 b 365 478 283 546 313 525 z m 401 274 b 383 125 401 242 396 182 b 226 254 321 161 274 203 l 226 308 l 285 365 b 401 274 317 347 374 303 z "},"ı":{"ha":313,"x_min":0,"x_max":0,"o":"m 222 -8 b 354 133 269 47 310 93 l 335 154 b 306 121 325 142 315 131 b 224 201 264 150 240 171 b 239 396 235 247 239 319 l 239 551 b 182 656 239 593 233 629 l 92 703 b -40 561 44 647 4 601 l -21 540 b 8 572 -11 553 -1 563 b 83 526 35 561 54 549 l 83 336 b 63 144 83 242 78 196 b 222 -8 96 86 161 24 z "},"ȷ":{"ha":307,"x_min":0,"x_max":0,"o":"m 4 -282 b 233 110 104 -101 157 -15 l 233 551 b 176 656 233 593 228 629 l 85 703 b -47 561 38 647 -3 601 l -28 540 b 1 574 -18 553 -8 564 b 78 526 29 561 49 549 b 83 275 83 419 83 375 b -17 -269 83 50 57 -68 z "},"ﬁ":{"ha":613,"x_min":0,"x_max":0,"o":"m 342 133 l 322 154 b 293 121 313 142 303 131 b 211 201 251 150 228 171 b 226 382 221 244 226 315 l 226 646 b 307 639 264 644 281 642 l 356 694 l 226 694 l 226 846 b 394 775 285 824 329 806 l 501 907 l 258 1000 l 169 871 l 71 843 l 71 694 l 18 694 l 0 633 b 71 643 25 638 49 640 l 71 336 b 50 144 71 242 65 196 b 210 -8 83 86 149 24 b 342 133 257 47 297 93 z m 522 -8 b 654 133 569 47 610 93 l 635 154 b 606 121 625 142 615 131 b 524 201 564 150 540 171 b 539 396 535 247 539 319 l 539 551 b 482 656 539 593 533 629 l 392 703 b 260 561 344 647 304 601 l 279 540 b 308 572 289 553 299 563 b 383 526 335 561 354 549 l 383 336 b 363 144 383 242 378 196 b 522 -8 396 86 461 24 z "},"ﬂ":{"ha":613,"x_min":0,"x_max":0,"o":"m 508 -8 b 640 133 556 47 596 93 l 621 154 b 592 121 611 142 601 131 b 524 201 557 149 539 172 b 539 396 535 250 539 326 l 539 953 b 556 1124 539 1032 546 1056 l 514 1111 l 514 935 l 258 1000 l 169 871 l 71 843 l 71 694 l 18 694 l 0 633 b 71 643 25 638 49 640 l 71 336 b 50 144 71 242 65 196 b 196 -8 83 88 139 21 b 328 133 243 47 283 93 l 308 154 b 279 121 299 142 289 131 b 211 201 244 149 226 172 b 226 382 221 244 226 315 l 226 646 b 310 639 261 644 285 642 l 328 694 l 226 694 l 226 854 b 383 813 282 843 332 829 l 383 336 b 363 144 383 242 378 196 b 508 -8 396 88 451 21 z "},"Á":{"ha":1122,"x_min":0,"x_max":0,"o":"m 465 1022 l 489 1006 b 722 1203 589 1096 722 1136 b 582 1293 722 1256 653 1282 b 465 1022 554 1208 514 1117 z m 672 -200 l 672 0 l 1060 0 l 1060 28 l 972 28 b 956 499 960 174 956 358 b 971 928 956 694 960 782 b 676 892 921 913 806 894 l 643 892 l 643 744 b 321 942 543 806 451 942 b 94 615 172 942 94 807 b 96 575 94 601 94 588 l 121 575 b 381 732 125 700 211 732 b 643 715 476 732 567 722 l 643 575 b 521 418 611 538 568 481 l 168 418 l 154 339 b 393 390 221 371 314 390 l 499 390 b 303 150 435 307 365 217 b 83 10 219 60 149 10 b -15 50 49 10 17 22 l -32 32 b -3 4 -24 22 -14 14 b 239 -110 75 -69 160 -110 b 411 -29 301 -110 360 -85 b 643 538 568 150 517 382 l 643 28 l 556 28 l 556 0 l 643 0 l 643 -4 b 594 -210 643 -82 624 -147 z m 726 864 b 758 219 746 756 758 610 l 758 28 l 672 28 l 672 864 z "},"Â":{"ha":1122,"x_min":0,"x_max":0,"o":"m 771 1006 l 794 1022 b 643 1293 724 1124 676 1206 l 492 1293 b 340 1022 458 1206 411 1124 l 364 1006 b 568 1158 454 1065 513 1108 b 771 1006 622 1108 681 1065 z m 672 -200 l 672 0 l 1060 0 l 1060 28 l 972 28 b 956 499 960 174 956 358 b 971 928 956 694 960 782 b 676 892 921 913 806 894 l 643 892 l 643 744 b 321 942 543 806 451 942 b 94 615 172 942 94 807 b 96 575 94 601 94 588 l 121 575 b 381 732 125 700 211 732 b 643 715 476 732 567 722 l 643 575 b 521 418 611 538 568 481 l 168 418 l 154 339 b 393 390 221 371 314 390 l 499 390 b 303 150 435 307 365 217 b 83 10 219 60 149 10 b -15 50 49 10 17 22 l -32 32 b -3 4 -24 22 -14 14 b 239 -110 75 -69 160 -110 b 411 -29 301 -110 360 -85 b 643 538 568 150 517 382 l 643 28 l 556 28 l 556 0 l 643 0 l 643 -4 b 594 -210 643 -82 624 -147 z m 726 864 b 758 219 746 756 758 610 l 758 28 l 672 28 l 672 864 z "},"Ä":{"ha":1122,"x_min":0,"x_max":0,"o":"m 531 1128 l 421 1238 l 315 1131 l 425 1022 z m 807 1125 l 697 1233 l 592 1128 l 701 1018 z m 672 -200 l 672 0 l 1060 0 l 1060 28 l 972 28 b 956 499 960 174 956 358 b 971 928 956 694 960 782 b 676 892 921 913 806 894 l 643 892 l 643 744 b 321 942 543 806 451 942 b 94 615 172 942 94 807 b 96 575 94 601 94 588 l 121 575 b 381 732 125 700 211 732 b 643 715 476 732 567 722 l 643 575 b 521 418 611 538 568 481 l 168 418 l 154 339 b 393 390 221 371 314 390 l 499 390 b 303 150 435 307 365 217 b 83 10 219 60 149 10 b -15 50 49 10 17 22 l -32 32 b -3 4 -24 22 -14 14 b 239 -110 75 -69 160 -110 b 411 -29 301 -110 360 -85 b 643 538 568 150 517 382 l 643 28 l 556 28 l 556 0 l 643 0 l 643 -4 b 594 -210 643 -82 624 -147 z m 726 864 b 758 219 746 756 758 610 l 758 28 l 672 28 l 672 864 z "},"À":{"ha":1122,"x_min":0,"x_max":0,"o":"m 432 1203 b 665 1006 432 1136 565 1096 l 689 1022 b 572 1293 640 1117 600 1208 b 432 1203 501 1282 432 1256 z m 672 -200 l 672 0 l 1060 0 l 1060 28 l 972 28 b 956 499 960 174 956 358 b 971 928 956 694 960 782 b 676 892 921 913 806 894 l 643 892 l 643 744 b 321 942 543 806 451 942 b 94 615 172 942 94 807 b 96 575 94 601 94 588 l 121 575 b 381 732 125 700 211 732 b 643 715 476 732 567 722 l 643 575 b 521 418 611 538 568 481 l 168 418 l 154 339 b 393 390 221 371 314 390 l 499 390 b 303 150 435 307 365 217 b 83 10 219 60 149 10 b -15 50 49 10 17 22 l -32 32 b -3 4 -24 22 -14 14 b 239 -110 75 -69 160 -110 b 411 -29 301 -110 360 -85 b 643 538 568 150 517 382 l 643 28 l 556 28 l 556 0 l 643 0 l 643 -4 b 594 -210 643 -82 624 -147 z m 726 864 b 758 219 746 756 758 610 l 758 28 l 672 28 l 672 864 z "},"Å":{"ha":1122,"x_min":0,"x_max":0,"o":"m 672 -200 l 672 0 l 1060 0 l 1060 28 l 972 28 b 956 499 960 174 956 358 b 971 928 956 694 960 782 b 721 893 926 915 832 899 b 758 219 743 781 758 644 l 758 28 l 672 28 l 672 949 b 819 1092 754 956 819 1017 b 657 1238 819 1172 746 1238 b 493 1092 567 1238 493 1172 b 643 949 493 1017 560 956 l 643 744 b 321 942 543 806 451 942 b 94 615 172 942 94 807 b 96 575 94 601 94 588 l 121 575 b 381 732 125 700 211 732 b 643 715 476 732 567 722 l 643 575 b 521 418 611 538 568 481 l 168 418 l 154 339 b 393 390 221 371 314 390 l 499 390 b 303 150 435 307 365 217 b 83 10 219 60 149 10 b -15 50 49 10 17 22 l -32 32 b -3 4 -24 22 -14 14 b 239 -110 75 -69 160 -110 b 411 -29 301 -110 360 -85 b 643 538 568 150 517 382 l 643 28 l 556 28 l 556 0 l 643 0 l 643 -4 b 594 -210 643 -82 624 -147 z m 657 976 b 592 1092 608 976 592 1018 b 657 1210 592 1168 608 1210 b 722 1092 706 1210 722 1168 b 657 976 722 1018 706 976 z "},"Ã":{"ha":1122,"x_min":0,"x_max":0,"o":"m 739 1181 b 519 1247 672 1181 586 1247 b 365 1011 429 1247 378 1160 l 389 1011 b 489 1119 399 1076 431 1119 b 708 1053 553 1119 642 1053 b 863 1289 799 1053 850 1140 l 839 1289 b 739 1181 829 1224 797 1181 z m 672 -200 l 672 0 l 1060 0 l 1060 28 l 972 28 b 956 499 960 174 956 358 b 971 928 956 694 960 782 b 676 892 921 913 806 894 l 643 892 l 643 744 b 321 942 543 806 451 942 b 94 615 172 942 94 807 b 96 575 94 601 94 588 l 121 575 b 381 732 125 700 211 732 b 643 715 476 732 567 722 l 643 575 b 521 418 611 538 568 481 l 168 418 l 154 339 b 393 390 221 371 314 390 l 499 390 b 303 150 435 307 365 217 b 83 10 219 60 149 10 b -15 50 49 10 17 22 l -32 32 b -3 4 -24 22 -14 14 b 239 -110 75 -69 160 -110 b 411 -29 301 -110 360 -85 b 643 538 568 150 517 382 l 643 28 l 556 28 l 556 0 l 643 0 l 643 -4 b 594 -210 643 -82 624 -147 z m 726 864 b 758 219 746 756 758 610 l 758 28 l 672 28 l 672 864 z "},"Ă":{"ha":1122,"x_min":0,"x_max":0,"o":"m 569 1006 b 768 1256 696 1006 756 1099 l 744 1256 b 568 1133 732 1182 667 1133 b 393 1256 471 1133 406 1182 l 369 1256 b 569 1006 382 1097 454 1006 z m 672 -200 l 672 0 l 1060 0 l 1060 28 l 972 28 b 956 499 960 174 956 358 b 971 928 956 694 960 782 b 676 892 921 913 806 894 l 643 892 l 643 744 b 321 942 543 806 451 942 b 94 615 172 942 94 807 b 96 575 94 601 94 588 l 121 575 b 381 732 125 700 211 732 b 643 715 476 732 567 722 l 643 575 b 521 418 611 538 568 481 l 168 418 l 154 339 b 393 390 221 371 314 390 l 499 390 b 303 150 435 307 365 217 b 83 10 219 60 149 10 b -15 50 49 10 17 22 l -32 32 b -3 4 -24 22 -14 14 b 239 -110 75 -69 160 -110 b 411 -29 301 -110 360 -85 b 643 538 568 150 517 382 l 643 28 l 556 28 l 556 0 l 643 0 l 643 -4 b 594 -210 643 -82 624 -147 z m 726 864 b 758 219 746 756 758 610 l 758 28 l 672 28 l 672 864 z "},"Ā":{"ha":1122,"x_min":0,"x_max":0,"o":"m 364 1183 l 364 1071 b 578 1082 436 1075 510 1082 b 792 1075 643 1082 719 1079 l 792 1179 b 578 1172 719 1175 643 1172 b 364 1183 510 1172 436 1178 z m 672 -200 l 672 0 l 1060 0 l 1060 28 l 972 28 b 956 499 960 174 956 358 b 971 928 956 694 960 782 b 676 892 921 913 806 894 l 643 892 l 643 744 b 321 942 543 806 451 942 b 94 615 172 942 94 807 b 96 575 94 601 94 588 l 121 575 b 381 732 125 700 211 732 b 643 715 476 732 567 722 l 643 575 b 521 418 611 538 568 481 l 168 418 l 154 339 b 393 390 221 371 314 390 l 499 390 b 303 150 435 307 365 217 b 83 10 219 60 149 10 b -15 50 49 10 17 22 l -32 32 b -3 4 -24 22 -14 14 b 239 -110 75 -69 160 -110 b 411 -29 301 -110 360 -85 b 643 538 568 150 517 382 l 643 28 l 556 28 l 556 0 l 643 0 l 643 -4 b 594 -210 643 -82 624 -147 z m 726 864 b 758 219 746 756 758 610 l 758 28 l 672 28 l 672 864 z "},"Ą":{"ha":1122,"x_min":0,"x_max":0,"o":"m 885 -212 l 869 -196 b 769 -226 835 -218 804 -226 b 685 -147 728 -226 685 -206 b 917 0 685 -86 736 0 l 1060 0 l 1060 28 l 972 28 b 956 499 960 174 956 358 b 971 928 956 694 960 782 b 721 893 926 915 832 899 b 758 219 743 781 758 644 l 758 28 l 672 28 l 672 893 b 724 1132 672 972 692 1065 l 643 1119 l 643 744 b 321 942 543 806 451 942 b 94 615 172 942 94 807 b 96 575 94 601 94 588 l 121 575 b 381 732 125 700 211 732 b 643 715 476 732 567 722 l 643 575 b 521 418 611 538 568 481 l 168 418 l 154 339 b 393 390 221 371 314 390 l 499 390 b 303 150 435 307 365 217 b -15 50 176 13 79 -31 l -32 32 b -3 4 -24 22 -14 14 b 411 -29 138 -126 296 -154 b 643 538 568 150 517 382 l 643 28 l 556 28 l 556 0 l 747 0 b 535 -246 610 -111 535 -178 b 649 -335 535 -299 578 -335 b 885 -212 725 -335 807 -286 z "},"Ç":{"ha":1011,"x_min":0,"x_max":0,"o":"m 539 -339 b 728 -203 643 -339 728 -292 b 536 -78 728 -126 650 -78 l 507 -78 l 507 -10 b 568 -14 526 -12 547 -14 b 938 229 788 -14 938 121 l 788 274 l 765 258 b 568 14 794 114 689 14 b 507 21 546 14 526 17 l 507 451 l 599 360 l 717 478 l 596 599 l 507 510 l 507 913 b 536 914 517 914 526 914 b 804 711 690 914 681 711 b 936 951 892 711 936 811 b 935 992 936 965 936 979 l 910 992 b 786 921 908 933 833 921 b 558 942 707 921 675 942 b 508 939 542 942 525 940 b 558 1132 515 1007 532 1078 l 478 1119 l 478 935 b 72 464 251 896 72 699 b 478 -6 72 231 249 36 l 478 -106 l 504 -106 b 593 -210 571 -106 593 -143 b 526 -311 593 -275 574 -311 b 463 -201 479 -311 449 -267 l 451 -194 l 349 -217 b 539 -339 349 -271 426 -339 z m 308 464 b 478 906 308 717 360 869 l 478 29 b 308 464 354 75 308 225 z "},"Ć":{"ha":1011,"x_min":0,"x_max":0,"o":"m 413 1022 l 436 1006 b 669 1203 536 1096 669 1136 b 529 1293 669 1256 600 1282 b 413 1022 501 1208 461 1117 z m 507 -200 l 507 -10 b 568 -14 526 -12 547 -14 b 938 229 788 -14 938 121 l 788 274 l 765 258 b 771 211 768 242 771 226 b 568 14 771 93 675 14 b 507 21 546 14 526 17 l 507 451 l 599 360 l 717 478 l 596 599 l 507 510 l 507 913 b 536 914 526 914 531 914 b 804 711 690 914 681 711 b 935 951 892 711 935 811 l 935 992 l 910 992 b 786 921 908 933 833 921 b 558 942 707 921 675 942 b 72 464 296 942 72 726 b 478 -6 72 231 249 36 b 429 -210 478 -82 458 -147 z m 308 464 b 478 906 308 717 360 869 l 478 29 b 308 464 354 75 308 225 z "},"Č":{"ha":1011,"x_min":0,"x_max":0,"o":"m 479 1006 l 617 1006 l 624 1025 b 775 1276 653 1106 694 1179 l 751 1293 b 547 1140 661 1233 603 1190 b 344 1293 493 1190 435 1233 l 321 1276 b 479 1006 407 1172 450 1094 z m 507 -200 l 507 -10 b 568 -14 526 -12 547 -14 b 938 229 788 -14 938 121 l 788 274 l 765 258 b 771 211 768 242 771 226 b 568 14 771 93 675 14 b 507 21 546 14 526 17 l 507 451 l 599 360 l 717 478 l 596 599 l 507 510 l 507 913 b 536 914 526 914 531 914 b 804 711 690 914 681 711 b 935 951 892 711 935 811 l 935 992 l 910 992 b 786 921 908 933 833 921 b 558 942 707 921 675 942 b 72 464 296 942 72 726 b 478 -6 72 231 249 36 b 429 -210 478 -82 458 -147 z m 308 464 b 478 906 308 717 360 869 l 478 29 b 308 464 354 75 308 225 z "},"Ĉ":{"ha":1011,"x_min":0,"x_max":0,"o":"m 729 1006 l 753 1022 b 601 1293 682 1124 635 1206 l 450 1293 b 299 1022 417 1206 369 1124 l 322 1006 b 526 1158 413 1065 471 1108 b 729 1006 581 1108 639 1065 z m 507 -200 l 507 -10 b 568 -14 526 -12 547 -14 b 938 229 788 -14 938 121 l 788 274 l 765 258 b 771 211 768 242 771 226 b 568 14 771 93 675 14 b 507 21 546 14 526 17 l 507 451 l 599 360 l 717 478 l 596 599 l 507 510 l 507 913 b 536 914 526 914 531 914 b 804 711 690 914 681 711 b 935 951 892 711 935 811 l 935 992 l 910 992 b 786 921 908 933 833 921 b 558 942 707 921 675 942 b 72 464 296 942 72 726 b 478 -6 72 231 249 36 b 429 -210 478 -82 458 -147 z m 308 464 b 478 906 308 717 360 869 l 478 29 b 308 464 354 75 308 225 z "},"Ċ":{"ha":1011,"x_min":0,"x_max":0,"o":"m 525 1011 l 649 1135 l 522 1261 l 399 1138 z m 507 -200 l 507 -10 b 568 -14 526 -12 547 -14 b 938 229 788 -14 938 121 l 788 274 l 765 258 b 771 211 768 242 771 226 b 568 14 771 93 675 14 b 507 21 546 14 526 17 l 507 451 l 599 360 l 717 478 l 596 599 l 507 510 l 507 913 b 536 914 526 914 531 914 b 804 711 690 914 681 711 b 935 951 892 711 935 811 l 935 992 l 910 992 b 786 921 908 933 833 921 b 558 942 707 921 675 942 b 72 464 296 942 72 726 b 478 -6 72 231 249 36 b 429 -210 478 -82 458 -147 z m 308 464 b 478 906 308 717 360 869 l 478 29 b 308 464 354 75 308 225 z "},"Ď":{"ha":1221,"x_min":0,"x_max":0,"o":"m 533 1006 l 671 1006 l 678 1025 b 829 1276 707 1106 749 1179 l 806 1293 b 601 1140 715 1233 657 1190 b 399 1293 547 1190 489 1233 l 375 1276 b 533 1006 461 1172 504 1094 z m 590 -200 l 590 -12 b 633 -14 604 -14 618 -14 b 1150 478 928 -14 1150 188 b 621 942 1150 740 901 942 b 267 918 540 942 422 918 b 21 1075 111 918 25 950 l -4 1075 b -6 1035 -6 1063 -6 1049 b 226 708 -6 843 72 708 b 561 906 365 708 431 867 l 561 669 b 132 349 271 669 132 511 b 561 -11 132 168 297 14 b 513 -210 561 -82 542 -147 z m 632 14 b 590 17 618 14 604 15 l 590 451 l 682 360 l 800 478 l 679 599 l 590 510 l 590 911 b 621 914 600 913 610 914 b 914 457 807 914 914 751 b 632 14 914 171 824 14 z m 353 353 b 561 642 353 531 425 636 l 561 21 b 353 353 424 51 353 174 z "},"Đ":{"ha":1268,"x_min":0,"x_max":0,"o":"m 638 -200 l 638 -12 b 681 -14 656 -14 665 -14 b 1197 478 975 -14 1197 188 b 668 942 1197 740 949 942 l 639 942 b 689 1132 644 1010 664 1078 l 608 1119 l 608 939 b 314 918 533 932 435 918 b 68 1075 158 918 72 950 l 43 1075 l 43 1035 b 274 708 43 843 121 708 b 608 906 413 708 478 867 l 608 669 b 179 365 328 669 189 522 l 8 365 l -7 317 b 176 338 44 325 107 336 l 179 338 b 608 -11 186 161 350 14 b 560 -210 608 -82 589 -147 z m 679 14 b 638 17 665 14 650 15 l 638 451 l 729 360 l 847 478 l 726 599 l 638 510 l 638 911 b 668 914 644 913 657 914 b 961 457 854 914 961 751 b 679 14 961 171 871 14 z m 608 642 l 608 365 l 400 365 b 608 642 404 536 475 636 z m 608 21 b 400 338 475 50 404 167 l 608 338 z "},"É":{"ha":1079,"x_min":0,"x_max":0,"o":"m 463 1022 l 486 1006 b 719 1203 586 1096 719 1136 b 579 1293 719 1256 650 1282 b 463 1022 551 1208 511 1117 z m 506 -200 l 506 -6 b 608 -14 539 -11 574 -14 b 1006 229 844 -14 1006 121 l 856 274 l 833 258 b 838 214 836 243 838 228 b 608 14 838 93 732 14 b 506 28 569 14 536 18 l 506 410 l 557 410 b 753 397 686 410 715 406 l 753 332 l 781 332 l 781 621 l 753 621 l 753 556 b 557 543 715 547 686 543 l 506 543 l 506 908 b 560 914 522 913 540 914 b 863 711 744 914 735 711 b 1007 951 954 711 1007 811 l 1007 992 l 982 992 b 844 921 976 933 892 921 b 571 942 758 921 724 942 b 71 464 311 942 71 736 b 476 1 71 242 244 53 l 476 -4 b 428 -210 476 -82 457 -147 z m 310 543 b 476 899 319 736 374 858 l 476 543 z m 476 39 b 308 410 364 90 315 217 l 476 410 z "},"Ê":{"ha":1079,"x_min":0,"x_max":0,"o":"m 767 1006 l 790 1022 b 639 1293 719 1124 672 1206 l 488 1293 b 336 1022 454 1206 407 1124 l 360 1006 b 564 1158 450 1065 508 1108 b 767 1006 618 1108 676 1065 z m 506 -200 l 506 -6 b 608 -14 539 -11 574 -14 b 1006 229 844 -14 1006 121 l 856 274 l 833 258 b 838 214 836 243 838 228 b 608 14 838 93 732 14 b 506 28 569 14 536 18 l 506 410 l 557 410 b 753 397 686 410 715 406 l 753 332 l 781 332 l 781 621 l 753 621 l 753 556 b 557 543 715 547 686 543 l 506 543 l 506 908 b 560 914 522 913 540 914 b 863 711 744 914 735 711 b 1007 951 954 711 1007 811 l 1007 992 l 982 992 b 844 921 976 933 892 921 b 571 942 758 921 724 942 b 71 464 311 942 71 736 b 476 1 71 242 244 53 l 476 -4 b 428 -210 476 -82 457 -147 z m 310 543 b 476 899 319 736 374 858 l 476 543 z m 476 39 b 308 410 364 90 315 217 l 476 410 z "},"Ë":{"ha":1079,"x_min":0,"x_max":0,"o":"m 535 1128 l 425 1238 l 319 1131 l 429 1022 z m 811 1125 l 701 1233 l 596 1128 l 706 1018 z m 506 -200 l 506 -6 b 608 -14 539 -11 574 -14 b 1006 229 844 -14 1006 121 l 856 274 l 833 258 b 838 214 836 243 838 228 b 608 14 838 93 732 14 b 506 28 569 14 536 18 l 506 410 l 557 410 b 753 397 686 410 715 406 l 753 332 l 781 332 l 781 621 l 753 621 l 753 556 b 557 543 715 547 686 543 l 506 543 l 506 908 b 560 914 522 913 540 914 b 863 711 744 914 735 711 b 1007 951 954 711 1007 811 l 1007 992 l 982 992 b 844 921 976 933 892 921 b 571 942 758 921 724 942 b 71 464 311 942 71 736 b 476 1 71 242 244 53 l 476 -4 b 428 -210 476 -82 457 -147 z m 310 543 b 476 899 319 736 374 858 l 476 543 z m 476 39 b 308 410 364 90 315 217 l 476 410 z "},"È":{"ha":1079,"x_min":0,"x_max":0,"o":"m 432 1203 b 665 1006 432 1136 565 1096 l 689 1022 b 572 1293 640 1117 600 1208 b 432 1203 501 1282 432 1256 z m 506 -200 l 506 -6 b 608 -14 539 -11 574 -14 b 1006 229 844 -14 1006 121 l 856 274 l 833 258 b 838 214 836 243 838 228 b 608 14 838 93 732 14 b 506 28 569 14 536 18 l 506 410 l 557 410 b 753 397 686 410 715 406 l 753 332 l 781 332 l 781 621 l 753 621 l 753 556 b 557 543 715 547 686 543 l 506 543 l 506 908 b 560 914 522 913 540 914 b 863 711 744 914 735 711 b 1007 951 954 711 1007 811 l 1007 992 l 982 992 b 844 921 976 933 892 921 b 571 942 758 921 724 942 b 71 464 311 942 71 736 b 476 1 71 242 244 53 l 476 -4 b 428 -210 476 -82 457 -147 z m 310 543 b 476 899 319 736 374 858 l 476 543 z m 476 39 b 308 410 364 90 315 217 l 476 410 z "},"Ĕ":{"ha":1079,"x_min":0,"x_max":0,"o":"m 564 1006 b 763 1256 690 1006 750 1099 l 739 1256 b 563 1133 726 1182 661 1133 b 388 1256 465 1133 400 1182 l 364 1256 b 564 1006 376 1097 449 1006 z m 506 -200 l 506 -6 b 608 -14 539 -11 574 -14 b 1006 229 844 -14 1006 121 l 856 274 l 833 258 b 838 214 836 243 838 228 b 608 14 838 93 732 14 b 506 28 569 14 536 18 l 506 410 l 557 410 b 753 397 686 410 715 406 l 753 332 l 781 332 l 781 621 l 753 621 l 753 556 b 557 543 715 547 686 543 l 506 543 l 506 908 b 560 914 522 913 540 914 b 863 711 744 914 735 711 b 1007 951 954 711 1007 811 l 1007 992 l 982 992 b 844 921 976 933 892 921 b 571 942 758 921 724 942 b 71 464 311 942 71 736 b 476 1 71 242 244 53 l 476 -4 b 428 -210 476 -82 457 -147 z m 310 543 b 476 899 319 736 374 858 l 476 543 z m 476 39 b 308 410 364 90 315 217 l 476 410 z "},"Ě":{"ha":1079,"x_min":0,"x_max":0,"o":"m 494 1006 l 632 1006 l 639 1025 b 790 1276 668 1106 710 1179 l 767 1293 b 563 1140 676 1233 618 1190 b 360 1293 508 1190 450 1233 l 336 1276 b 494 1006 422 1172 465 1094 z m 506 -200 l 506 -6 b 608 -14 539 -11 574 -14 b 1006 229 844 -14 1006 121 l 856 274 l 833 258 b 838 214 836 243 838 228 b 608 14 838 93 732 14 b 506 28 569 14 536 18 l 506 410 l 557 410 b 753 397 686 410 715 406 l 753 332 l 781 332 l 781 621 l 753 621 l 753 556 b 557 543 715 547 686 543 l 506 543 l 506 908 b 560 914 522 913 540 914 b 863 711 744 914 735 711 b 1007 951 954 711 1007 811 l 1007 992 l 982 992 b 844 921 976 933 892 921 b 571 942 758 921 724 942 b 71 464 311 942 71 736 b 476 1 71 242 244 53 l 476 -4 b 428 -210 476 -82 457 -147 z m 310 543 b 476 899 319 736 374 858 l 476 543 z m 476 39 b 308 410 364 90 315 217 l 476 410 z "},"Ė":{"ha":1079,"x_min":0,"x_max":0,"o":"m 568 1011 l 692 1135 l 565 1261 l 442 1138 z m 506 -200 l 506 -6 b 608 -14 539 -11 574 -14 b 1006 229 844 -14 1006 121 l 856 274 l 833 258 b 838 214 836 243 838 228 b 608 14 838 93 732 14 b 506 28 569 14 536 18 l 506 410 l 557 410 b 753 397 686 410 715 406 l 753 332 l 781 332 l 781 621 l 753 621 l 753 556 b 557 543 715 547 686 543 l 506 543 l 506 908 b 560 914 522 913 540 914 b 863 711 744 914 735 711 b 1007 951 954 711 1007 811 l 1007 992 l 982 992 b 844 921 976 933 892 921 b 571 942 758 921 724 942 b 71 464 311 942 71 736 b 476 1 71 242 244 53 l 476 -4 b 428 -210 476 -82 457 -147 z m 310 543 b 476 899 319 736 374 858 l 476 543 z m 476 39 b 308 410 364 90 315 217 l 476 410 z "},"Ē":{"ha":1079,"x_min":0,"x_max":0,"o":"m 358 1183 l 358 1071 b 572 1082 431 1075 504 1082 b 786 1075 638 1082 714 1079 l 786 1179 b 572 1172 714 1175 638 1172 b 358 1183 504 1172 431 1178 z m 506 -200 l 506 -6 b 608 -14 539 -11 574 -14 b 1006 229 844 -14 1006 121 l 856 274 l 833 258 b 838 214 836 243 838 228 b 608 14 838 93 732 14 b 506 28 569 14 536 18 l 506 410 l 557 410 b 753 397 686 410 715 406 l 753 332 l 781 332 l 781 621 l 753 621 l 753 556 b 557 543 715 547 686 543 l 506 543 l 506 908 b 560 914 522 913 540 914 b 863 711 744 914 735 711 b 1007 951 954 711 1007 811 l 1007 992 l 982 992 b 844 921 976 933 892 921 b 571 942 758 921 724 942 b 71 464 311 942 71 736 b 476 1 71 242 244 53 l 476 -4 b 428 -210 476 -82 457 -147 z m 310 543 b 476 899 319 736 374 858 l 476 543 z m 476 39 b 308 410 364 90 315 217 l 476 410 z "},"Ę":{"ha":1079,"x_min":0,"x_max":0,"o":"m 842 -212 l 826 -196 b 661 -160 739 -256 661 -232 b 832 32 661 -85 722 -25 b 1006 229 940 81 1006 160 l 856 274 l 833 258 b 608 14 863 113 746 14 b 506 28 569 14 536 18 l 506 410 l 557 410 b 753 397 686 410 715 406 l 753 332 l 781 332 l 781 621 l 753 621 l 753 556 b 557 543 715 547 686 543 l 506 543 l 506 908 b 560 914 522 913 540 914 b 863 711 744 914 735 711 b 1008 951 954 711 1004 811 b 1007 992 1008 965 1008 979 l 982 992 b 844 921 976 933 892 921 b 571 942 758 921 724 942 b 507 938 550 942 528 940 b 557 1132 513 1006 531 1078 l 476 1119 l 476 932 b 71 464 256 890 71 703 b 608 -14 71 201 313 -14 b 718 -4 647 -14 683 -10 b 492 -246 571 -126 492 -162 b 607 -335 492 -304 542 -335 b 842 -212 685 -335 765 -285 z m 310 543 b 476 899 319 736 374 858 l 476 543 z m 476 39 b 308 410 364 90 315 217 l 476 410 z "},"Ğ":{"ha":1100,"x_min":0,"x_max":0,"o":"m 560 1006 b 758 1256 686 1006 746 1099 l 735 1256 b 558 1133 722 1182 657 1133 b 383 1256 461 1133 396 1182 l 360 1256 b 560 1006 372 1097 444 1006 z m 503 -200 l 503 -10 b 568 -14 524 -12 546 -14 b 1013 361 829 -14 1013 151 b 764 608 1013 499 925 608 b 503 413 640 608 546 539 l 503 910 b 543 914 515 913 529 914 b 836 722 731 914 721 722 b 981 951 928 722 981 818 l 981 992 l 956 992 b 818 921 950 933 865 921 b 564 942 732 921 697 942 b 72 464 296 942 72 732 b 474 -6 72 232 246 38 b 425 -210 474 -82 454 -147 z m 308 464 b 474 903 308 710 358 861 l 474 31 b 308 464 353 78 308 228 z m 568 14 b 503 21 544 14 522 17 l 503 200 b 664 492 503 422 557 492 b 829 278 778 492 829 413 b 568 14 829 100 719 14 z "},"Ĝ":{"ha":1100,"x_min":0,"x_max":0,"o":"m 754 1006 l 778 1022 b 626 1293 707 1124 660 1206 l 475 1293 b 324 1022 442 1206 394 1124 l 347 1006 b 551 1158 438 1065 496 1108 b 754 1006 606 1108 664 1065 z m 503 -200 l 503 -10 b 568 -14 524 -12 546 -14 b 1013 361 829 -14 1013 151 b 764 608 1013 499 925 608 b 503 413 640 608 546 539 l 503 910 b 543 914 515 913 529 914 b 836 722 731 914 721 722 b 981 951 928 722 981 818 l 981 992 l 956 992 b 818 921 950 933 865 921 b 564 942 732 921 697 942 b 72 464 296 942 72 732 b 474 -6 72 232 246 38 b 425 -210 474 -82 454 -147 z m 308 464 b 474 903 308 710 358 861 l 474 31 b 308 464 353 78 308 228 z m 568 14 b 503 21 544 14 522 17 l 503 200 b 664 492 503 422 557 492 b 829 278 778 492 829 413 b 568 14 829 100 719 14 z "},"Ģ":{"ha":1100,"x_min":0,"x_max":0,"o":"m 1013 361 b 764 608 1013 499 925 608 b 503 413 640 608 546 539 l 503 910 b 543 914 515 913 529 914 b 836 722 731 914 721 722 b 982 951 928 722 978 818 b 981 992 982 965 982 979 l 956 992 b 818 921 950 933 865 921 b 564 942 732 921 697 942 b 504 939 544 942 524 940 b 554 1132 511 1006 528 1078 l 474 1119 l 474 933 b 72 464 247 893 72 701 b 568 -14 72 201 296 -14 b 1013 361 829 -14 1013 151 z m 308 464 b 474 903 308 710 358 861 l 474 31 b 308 464 353 78 308 228 z m 568 14 b 503 21 544 14 522 17 l 503 200 b 664 492 503 422 557 492 b 829 278 778 492 829 413 b 568 14 829 100 719 14 z m 488 -415 b 660 -196 576 -328 660 -251 b 642 -151 660 -178 654 -162 l 560 -71 l 450 -183 l 514 -246 b 469 -396 540 -272 538 -296 z "},"Ġ":{"ha":1100,"x_min":0,"x_max":0,"o":"m 553 1011 l 676 1135 l 550 1261 l 426 1138 z m 503 -200 l 503 -10 b 568 -14 524 -12 546 -14 b 1013 361 829 -14 1013 151 b 764 608 1013 499 925 608 b 503 413 640 608 546 539 l 503 910 b 543 914 515 913 529 914 b 836 722 731 914 721 722 b 981 951 928 722 981 818 l 981 992 l 956 992 b 818 921 950 933 865 921 b 564 942 732 921 697 942 b 72 464 296 942 72 732 b 474 -6 72 232 246 38 b 425 -210 474 -82 454 -147 z m 308 464 b 474 903 308 710 358 861 l 474 31 b 308 464 353 78 308 228 z m 568 14 b 503 21 544 14 522 17 l 503 200 b 664 492 503 422 557 492 b 829 278 778 492 829 413 b 568 14 829 100 719 14 z "},"Ħ":{"ha":1157,"x_min":0,"x_max":0,"o":"m 496 -200 l 496 0 l 582 0 l 582 28 l 496 28 l 496 117 b 672 590 496 453 543 590 b 836 317 793 590 836 453 b 769 0 836 206 814 86 l 1031 0 l 1031 28 l 836 28 b 1068 350 988 115 1068 233 b 717 622 1068 522 897 622 b 496 440 592 622 526 576 l 496 665 l 636 665 l 651 714 b 496 694 607 706 554 697 l 496 900 b 808 701 599 878 682 701 b 1035 1014 957 701 1035 831 b 1033 1054 1035 1028 1035 1042 l 1008 1054 b 749 911 1004 940 918 911 b 497 928 657 911 569 921 b 547 1132 501 999 519 1075 l 467 1119 l 467 693 l 386 693 b 399 928 388 774 392 840 b 65 892 344 911 210 890 l 65 864 l 151 864 b 175 693 161 815 169 767 l -1 693 l -17 644 b 176 665 38 654 103 664 b 186 219 183 571 186 436 l 186 28 l 75 28 l 75 0 l 467 0 l 467 -4 b 418 -210 467 -82 447 -147 z m 467 28 l 400 28 b 383 499 388 174 383 358 b 385 665 383 564 383 618 l 467 665 z "},"Ĥ":{"ha":1157,"x_min":0,"x_max":0,"o":"m 774 1006 l 797 1022 b 646 1293 726 1124 679 1206 l 494 1293 b 343 1022 461 1206 414 1124 l 367 1006 b 571 1158 457 1065 515 1108 b 774 1006 625 1108 683 1065 z m 496 -200 l 496 0 l 582 0 l 582 28 l 496 28 l 496 117 b 672 590 496 453 543 590 b 836 317 793 590 836 453 b 769 0 836 206 814 86 l 1031 0 l 1031 28 l 836 28 b 1068 350 988 115 1068 233 b 717 622 1068 522 897 622 b 496 440 592 622 526 576 l 496 900 b 808 701 599 879 682 701 b 1035 1014 957 701 1035 831 b 1033 1054 1035 1028 1035 1042 l 1008 1054 b 749 911 1004 940 918 911 b 467 929 633 911 540 926 l 467 28 l 400 28 b 383 499 388 174 383 358 b 399 928 383 694 388 782 b 65 892 344 911 210 890 l 65 864 l 151 864 b 186 219 174 751 186 644 l 186 28 l 75 28 l 75 0 l 467 0 l 467 -4 b 418 -210 467 -82 447 -147 z "},"Í":{"ha":657,"x_min":0,"x_max":0,"o":"m 149 1022 l 172 1006 b 406 1203 272 1096 406 1136 b 265 1293 406 1256 336 1282 b 149 1022 238 1208 197 1117 z m 492 -200 l 492 0 l 578 0 l 578 28 l 492 28 l 492 928 l 463 928 l 463 28 l 400 28 b 383 499 388 174 383 358 b 399 928 383 694 388 782 b 65 892 344 911 210 890 l 65 864 l 151 864 b 186 219 174 751 186 644 l 186 28 l 75 28 l 75 0 l 463 0 l 463 -4 b 414 -210 463 -82 443 -147 z "},"Î":{"ha":657,"x_min":0,"x_max":0,"o":"m 481 1006 l 504 1022 b 353 1293 433 1124 386 1206 l 201 1293 b 50 1022 168 1206 121 1124 l 74 1006 b 278 1158 164 1065 222 1108 b 481 1006 332 1108 390 1065 z m 492 -200 l 492 0 l 578 0 l 578 28 l 492 28 l 492 928 l 463 928 l 463 28 l 400 28 b 383 499 388 174 383 358 b 399 928 383 694 388 782 b 65 892 344 911 210 890 l 65 864 l 151 864 b 186 219 174 751 186 644 l 186 28 l 75 28 l 75 0 l 463 0 l 463 -4 b 414 -210 463 -82 443 -147 z "},"Ï":{"ha":657,"x_min":0,"x_max":0,"o":"m 247 1128 l 138 1238 l 32 1131 l 142 1022 z m 524 1125 l 414 1233 l 308 1128 l 418 1018 z m 492 -200 l 492 0 l 578 0 l 578 28 l 492 28 l 492 928 l 463 928 l 463 28 l 400 28 b 383 499 388 174 383 358 b 399 928 383 694 388 782 b 65 892 344 911 210 890 l 65 864 l 151 864 b 186 219 174 751 186 644 l 186 28 l 75 28 l 75 0 l 463 0 l 463 -4 b 414 -210 463 -82 443 -147 z "},"Ì":{"ha":657,"x_min":0,"x_max":0,"o":"m 149 1203 b 382 1006 149 1136 282 1096 l 406 1022 b 289 1293 357 1117 317 1208 b 149 1203 218 1282 149 1256 z m 492 -200 l 492 0 l 578 0 l 578 28 l 492 28 l 492 928 l 463 928 l 463 28 l 400 28 b 383 499 388 174 383 358 b 399 928 383 694 388 782 b 65 892 344 911 210 890 l 65 864 l 151 864 b 186 219 174 751 186 644 l 186 28 l 75 28 l 75 0 l 463 0 l 463 -4 b 414 -210 463 -82 443 -147 z "},"Ĭ":{"ha":657,"x_min":0,"x_max":0,"o":"m 278 1006 b 476 1256 404 1006 464 1099 l 453 1256 b 276 1133 440 1182 375 1133 b 101 1256 179 1133 114 1182 l 78 1256 b 278 1006 90 1097 163 1006 z m 492 -200 l 492 0 l 578 0 l 578 28 l 492 28 l 492 928 l 463 928 l 463 28 l 400 28 b 383 499 388 174 383 358 b 399 928 383 694 388 782 b 65 892 344 911 210 890 l 65 864 l 151 864 b 186 219 174 751 186 644 l 186 28 l 75 28 l 75 0 l 463 0 l 463 -4 b 414 -210 463 -82 443 -147 z "},"İ":{"ha":657,"x_min":0,"x_max":0,"o":"m 279 1011 l 403 1135 l 276 1261 l 153 1138 z m 492 -200 l 492 0 l 578 0 l 578 28 l 492 28 l 492 928 l 463 928 l 463 28 l 400 28 b 383 499 388 174 383 358 b 399 928 383 694 388 782 b 65 892 344 911 210 890 l 65 864 l 151 864 b 186 219 174 751 186 644 l 186 28 l 75 28 l 75 0 l 463 0 l 463 -4 b 414 -210 463 -82 443 -147 z "},"Ī":{"ha":657,"x_min":0,"x_max":0,"o":"m 64 1183 l 64 1071 b 278 1082 136 1075 210 1082 b 492 1075 343 1082 419 1079 l 492 1179 b 278 1172 419 1175 343 1172 b 64 1183 210 1172 136 1178 z m 492 -200 l 492 0 l 578 0 l 578 28 l 492 28 l 492 928 l 463 928 l 463 28 l 400 28 b 383 499 388 174 383 358 b 399 928 383 694 388 782 b 65 892 344 911 210 890 l 65 864 l 151 864 b 186 219 174 751 186 644 l 186 28 l 75 28 l 75 0 l 463 0 l 463 -4 b 414 -210 463 -82 443 -147 z "},"Į":{"ha":657,"x_min":0,"x_max":0,"o":"m 328 -212 l 313 -196 b 213 -226 278 -218 247 -226 b 128 -147 171 -226 128 -206 b 360 0 128 -86 179 0 l 463 0 l 463 -4 b 414 -210 463 -82 443 -147 l 492 -200 l 492 0 l 578 0 l 578 28 l 492 28 l 492 893 b 543 1132 492 972 511 1065 l 463 1119 l 463 28 l 400 28 b 383 499 388 174 383 358 b 399 928 383 694 388 782 b 65 892 344 911 210 890 l 65 864 l 151 864 b 186 219 174 751 186 644 l 186 28 l 75 28 l 75 0 l 190 0 b -22 -246 53 -111 -22 -178 b 92 -335 -22 -299 21 -335 b 328 -212 168 -335 250 -286 z "},"Ĩ":{"ha":657,"x_min":0,"x_max":0,"o":"m 410 1181 b 190 1247 343 1181 257 1247 b 36 1011 100 1247 49 1160 l 60 1011 b 160 1119 69 1076 101 1119 b 379 1053 224 1119 313 1053 b 533 1289 469 1053 521 1140 l 510 1289 b 410 1181 500 1224 468 1181 z m 492 -200 l 492 0 l 578 0 l 578 28 l 492 28 l 492 928 l 463 928 l 463 28 l 400 28 b 383 499 388 174 383 358 b 399 928 383 694 388 782 b 65 892 344 911 210 890 l 65 864 l 151 864 b 186 219 174 751 186 644 l 186 28 l 75 28 l 75 0 l 463 0 l 463 -4 b 414 -210 463 -82 443 -147 z "},"Ĵ":{"ha":806,"x_min":0,"x_max":0,"o":"m 582 1006 l 606 1022 b 454 1293 535 1124 488 1206 l 303 1293 b 151 1022 269 1206 222 1124 l 175 1006 b 379 1158 265 1065 324 1108 b 582 1006 433 1108 492 1065 z m 589 -32 b 603 710 663 211 486 385 b 633 708 614 708 624 708 b 732 860 796 708 799 794 b 586 749 678 860 626 821 b 213 942 458 788 368 942 b -3 615 71 942 -3 807 b -1 575 -3 601 -3 588 l 24 575 b 272 732 28 700 110 732 b 449 722 335 732 394 728 l 217 -142 b 175 -133 203 -140 190 -137 b 78 -69 132 -119 104 -97 l 60 -90 b 200 -175 83 -115 113 -142 l 207 -178 l 201 -197 b 104 -385 181 -272 147 -331 l 178 -393 l 233 -186 b 589 -32 397 -236 540 -185 z m 408 89 b 246 -142 365 -50 319 -131 l 479 719 b 569 711 511 717 542 714 b 408 89 529 611 489 351 z "},"Ĳ":{"ha":1008,"x_min":0,"x_max":0,"o":"m 792 -32 b 806 710 865 211 688 385 b 836 708 817 708 826 708 b 935 860 999 708 1001 794 b 789 749 881 860 829 821 b 699 783 756 756 725 768 l 724 876 b 832 1096 744 954 785 1039 l 754 1103 l 672 797 b 406 942 576 857 511 942 b 322 586 281 942 213 794 b 51 558 261 572 160 557 l 51 531 l 138 531 b 150 339 140 489 150 435 l 150 35 l 61 35 l 61 7 l 460 7 l 419 -142 b 378 -133 406 -140 393 -137 b 281 -69 335 -119 307 -97 l 263 -90 b 403 -175 286 -115 315 -142 l 410 -178 l 404 -197 b 307 -385 383 -272 350 -331 l 381 -393 l 436 -186 b 792 -32 600 -236 743 -185 z m 356 35 b 347 353 347 136 347 258 b 353 575 347 454 347 504 l 353 581 b 354 594 353 585 354 589 b 531 732 364 703 421 732 b 653 725 574 732 614 729 l 467 35 z m 611 89 b 449 -142 568 -50 522 -131 l 682 722 b 774 713 715 719 746 715 b 611 89 732 613 692 353 z "},"Ķ":{"ha":1067,"x_min":0,"x_max":0,"o":"m 576 -196 b 558 -151 576 -178 571 -162 l 492 -86 l 492 465 b 672 -29 589 313 542 121 b 1086 4 788 -154 946 -126 b 1115 32 1097 14 1107 22 l 1099 50 b 786 157 1003 -31 915 17 b 571 414 718 231 640 328 b 982 790 775 590 982 665 b 632 933 982 876 878 963 l 632 906 b 751 750 707 906 751 851 b 554 436 751 657 692 560 b 492 514 532 464 511 490 l 492 893 b 543 1132 492 972 511 1065 l 463 1119 l 463 28 l 400 28 b 383 499 388 174 383 358 b 399 928 383 694 388 782 b 65 892 343 911 214 890 l 65 864 l 151 864 b 186 219 174 751 186 644 l 186 28 l 75 28 l 75 0 l 463 0 l 463 -85 l 367 -183 l 431 -246 b 446 -278 440 -256 446 -265 b 386 -396 446 -300 429 -333 l 404 -415 b 576 -196 493 -328 576 -251 z "},"Ĺ":{"ha":882,"x_min":0,"x_max":0,"o":"m 149 1022 l 172 1006 b 406 1203 272 1096 406 1136 b 265 1293 406 1256 336 1282 b 149 1022 238 1208 197 1117 z m 499 -200 l 499 183 b 738 -14 576 126 640 -14 b 879 313 831 -14 879 121 l 879 353 l 854 353 b 678 196 850 228 793 196 b 499 213 613 196 551 206 l 499 451 l 590 360 l 708 478 l 588 599 l 499 510 l 499 928 l 469 928 l 469 28 l 403 28 b 386 499 390 174 386 358 b 401 928 386 694 390 782 b 60 892 346 911 208 890 l 60 864 l 154 864 b 189 219 176 751 189 644 l 189 28 l 78 28 l 78 0 l 469 0 l 469 -4 b 421 -210 469 -82 450 -147 z "},"Ľ":{"ha":882,"x_min":0,"x_max":0,"o":"m 499 -200 l 499 183 b 738 -14 576 126 640 -14 b 879 313 829 -14 879 121 l 879 353 l 854 353 b 678 196 850 228 793 196 b 499 213 613 196 551 206 l 499 451 l 590 360 l 708 478 l 588 599 l 499 510 l 499 893 b 550 1132 499 972 518 1065 l 469 1119 l 469 28 l 403 28 b 386 499 390 174 386 358 b 401 928 386 694 390 782 b 60 892 346 911 208 890 l 60 864 l 154 864 b 189 219 176 751 189 644 l 189 28 l 78 28 l 78 0 l 469 0 l 469 -4 b 421 -210 469 -82 450 -147 z m 644 639 b 803 829 724 718 803 779 b 786 869 803 846 797 860 l 713 942 l 614 840 l 671 785 b 686 756 681 776 686 767 b 632 649 686 735 671 706 z "},"Ļ":{"ha":882,"x_min":0,"x_max":0,"o":"m 583 -196 b 565 -151 583 -178 578 -162 l 499 -86 l 499 183 b 738 -14 576 126 640 -14 b 881 313 831 -14 881 121 b 879 353 881 326 881 340 l 854 353 b 678 196 850 228 793 196 b 499 213 613 196 551 206 l 499 451 l 590 360 l 708 478 l 588 599 l 499 510 l 499 893 b 550 1132 499 972 518 1065 l 469 1119 l 469 28 l 403 28 b 386 499 390 174 386 358 b 401 928 386 694 390 782 b 60 892 346 911 208 890 l 60 864 l 154 864 b 189 219 176 751 189 644 l 189 28 l 78 28 l 78 0 l 469 0 l 469 -85 l 374 -183 l 438 -246 b 393 -396 464 -272 461 -296 l 411 -415 b 583 -196 500 -328 583 -251 z "},"Ŀ":{"ha":882,"x_min":0,"x_max":0,"o":"m 499 -200 l 499 183 b 738 -14 576 126 640 -14 b 881 313 831 -14 881 121 b 879 353 881 326 881 340 l 854 353 b 678 196 850 228 793 196 b 499 213 613 196 551 206 l 499 893 b 550 1132 499 972 518 1065 l 469 1119 l 469 28 l 403 28 b 386 499 390 174 386 358 b 401 928 386 694 390 782 b 60 892 346 911 208 890 l 60 864 l 154 864 b 189 219 176 751 189 644 l 189 28 l 78 28 l 78 0 l 469 0 l 469 -4 b 421 -210 469 -82 450 -147 z m 772 360 l 890 478 l 769 599 l 651 481 z "},"Ñ":{"ha":1261,"x_min":0,"x_max":0,"o":"m 778 1181 b 558 1247 711 1181 625 1247 b 404 1011 468 1247 417 1160 l 428 1011 b 528 1119 438 1076 469 1119 b 747 1053 592 1119 681 1053 b 901 1289 838 1053 889 1140 l 878 1289 b 778 1181 868 1224 836 1181 z m 496 -200 l 496 0 l 582 0 l 582 28 l 496 28 l 496 451 l 588 360 l 706 478 l 585 599 l 496 510 l 496 533 b 714 907 496 750 565 907 b 882 611 847 907 882 772 b 799 154 882 424 799 292 b 953 -14 799 40 861 -14 b 1179 232 1093 -14 1179 92 l 1058 261 l 1044 246 b 1050 178 1049 221 1050 199 b 931 14 1050 54 982 14 b 846 117 881 14 846 50 b 1114 647 846 296 1114 396 b 743 942 1114 850 953 942 b 467 535 533 942 467 764 l 467 28 l 400 28 b 383 499 388 174 383 358 b 399 928 383 694 388 782 b 65 892 343 911 214 890 l 65 864 l 151 864 b 186 219 174 751 186 644 l 186 28 l 75 28 l 75 0 l 467 0 l 467 -4 b 418 -210 467 -82 447 -147 z "},"Ń":{"ha":1261,"x_min":0,"x_max":0,"o":"m 524 1022 l 547 1006 b 781 1203 647 1096 781 1136 b 640 1293 781 1256 711 1282 b 524 1022 613 1208 572 1117 z m 496 -200 l 496 0 l 582 0 l 582 28 l 496 28 l 496 451 l 588 360 l 706 478 l 585 599 l 496 510 l 496 533 b 714 907 496 750 565 907 b 882 611 847 907 882 772 b 799 154 882 424 799 292 b 953 -14 799 40 861 -14 b 1179 232 1093 -14 1179 92 l 1058 261 l 1044 246 b 1050 178 1049 221 1050 199 b 931 14 1050 54 982 14 b 846 117 881 14 846 50 b 1114 647 846 296 1114 396 b 743 942 1114 850 953 942 b 467 535 533 942 467 764 l 467 28 l 400 28 b 383 499 388 174 383 358 b 399 928 383 694 388 782 b 65 892 343 911 214 890 l 65 864 l 151 864 b 186 219 174 751 186 644 l 186 28 l 75 28 l 75 0 l 467 0 l 467 -4 b 418 -210 467 -82 447 -147 z "},"Ň":{"ha":1261,"x_min":0,"x_max":0,"o":"m 583 1006 l 721 1006 l 728 1025 b 879 1276 757 1106 799 1179 l 856 1293 b 651 1140 765 1233 707 1190 b 449 1293 597 1190 539 1233 l 425 1276 b 583 1006 511 1172 554 1094 z m 496 -200 l 496 0 l 582 0 l 582 28 l 496 28 l 496 451 l 588 360 l 706 478 l 585 599 l 496 510 l 496 533 b 714 907 496 750 565 907 b 882 611 847 907 882 772 b 799 154 882 424 799 292 b 953 -14 799 40 861 -14 b 1179 232 1093 -14 1179 92 l 1058 261 l 1044 246 b 1050 178 1049 221 1050 199 b 931 14 1050 54 982 14 b 846 117 881 14 846 50 b 1114 647 846 296 1114 396 b 743 942 1114 850 953 942 b 467 535 533 942 467 764 l 467 28 l 400 28 b 383 499 388 174 383 358 b 399 928 383 694 388 782 b 65 892 343 911 214 890 l 65 864 l 151 864 b 186 219 174 751 186 644 l 186 28 l 75 28 l 75 0 l 467 0 l 467 -4 b 418 -210 467 -82 447 -147 z "},"Ņ":{"ha":1261,"x_min":0,"x_max":0,"o":"m 496 510 l 496 533 b 714 907 496 750 565 907 b 882 611 847 907 882 772 b 799 154 882 424 799 292 b 953 -14 799 40 861 -14 b 1179 232 1093 -14 1179 92 l 1058 261 l 1044 246 b 931 14 1074 69 990 14 b 846 117 881 14 846 50 b 1114 647 846 296 1114 396 b 743 942 1114 850 953 942 b 496 756 608 942 533 868 l 496 893 b 547 1132 496 972 515 1065 l 467 1119 l 467 28 l 400 28 b 383 499 388 174 383 358 b 399 928 383 694 388 782 b 65 892 343 911 214 890 l 65 864 l 151 864 b 186 219 174 751 186 644 l 186 28 l 75 28 l 75 0 l 582 0 l 582 28 l 496 28 l 496 451 l 588 360 l 706 478 l 585 599 z m 585 -415 b 757 -196 674 -328 757 -251 b 739 -151 757 -178 751 -162 l 657 -71 l 547 -183 l 611 -246 b 626 -278 621 -256 626 -265 b 567 -396 626 -300 610 -333 z "},"Ó":{"ha":1242,"x_min":0,"x_max":0,"o":"m 478 1022 l 501 1006 b 735 1203 601 1096 735 1136 b 594 1293 735 1256 665 1282 b 478 1022 567 1208 526 1117 z m 500 -200 l 500 -3 b 621 -14 539 -10 579 -14 b 1172 485 924 -14 1172 211 b 708 942 1172 743 925 942 b 471 578 524 942 471 803 l 471 44 b 306 464 351 104 306 247 b 494 910 306 697 360 843 l 486 931 b 69 457 246 875 69 682 b 471 4 69 242 240 60 l 471 -4 b 422 -210 471 -82 451 -147 z m 621 14 b 500 32 575 14 535 21 l 500 451 l 592 360 l 710 478 l 589 599 l 500 510 l 500 572 b 692 914 500 772 535 914 b 936 464 846 914 936 754 b 621 14 936 174 853 14 z "},"Ô":{"ha":1242,"x_min":0,"x_max":0,"o":"m 824 1006 l 847 1022 b 696 1293 776 1124 729 1206 l 544 1293 b 393 1022 511 1206 464 1124 l 417 1006 b 621 1158 507 1065 565 1108 b 824 1006 675 1108 733 1065 z m 500 -200 l 500 -3 b 621 -14 539 -10 579 -14 b 1172 485 924 -14 1172 211 b 708 942 1172 743 925 942 b 471 578 524 942 471 803 l 471 44 b 306 464 351 104 306 247 b 494 910 306 697 360 843 l 486 931 b 69 457 246 875 69 682 b 471 4 69 242 240 60 l 471 -4 b 422 -210 471 -82 451 -147 z m 621 14 b 500 32 575 14 535 21 l 500 451 l 592 360 l 710 478 l 589 599 l 500 510 l 500 572 b 692 914 500 772 535 914 b 936 464 846 914 936 754 b 621 14 936 174 853 14 z "},"Ö":{"ha":1242,"x_min":0,"x_max":0,"o":"m 590 1128 l 481 1238 l 375 1131 l 485 1022 z m 867 1125 l 757 1233 l 651 1128 l 761 1018 z m 500 -200 l 500 -3 b 621 -14 539 -10 579 -14 b 1172 485 924 -14 1172 211 b 708 942 1172 743 925 942 b 471 578 524 942 471 803 l 471 44 b 306 464 351 104 306 247 b 494 910 306 697 360 843 l 486 931 b 69 457 246 875 69 682 b 471 4 69 242 240 60 l 471 -4 b 422 -210 471 -82 451 -147 z m 621 14 b 500 32 575 14 535 21 l 500 451 l 592 360 l 710 478 l 589 599 l 500 510 l 500 572 b 692 914 500 772 535 914 b 936 464 846 914 936 754 b 621 14 936 174 853 14 z "},"Ò":{"ha":1242,"x_min":0,"x_max":0,"o":"m 464 1203 b 697 1006 464 1136 597 1096 l 721 1022 b 604 1293 672 1117 632 1208 b 464 1203 533 1282 464 1256 z m 500 -200 l 500 -3 b 621 -14 539 -10 579 -14 b 1172 485 924 -14 1172 211 b 708 942 1172 743 925 942 b 471 578 524 942 471 803 l 471 44 b 306 464 351 104 306 247 b 494 910 306 697 360 843 l 486 931 b 69 457 246 875 69 682 b 471 4 69 242 240 60 l 471 -4 b 422 -210 471 -82 451 -147 z m 621 14 b 500 32 575 14 535 21 l 500 451 l 592 360 l 710 478 l 589 599 l 500 510 l 500 572 b 692 914 500 772 535 914 b 936 464 846 914 936 754 b 621 14 936 174 853 14 z "},"Õ":{"ha":1242,"x_min":0,"x_max":0,"o":"m 746 1181 b 526 1247 679 1181 593 1247 b 372 1011 436 1247 385 1160 l 396 1011 b 496 1119 406 1076 438 1119 b 715 1053 560 1119 649 1053 b 869 1289 806 1053 857 1140 l 846 1289 b 746 1181 836 1224 804 1181 z m 500 -200 l 500 -3 b 621 -14 539 -10 579 -14 b 1172 485 924 -14 1172 211 b 708 942 1172 743 925 942 b 471 578 524 942 471 803 l 471 44 b 306 464 351 104 306 247 b 494 910 306 697 360 843 l 486 931 b 69 457 246 875 69 682 b 471 4 69 242 240 60 l 471 -4 b 422 -210 471 -82 451 -147 z m 621 14 b 500 32 575 14 535 21 l 500 451 l 592 360 l 710 478 l 589 599 l 500 510 l 500 572 b 692 914 500 772 535 914 b 936 464 846 914 936 754 b 621 14 936 174 853 14 z "},"Ŏ":{"ha":1242,"x_min":0,"x_max":0,"o":"m 621 1006 b 819 1256 747 1006 807 1099 l 796 1256 b 619 1133 783 1182 718 1133 b 444 1256 522 1133 457 1182 l 421 1256 b 621 1006 433 1097 506 1006 z m 500 -200 l 500 -3 b 621 -14 539 -10 579 -14 b 1172 485 924 -14 1172 211 b 708 942 1172 743 925 942 b 471 578 524 942 471 803 l 471 44 b 306 464 351 104 306 247 b 494 910 306 697 360 843 l 486 931 b 69 457 246 875 69 682 b 471 4 69 242 240 60 l 471 -4 b 422 -210 471 -82 451 -147 z m 621 14 b 500 32 575 14 535 21 l 500 451 l 592 360 l 710 478 l 589 599 l 500 510 l 500 572 b 692 914 500 772 535 914 b 936 464 846 914 936 754 b 621 14 936 174 853 14 z "},"Ő":{"ha":1242,"x_min":0,"x_max":0,"o":"m 379 1022 l 403 1006 b 615 1203 499 1092 615 1136 b 496 1293 615 1256 557 1283 b 379 1022 468 1208 428 1117 z m 663 1022 l 686 1006 b 899 1203 782 1092 899 1136 b 779 1293 899 1256 840 1283 b 663 1022 751 1208 711 1117 z m 500 -200 l 500 -3 b 621 -14 539 -10 579 -14 b 1172 485 924 -14 1172 211 b 708 942 1172 743 925 942 b 471 578 524 942 471 803 l 471 44 b 306 464 351 104 306 247 b 494 910 306 697 360 843 l 486 931 b 69 457 246 875 69 682 b 471 4 69 242 240 60 l 471 -4 b 422 -210 471 -82 451 -147 z m 621 14 b 500 32 575 14 535 21 l 500 451 l 592 360 l 710 478 l 589 599 l 500 510 l 500 572 b 692 914 500 772 535 914 b 936 464 846 914 936 754 b 621 14 936 174 853 14 z "},"Ō":{"ha":1242,"x_min":0,"x_max":0,"o":"m 407 1183 l 407 1071 b 621 1082 479 1075 553 1082 b 835 1075 686 1082 763 1079 l 835 1179 b 621 1172 763 1175 686 1172 b 407 1183 553 1172 479 1178 z m 500 -200 l 500 -3 b 621 -14 539 -10 579 -14 b 1172 485 924 -14 1172 211 b 708 942 1172 743 925 942 b 471 578 524 942 471 803 l 471 44 b 306 464 351 104 306 247 b 494 910 306 697 360 843 l 486 931 b 69 457 246 875 69 682 b 471 4 69 242 240 60 l 471 -4 b 422 -210 471 -82 451 -147 z m 621 14 b 500 32 575 14 535 21 l 500 451 l 592 360 l 710 478 l 589 599 l 500 510 l 500 572 b 692 914 500 772 535 914 b 936 464 846 914 936 754 b 621 14 936 174 853 14 z "},"Ŕ":{"ha":1076,"x_min":0,"x_max":0,"o":"m 426 1022 l 450 1006 b 683 1203 550 1096 683 1136 b 543 1293 683 1256 614 1282 b 426 1022 515 1208 475 1117 z m 494 -200 l 494 0 l 581 0 l 581 28 l 494 28 l 494 410 l 582 410 b 746 -97 656 260 617 44 b 1160 -64 861 -222 1019 -194 b 1189 -36 1171 -54 1181 -46 l 1172 -18 b 860 89 1076 -99 989 -51 b 610 411 751 204 675 332 b 986 696 842 426 986 543 b 647 942 986 842 831 942 b 465 578 506 942 465 826 l 465 438 l 382 438 l 382 499 b 397 928 382 694 386 782 b 67 892 342 911 215 890 l 67 864 l 150 864 b 185 219 172 751 185 644 l 185 28 l 74 28 l 74 0 l 465 0 l 465 -4 b 417 -210 465 -82 446 -147 z m 494 533 b 631 913 494 754 508 913 b 750 675 706 913 750 829 b 560 438 750 522 700 438 l 494 438 z m 465 28 l 399 28 b 382 410 389 144 383 286 l 465 410 z "},"Ř":{"ha":1076,"x_min":0,"x_max":0,"o":"m 486 1006 l 624 1006 l 631 1025 b 782 1276 660 1106 701 1179 l 758 1293 b 554 1140 668 1233 610 1190 b 351 1293 500 1190 442 1233 l 328 1276 b 486 1006 414 1172 457 1094 z m 494 -200 l 494 0 l 581 0 l 581 28 l 494 28 l 494 410 l 582 410 b 746 -97 656 260 617 44 b 1160 -64 861 -222 1019 -194 b 1189 -36 1171 -54 1181 -46 l 1172 -18 b 860 89 1076 -99 989 -51 b 610 411 751 204 675 332 b 986 696 842 426 986 543 b 647 942 986 842 831 942 b 465 578 506 942 465 826 l 465 438 l 382 438 l 382 499 b 397 928 382 694 386 782 b 67 892 342 911 215 890 l 67 864 l 150 864 b 185 219 172 751 185 644 l 185 28 l 74 28 l 74 0 l 465 0 l 465 -4 b 417 -210 465 -82 446 -147 z m 494 533 b 631 913 494 754 508 913 b 750 675 706 913 750 829 b 560 438 750 522 700 438 l 494 438 z m 465 28 l 399 28 b 382 410 389 144 383 286 l 465 410 z "},"Ŗ":{"ha":1076,"x_min":0,"x_max":0,"o":"m 579 -196 b 561 -151 579 -178 574 -162 l 494 -86 l 494 0 l 581 0 l 581 28 l 494 28 l 494 410 l 582 410 b 746 -97 656 260 617 44 b 1160 -64 861 -222 1019 -194 b 1189 -36 1171 -54 1181 -46 l 1172 -18 b 860 89 1076 -99 989 -51 b 610 411 751 204 675 332 b 986 696 842 426 986 543 b 647 942 986 842 831 942 b 494 821 567 942 519 903 l 494 893 b 546 1132 494 972 514 1065 l 465 1119 l 465 438 l 382 438 l 382 499 b 397 928 382 694 386 782 b 67 892 342 911 215 890 l 67 864 l 150 864 b 185 219 172 751 185 644 l 185 28 l 74 28 l 74 0 l 465 0 l 465 -85 l 369 -183 l 433 -246 b 449 -278 443 -256 449 -265 b 389 -396 449 -300 432 -333 l 407 -415 b 579 -196 496 -328 579 -251 z m 494 533 b 631 913 494 754 518 913 b 750 675 706 913 750 829 b 560 438 750 522 700 438 l 494 438 z m 465 28 l 399 28 b 382 410 389 144 383 286 l 465 410 z "},"Š":{"ha":1181,"x_min":0,"x_max":0,"o":"m 556 1006 l 693 1006 l 700 1025 b 851 1276 729 1106 771 1179 l 828 1293 b 624 1140 738 1233 679 1190 b 421 1293 569 1190 511 1233 l 397 1276 b 556 1006 483 1172 526 1094 z m 624 -200 l 624 -14 l 640 -14 b 1103 379 894 -14 1103 154 b 910 568 1103 492 1032 568 b 624 539 826 568 710 539 l 624 753 l 639 753 b 843 722 706 753 763 722 b 1043 993 976 722 1043 835 l 1043 1033 l 1018 1033 b 810 921 1015 940 904 921 b 575 942 738 921 700 942 b 69 485 310 942 69 743 b 594 -12 69 225 303 8 b 546 -210 593 -86 574 -150 z m 306 464 b 575 914 306 754 407 914 b 763 760 706 914 715 815 b 639 781 725 769 686 781 b 417 556 543 781 417 707 b 594 351 417 453 481 360 l 594 15 b 306 464 383 35 306 193 z m 503 631 b 594 747 503 685 539 731 l 594 540 b 503 631 535 546 503 572 z m 640 14 l 624 14 l 624 351 b 806 367 681 353 738 367 b 935 238 900 367 935 321 b 640 14 935 147 863 14 z "},"Ś":{"ha":1181,"x_min":0,"x_max":0,"o":"m 503 1022 l 526 1006 b 760 1203 626 1096 760 1136 b 619 1293 760 1256 690 1282 b 503 1022 592 1208 551 1117 z m 624 -200 l 624 -14 l 640 -14 b 1103 379 894 -14 1103 154 b 910 568 1103 492 1032 568 b 624 539 826 568 710 539 l 624 753 l 639 753 b 843 722 706 753 763 722 b 1043 993 976 722 1043 835 l 1043 1033 l 1018 1033 b 810 921 1015 940 904 921 b 575 942 738 921 700 942 b 69 485 310 942 69 743 b 594 -12 69 225 303 8 b 546 -210 593 -86 574 -150 z m 306 464 b 575 914 306 754 407 914 b 763 760 706 914 715 815 b 639 781 725 769 686 781 b 417 556 543 781 417 707 b 594 351 417 453 481 360 l 594 15 b 306 464 383 35 306 193 z m 503 631 b 594 747 503 685 539 731 l 594 540 b 503 631 535 546 503 572 z m 640 14 l 624 14 l 624 351 b 806 367 681 353 738 367 b 935 238 900 367 935 321 b 640 14 935 147 863 14 z "},"Ş":{"ha":1181,"x_min":0,"x_max":0,"o":"m 663 -339 b 851 -203 767 -339 851 -292 b 660 -78 851 -126 774 -78 l 624 -78 l 624 -14 l 640 -14 b 1103 379 894 -14 1103 154 b 910 568 1103 492 1032 568 b 624 539 826 568 710 539 l 624 751 b 639 753 629 753 633 753 b 843 722 706 753 763 722 b 1044 993 976 722 1044 835 b 1043 1033 1044 1007 1044 1021 l 1018 1033 b 810 921 1015 940 904 921 b 626 940 749 921 713 936 b 675 1132 632 1007 649 1078 l 594 1119 l 594 942 l 575 942 b 69 485 310 942 69 743 b 594 -12 69 225 303 8 l 594 -106 l 628 -106 b 717 -210 694 -106 717 -143 b 650 -311 717 -275 697 -311 b 586 -201 603 -311 572 -267 l 575 -194 l 472 -217 b 663 -339 472 -271 550 -339 z m 306 464 b 575 914 306 754 407 914 b 594 913 582 914 589 914 l 594 775 b 417 556 508 757 417 685 b 594 351 417 453 481 360 l 594 15 b 306 464 383 35 306 193 z m 763 760 b 639 781 725 769 686 781 l 624 781 l 624 908 b 763 760 710 886 722 807 z m 503 631 b 594 747 503 685 539 731 l 594 540 b 503 631 535 546 503 572 z m 640 14 l 624 14 l 624 351 b 806 367 681 353 738 367 b 935 238 900 367 935 321 b 640 14 935 147 863 14 z "},"Ŝ":{"ha":1181,"x_min":0,"x_max":0,"o":"m 825 1006 l 849 1022 b 697 1293 778 1124 731 1206 l 546 1293 b 394 1022 513 1206 465 1124 l 418 1006 b 622 1158 508 1065 567 1108 b 825 1006 676 1108 735 1065 z m 624 -200 l 624 -14 l 640 -14 b 1103 379 894 -14 1103 154 b 910 568 1103 492 1032 568 b 624 539 826 568 710 539 l 624 753 l 639 753 b 843 722 706 753 763 722 b 1043 993 976 722 1043 835 l 1043 1033 l 1018 1033 b 810 921 1015 940 904 921 b 575 942 738 921 700 942 b 69 485 310 942 69 743 b 594 -12 69 225 303 8 b 546 -210 593 -86 574 -150 z m 306 464 b 575 914 306 754 407 914 b 763 760 706 914 715 815 b 639 781 725 769 686 781 b 417 556 543 781 417 707 b 594 351 417 453 481 360 l 594 15 b 306 464 383 35 306 193 z m 503 631 b 594 747 503 685 539 731 l 594 540 b 503 631 535 546 503 572 z m 640 14 l 624 14 l 624 351 b 806 367 681 353 738 367 b 935 238 900 367 935 321 b 640 14 935 147 863 14 z "},"Ș":{"ha":1181,"x_min":0,"x_max":0,"o":"m 706 -196 b 688 -151 706 -178 700 -162 l 624 -89 l 624 -14 l 640 -14 b 1103 379 894 -14 1103 154 b 910 568 1103 492 1032 568 b 624 539 826 568 710 539 l 624 753 l 639 753 b 843 722 706 753 763 722 b 1044 993 976 722 1044 835 b 1043 1033 1044 1007 1044 1021 l 1018 1033 b 810 921 1015 940 904 921 b 626 940 749 921 713 936 b 675 1132 632 1007 649 1078 l 594 1119 l 594 942 l 575 942 b 69 485 310 942 69 743 b 594 -12 69 225 303 8 b 586 -90 594 -40 590 -67 l 496 -183 l 560 -246 b 515 -396 586 -272 583 -296 l 533 -415 b 706 -196 622 -328 706 -251 z m 306 464 b 575 914 306 754 407 914 b 594 913 582 914 589 914 l 594 775 b 417 556 508 757 417 685 b 594 351 417 453 481 360 l 594 15 b 306 464 383 35 306 193 z m 763 760 b 639 781 725 769 686 781 l 624 781 l 624 908 b 763 760 710 886 722 807 z m 503 631 b 594 747 503 685 539 731 l 594 540 b 503 631 535 546 503 572 z m 640 14 l 624 14 l 624 351 b 806 367 681 353 738 367 b 935 238 900 367 935 321 b 640 14 935 147 863 14 z "},"Ŧ":{"ha":1135,"x_min":0,"x_max":0,"o":"m 646 -200 l 646 -11 b 699 -14 663 -12 681 -14 b 1068 229 924 -14 1068 121 l 918 274 l 896 258 b 700 14 925 114 825 14 b 646 19 681 14 663 15 l 646 451 l 738 360 l 856 478 l 735 599 l 646 510 l 646 761 b 824 708 699 731 757 708 b 1101 1035 1007 708 1101 843 b 1100 1075 1101 1049 1101 1063 l 1075 1075 b 764 918 1071 950 968 918 b 647 922 724 918 685 919 b 697 1132 650 994 669 1074 l 617 1119 l 617 924 b 357 942 514 931 422 942 b 42 696 215 942 42 860 b 204 496 42 592 122 531 l -1 496 l -17 447 b 185 468 39 457 108 468 l 231 468 b 221 390 224 443 221 417 b 617 -8 221 190 378 22 b 568 -210 617 -82 597 -147 z m 167 697 b 339 913 167 821 217 913 b 610 782 436 913 518 842 b 240 503 424 751 289 640 b 167 697 193 539 167 603 z m 617 496 l 461 496 b 617 751 475 643 528 721 z m 457 413 b 458 468 457 432 457 450 l 617 468 l 617 26 b 457 413 503 65 457 196 z "},"Ť":{"ha":1135,"x_min":0,"x_max":0,"o":"m 569 1006 l 707 1006 l 714 1025 b 865 1276 743 1106 785 1179 l 842 1293 b 638 1140 751 1233 693 1190 b 435 1293 583 1190 525 1233 l 411 1276 b 569 1006 497 1172 540 1094 z m 646 -200 l 646 -11 b 699 -14 663 -12 681 -14 b 1068 229 924 -14 1068 121 l 918 274 l 896 258 b 700 14 925 114 825 14 b 646 19 681 14 663 15 l 646 451 l 738 360 l 856 478 l 735 599 l 646 510 l 646 761 b 824 708 699 731 757 708 b 1101 1035 1007 708 1101 843 b 1100 1075 1101 1049 1101 1063 l 1075 1075 b 764 918 1071 950 968 918 b 357 942 601 918 453 942 b 42 682 215 942 42 856 b 225 440 42 543 142 472 b 221 390 222 424 221 407 b 617 -8 221 190 378 22 b 568 -210 617 -82 597 -147 z m 167 700 b 339 913 167 814 217 913 b 610 782 436 913 518 842 b 232 474 411 749 271 624 b 167 700 190 518 167 592 z m 457 413 b 617 751 457 614 513 715 l 617 26 b 457 413 503 65 457 196 z "},"Ţ":{"ha":1135,"x_min":0,"x_max":0,"o":"m 729 -196 b 711 -151 729 -178 724 -162 l 646 -87 l 646 -11 b 699 -14 663 -12 681 -14 b 1068 229 924 -14 1068 121 l 918 274 l 896 258 b 700 14 925 114 825 14 b 646 19 681 14 663 15 l 646 451 l 738 360 l 856 478 l 735 599 l 646 510 l 646 761 b 824 708 699 731 757 708 b 1101 1035 1007 708 1101 843 b 1100 1075 1101 1049 1101 1063 l 1075 1075 b 764 918 1071 950 968 918 b 647 922 724 918 685 919 b 697 1132 650 994 669 1074 l 617 1119 l 617 924 b 357 942 514 931 422 942 b 42 682 215 942 42 856 b 225 440 42 543 142 472 b 221 390 222 424 221 407 b 617 -8 221 190 378 22 l 617 -83 l 519 -183 l 583 -246 b 599 -278 593 -256 599 -265 b 539 -396 599 -300 582 -333 l 557 -415 b 729 -196 646 -328 729 -251 z m 167 700 b 339 913 167 814 217 913 b 610 782 436 913 518 842 b 232 474 411 749 271 624 b 167 700 190 518 167 592 z m 457 413 b 617 751 457 614 513 715 l 617 26 b 457 413 503 65 457 196 z "},"Ț":{"ha":1135,"x_min":0,"x_max":0,"o":"m 729 -196 b 711 -151 729 -178 724 -162 l 646 -87 l 646 -11 b 699 -14 663 -12 681 -14 b 1068 229 924 -14 1068 121 l 918 274 l 896 258 b 700 14 925 114 825 14 b 646 19 681 14 663 15 l 646 451 l 738 360 l 856 478 l 735 599 l 646 510 l 646 761 b 824 708 699 731 757 708 b 1101 1035 1007 708 1101 843 b 1100 1075 1101 1049 1101 1063 l 1075 1075 b 764 918 1071 950 968 918 b 647 922 724 918 685 919 b 697 1132 650 994 669 1074 l 617 1119 l 617 924 b 357 942 514 931 422 942 b 42 682 215 942 42 856 b 225 440 42 543 142 472 b 221 390 222 424 221 407 b 617 -8 221 190 378 22 l 617 -83 l 519 -183 l 583 -246 b 599 -278 593 -256 599 -265 b 539 -396 599 -300 582 -333 l 557 -415 b 729 -196 646 -328 729 -251 z m 167 700 b 339 913 167 814 217 913 b 610 782 436 913 518 842 b 232 474 411 749 271 624 b 167 700 190 518 167 592 z m 457 413 b 617 751 457 614 513 715 l 617 26 b 457 413 503 65 457 196 z "},"Ú":{"ha":1201,"x_min":0,"x_max":0,"o":"m 468 1022 l 492 1006 b 725 1203 592 1096 725 1136 b 585 1293 725 1256 656 1282 b 468 1022 557 1208 517 1117 z m 725 482 l 633 574 l 515 456 l 636 335 l 725 424 l 725 388 b 521 21 725 175 660 21 b 371 317 401 21 371 156 b 422 754 371 504 422 636 b 263 942 422 888 356 942 b 42 696 124 942 42 836 l 163 667 l 176 682 b 283 914 147 858 219 914 b 375 811 338 914 375 875 b 139 281 375 632 139 532 b 492 -14 139 78 293 -14 b 725 165 618 -14 689 57 l 725 40 b 674 -199 725 -39 706 -132 l 754 -186 l 754 0 l 1140 0 l 1140 28 l 1051 28 b 1035 499 1039 174 1035 358 b 1050 928 1035 694 1039 782 b 735 892 997 913 872 893 l 639 892 l 639 864 l 725 864 z m 803 864 b 838 219 825 751 838 644 l 838 28 l 754 28 l 754 864 z "},"Û":{"ha":1201,"x_min":0,"x_max":0,"o":"m 786 1006 l 810 1022 b 658 1293 739 1124 692 1206 l 507 1293 b 356 1022 474 1206 426 1124 l 379 1006 b 583 1158 469 1065 528 1108 b 786 1006 638 1108 696 1065 z m 725 482 l 633 574 l 515 456 l 636 335 l 725 424 l 725 388 b 521 21 725 175 660 21 b 371 317 401 21 371 156 b 422 754 371 504 422 636 b 263 942 422 888 356 942 b 42 696 124 942 42 836 l 163 667 l 176 682 b 283 914 147 858 219 914 b 375 811 338 914 375 875 b 139 281 375 632 139 532 b 492 -14 139 78 293 -14 b 725 165 618 -14 689 57 l 725 40 b 674 -199 725 -39 706 -132 l 754 -186 l 754 0 l 1140 0 l 1140 28 l 1051 28 b 1035 499 1039 174 1035 358 b 1050 928 1035 694 1039 782 b 735 892 997 913 872 893 l 639 892 l 639 864 l 725 864 z m 803 864 b 838 219 825 751 838 644 l 838 28 l 754 28 l 754 864 z "},"Ü":{"ha":1201,"x_min":0,"x_max":0,"o":"m 553 1128 l 443 1238 l 338 1131 l 447 1022 z m 829 1125 l 719 1233 l 614 1128 l 724 1018 z m 725 482 l 633 574 l 515 456 l 636 335 l 725 424 l 725 388 b 521 21 725 175 660 21 b 371 317 401 21 371 156 b 422 754 371 504 422 636 b 263 942 422 888 356 942 b 42 696 124 942 42 836 l 163 667 l 176 682 b 283 914 147 858 219 914 b 375 811 338 914 375 875 b 139 281 375 632 139 532 b 492 -14 139 78 293 -14 b 725 165 618 -14 689 57 l 725 40 b 674 -199 725 -39 706 -132 l 754 -186 l 754 0 l 1140 0 l 1140 28 l 1051 28 b 1035 499 1039 174 1035 358 b 1050 928 1035 694 1039 782 b 735 892 997 913 872 893 l 639 892 l 639 864 l 725 864 z m 803 864 b 838 219 825 751 838 644 l 838 28 l 754 28 l 754 864 z "},"Ù":{"ha":1201,"x_min":0,"x_max":0,"o":"m 426 1203 b 660 1006 426 1136 560 1096 l 683 1022 b 567 1293 635 1117 594 1208 b 426 1203 496 1282 426 1256 z m 725 482 l 633 574 l 515 456 l 636 335 l 725 424 l 725 388 b 521 21 725 175 660 21 b 371 317 401 21 371 156 b 422 754 371 504 422 636 b 263 942 422 888 356 942 b 42 696 124 942 42 836 l 163 667 l 176 682 b 283 914 147 858 219 914 b 375 811 338 914 375 875 b 139 281 375 632 139 532 b 492 -14 139 78 293 -14 b 725 165 618 -14 689 57 l 725 40 b 674 -199 725 -39 706 -132 l 754 -186 l 754 0 l 1140 0 l 1140 28 l 1051 28 b 1035 499 1039 174 1035 358 b 1050 928 1035 694 1039 782 b 735 892 997 913 872 893 l 639 892 l 639 864 l 725 864 z m 803 864 b 838 219 825 751 838 644 l 838 28 l 754 28 l 754 864 z "},"Ŭ":{"ha":1201,"x_min":0,"x_max":0,"o":"m 583 1006 b 782 1256 710 1006 769 1099 l 758 1256 b 582 1133 746 1182 681 1133 b 407 1256 485 1133 419 1182 l 383 1256 b 583 1006 396 1097 468 1006 z m 725 482 l 633 574 l 515 456 l 636 335 l 725 424 l 725 388 b 521 21 725 175 660 21 b 371 317 401 21 371 156 b 422 754 371 504 422 636 b 263 942 422 888 356 942 b 42 696 124 942 42 836 l 163 667 l 176 682 b 283 914 147 858 219 914 b 375 811 338 914 375 875 b 139 281 375 632 139 532 b 492 -14 139 78 293 -14 b 725 165 618 -14 689 57 l 725 40 b 674 -199 725 -39 706 -132 l 754 -186 l 754 0 l 1140 0 l 1140 28 l 1051 28 b 1035 499 1039 174 1035 358 b 1050 928 1035 694 1039 782 b 735 892 997 913 872 893 l 639 892 l 639 864 l 725 864 z m 803 864 b 838 219 825 751 838 644 l 838 28 l 754 28 l 754 864 z "},"Ű":{"ha":1201,"x_min":0,"x_max":0,"o":"m 375 1022 l 399 1006 b 611 1203 494 1092 611 1136 b 492 1293 611 1256 553 1283 b 375 1022 464 1208 424 1117 z m 658 1022 l 682 1006 b 894 1203 778 1092 894 1136 b 775 1293 894 1256 836 1283 b 658 1022 747 1208 707 1117 z m 725 482 l 633 574 l 515 456 l 636 335 l 725 424 l 725 388 b 521 21 725 175 660 21 b 371 317 401 21 371 156 b 422 754 371 504 422 636 b 263 942 422 888 356 942 b 42 696 124 942 42 836 l 163 667 l 176 682 b 283 914 147 858 219 914 b 375 811 338 914 375 875 b 139 281 375 632 139 532 b 492 -14 139 78 293 -14 b 725 165 618 -14 689 57 l 725 40 b 674 -199 725 -39 706 -132 l 754 -186 l 754 0 l 1140 0 l 1140 28 l 1051 28 b 1035 499 1039 174 1035 358 b 1050 928 1035 694 1039 782 b 735 892 997 913 872 893 l 639 892 l 639 864 l 725 864 z m 803 864 b 838 219 825 751 838 644 l 838 28 l 754 28 l 754 864 z "},"Ū":{"ha":1201,"x_min":0,"x_max":0,"o":"m 369 1183 l 369 1071 b 583 1082 442 1075 515 1082 b 797 1075 649 1082 725 1079 l 797 1179 b 583 1172 725 1175 649 1172 b 369 1183 515 1172 442 1178 z m 725 482 l 633 574 l 515 456 l 636 335 l 725 424 l 725 388 b 521 21 725 175 660 21 b 371 317 401 21 371 156 b 422 754 371 504 422 636 b 263 942 422 888 356 942 b 42 696 124 942 42 836 l 163 667 l 176 682 b 283 914 147 858 219 914 b 375 811 338 914 375 875 b 139 281 375 632 139 532 b 492 -14 139 78 293 -14 b 725 165 618 -14 689 57 l 725 40 b 674 -199 725 -39 706 -132 l 754 -186 l 754 0 l 1140 0 l 1140 28 l 1051 28 b 1035 499 1039 174 1035 358 b 1050 928 1035 694 1039 782 b 735 892 997 913 872 893 l 639 892 l 639 864 l 725 864 z m 803 864 b 838 219 825 751 838 644 l 838 28 l 754 28 l 754 864 z "},"Ų":{"ha":1201,"x_min":0,"x_max":0,"o":"m 739 -335 b 975 -212 815 -335 897 -286 l 960 -196 b 860 -226 925 -218 894 -226 b 775 -147 818 -226 775 -206 b 1007 0 775 -86 826 0 l 1140 0 l 1140 28 l 1051 28 b 1035 499 1039 174 1035 358 b 1050 928 1035 694 1039 782 b 754 892 1000 914 883 894 l 754 925 b 803 1131 754 1003 774 1068 l 725 1121 l 725 892 l 639 892 l 639 864 l 725 864 l 725 482 l 633 574 l 515 456 l 636 335 l 725 424 l 725 388 b 521 21 725 175 660 21 b 371 317 401 21 371 156 b 422 754 371 504 422 636 b 263 942 422 888 356 942 b 42 696 124 942 42 836 l 163 667 l 176 682 b 283 914 147 858 219 914 b 375 811 338 914 375 875 b 139 281 375 632 139 532 b 492 -14 139 78 293 -14 b 754 386 690 -14 754 161 l 754 864 l 803 864 b 838 219 825 751 838 644 l 838 28 l 731 28 l 731 0 l 838 0 b 625 -246 700 -111 625 -178 b 739 -335 625 -299 668 -335 z "},"Ů":{"ha":1201,"x_min":0,"x_max":0,"o":"m 583 949 b 746 1092 672 949 746 1013 b 583 1238 746 1172 672 1238 b 419 1092 493 1238 419 1172 b 583 949 419 1013 493 949 z m 583 976 b 518 1092 535 976 518 1018 b 583 1210 518 1168 535 1210 b 649 1092 632 1210 649 1168 b 583 976 649 1018 632 976 z m 725 482 l 633 574 l 515 456 l 636 335 l 725 424 l 725 388 b 521 21 725 175 660 21 b 371 317 401 21 371 156 b 422 754 371 504 422 636 b 263 942 422 888 356 942 b 42 696 124 942 42 836 l 163 667 l 176 682 b 283 914 147 858 219 914 b 375 811 338 914 375 875 b 139 281 375 632 139 532 b 492 -14 139 78 293 -14 b 725 165 618 -14 689 57 l 725 40 b 674 -199 725 -39 706 -132 l 754 -186 l 754 0 l 1140 0 l 1140 28 l 1051 28 b 1035 499 1039 174 1035 358 b 1050 928 1035 694 1039 782 b 735 892 997 913 872 893 l 639 892 l 639 864 l 725 864 z m 803 864 b 838 219 825 751 838 644 l 838 28 l 754 28 l 754 864 z "},"Ũ":{"ha":1201,"x_min":0,"x_max":0,"o":"m 708 1181 b 489 1247 642 1181 556 1247 b 335 1011 399 1247 347 1160 l 358 1011 b 458 1119 368 1076 400 1119 b 678 1053 522 1119 611 1053 b 832 1289 768 1053 819 1140 l 808 1289 b 708 1181 799 1224 767 1181 z m 725 482 l 633 574 l 515 456 l 636 335 l 725 424 l 725 388 b 521 21 725 175 660 21 b 371 317 401 21 371 156 b 422 754 371 504 422 636 b 263 942 422 888 356 942 b 42 696 124 942 42 836 l 163 667 l 176 682 b 283 914 147 858 219 914 b 375 811 338 914 375 875 b 139 281 375 632 139 532 b 492 -14 139 78 293 -14 b 725 165 618 -14 689 57 l 725 40 b 674 -199 725 -39 706 -132 l 754 -186 l 754 0 l 1140 0 l 1140 28 l 1051 28 b 1035 499 1039 174 1035 358 b 1050 928 1035 694 1039 782 b 735 892 997 913 872 893 l 639 892 l 639 864 l 725 864 z m 803 864 b 838 219 825 751 838 644 l 838 28 l 754 28 l 754 864 z "},"Ẃ":{"ha":1750,"x_min":0,"x_max":0,"o":"m 788 1022 l 811 1006 b 1044 1203 911 1096 1044 1136 b 904 1293 1044 1256 975 1282 b 788 1022 876 1208 836 1117 z m 800 -168 l 736 0 l 1081 0 b 1032 -210 1079 -75 1060 -150 l 1110 -200 l 1110 1 b 1672 539 1446 18 1672 239 b 1308 942 1672 819 1506 942 b 1081 535 1125 942 1081 785 l 1081 28 l 996 28 l 996 422 b 610 942 996 797 785 942 b 472 607 486 942 379 847 l 696 28 l 618 28 b 269 928 458 432 400 586 b -31 892 221 913 100 890 l -31 864 l 64 864 b 396 28 193 576 338 197 l 268 28 l 268 0 l 707 0 l 710 -8 b 738 -212 735 -74 740 -144 z m 501 618 b 592 910 431 806 481 910 b 788 443 688 910 788 838 l 788 28 l 725 28 z m 1201 360 l 1319 478 l 1199 599 l 1110 510 l 1110 533 b 1279 908 1110 781 1165 908 b 1436 556 1367 908 1436 804 b 1110 29 1436 283 1346 54 l 1110 451 z "},"Ŵ":{"ha":1750,"x_min":0,"x_max":0,"o":"m 1064 1006 l 1088 1022 b 936 1293 1017 1124 969 1206 l 785 1293 b 633 1022 751 1206 704 1124 l 657 1006 b 861 1158 747 1065 806 1108 b 1064 1006 915 1108 974 1065 z m 800 -168 l 736 0 l 1081 0 b 1032 -210 1079 -75 1060 -150 l 1110 -200 l 1110 1 b 1672 539 1446 18 1672 239 b 1308 942 1672 819 1506 942 b 1081 535 1125 942 1081 785 l 1081 28 l 996 28 l 996 422 b 610 942 996 797 785 942 b 472 607 486 942 379 847 l 696 28 l 618 28 b 269 928 458 432 400 586 b -31 892 221 913 100 890 l -31 864 l 64 864 b 396 28 193 576 338 197 l 268 28 l 268 0 l 707 0 l 710 -8 b 738 -212 735 -74 740 -144 z m 501 618 b 592 910 431 806 481 910 b 788 443 688 910 788 838 l 788 28 l 725 28 z m 1201 360 l 1319 478 l 1199 599 l 1110 510 l 1110 533 b 1279 908 1110 781 1165 908 b 1436 556 1367 908 1436 804 b 1110 29 1436 283 1346 54 l 1110 451 z "},"Ẅ":{"ha":1750,"x_min":0,"x_max":0,"o":"m 831 1128 l 721 1238 l 615 1131 l 725 1022 z m 1107 1125 l 997 1233 l 892 1128 l 1001 1018 z m 800 -168 l 736 0 l 1081 0 b 1032 -210 1079 -75 1060 -150 l 1110 -200 l 1110 1 b 1672 539 1446 18 1672 239 b 1308 942 1672 819 1506 942 b 1081 535 1125 942 1081 785 l 1081 28 l 996 28 l 996 422 b 610 942 996 797 785 942 b 472 607 486 942 379 847 l 696 28 l 618 28 b 269 928 458 432 400 586 b -31 892 221 913 100 890 l -31 864 l 64 864 b 396 28 193 576 338 197 l 268 28 l 268 0 l 707 0 l 710 -8 b 738 -212 735 -74 740 -144 z m 501 618 b 592 910 431 806 481 910 b 788 443 688 910 788 838 l 788 28 l 725 28 z m 1201 360 l 1319 478 l 1199 599 l 1110 510 l 1110 533 b 1279 908 1110 781 1165 908 b 1436 556 1367 908 1436 804 b 1110 29 1436 283 1346 54 l 1110 451 z "},"Ẁ":{"ha":1750,"x_min":0,"x_max":0,"o":"m 704 1203 b 938 1006 704 1136 838 1096 l 961 1022 b 844 1293 913 1117 872 1208 b 704 1203 774 1282 704 1256 z m 800 -168 l 736 0 l 1081 0 b 1032 -210 1079 -75 1060 -150 l 1110 -200 l 1110 1 b 1672 539 1446 18 1672 239 b 1308 942 1672 819 1506 942 b 1081 535 1125 942 1081 785 l 1081 28 l 996 28 l 996 422 b 610 942 996 797 785 942 b 472 607 486 942 379 847 l 696 28 l 618 28 b 269 928 458 432 400 586 b -31 892 221 913 100 890 l -31 864 l 64 864 b 396 28 193 576 338 197 l 268 28 l 268 0 l 707 0 l 710 -8 b 738 -212 735 -74 740 -144 z m 501 618 b 592 910 431 806 481 910 b 788 443 688 910 788 838 l 788 28 l 725 28 z m 1201 360 l 1319 478 l 1199 599 l 1110 510 l 1110 533 b 1279 908 1110 781 1165 908 b 1436 556 1367 908 1436 804 b 1110 29 1436 283 1346 54 l 1110 451 z "},"Ý":{"ha":1240,"x_min":0,"x_max":0,"o":"m 508 1022 l 532 1006 b 765 1203 632 1096 765 1136 b 625 1293 765 1256 696 1282 b 508 1022 597 1208 557 1117 z m 892 -96 l 740 -29 l 726 -42 b 471 -319 760 -150 675 -319 b 224 -117 322 -319 224 -240 b 443 104 224 -1 293 104 l 585 104 b 536 -99 585 29 565 -36 l 614 -89 l 614 106 b 1174 601 951 122 1174 332 b 814 942 1174 839 1011 942 b 585 535 626 942 585 769 l 585 132 l 503 132 l 503 485 b 197 942 503 786 414 942 b -18 696 51 942 -18 836 l 103 667 l 117 682 b 183 914 88 857 132 914 b 294 513 247 914 294 853 l 294 121 b 51 -111 138 90 51 -1 b 471 -347 51 -236 194 -347 b 892 -96 744 -347 892 -214 z m 706 360 l 824 478 l 703 599 l 614 510 l 614 533 b 785 910 614 760 664 910 b 942 618 872 910 942 822 b 614 135 942 375 851 158 l 614 451 z "},"Ÿ":{"ha":1240,"x_min":0,"x_max":0,"o":"m 607 1128 l 497 1238 l 392 1131 l 501 1022 z m 883 1125 l 774 1233 l 668 1128 l 778 1018 z m 892 -96 l 740 -29 l 726 -42 b 471 -319 760 -150 675 -319 b 224 -117 322 -319 224 -240 b 443 104 224 -1 293 104 l 585 104 b 536 -99 585 29 565 -36 l 614 -89 l 614 106 b 1174 601 951 122 1174 332 b 814 942 1174 839 1011 942 b 585 535 626 942 585 769 l 585 132 l 503 132 l 503 485 b 197 942 503 786 414 942 b -18 696 51 942 -18 836 l 103 667 l 117 682 b 183 914 88 857 132 914 b 294 513 247 914 294 853 l 294 121 b 51 -111 138 90 51 -1 b 471 -347 51 -236 194 -347 b 892 -96 744 -347 892 -214 z m 706 360 l 824 478 l 703 599 l 614 510 l 614 533 b 785 910 614 760 664 910 b 942 618 872 910 942 822 b 614 135 942 375 851 158 l 614 451 z "},"Ŷ":{"ha":1240,"x_min":0,"x_max":0,"o":"m 840 1006 l 864 1022 b 713 1293 793 1124 746 1206 l 561 1293 b 410 1022 528 1206 481 1124 l 433 1006 b 638 1158 524 1065 582 1108 b 840 1006 692 1108 750 1065 z m 892 -96 l 740 -29 l 726 -42 b 471 -319 760 -150 675 -319 b 224 -117 322 -319 224 -240 b 443 104 224 -1 293 104 l 585 104 b 536 -99 585 29 565 -36 l 614 -89 l 614 106 b 1174 601 951 122 1174 332 b 814 942 1174 839 1011 942 b 585 535 626 942 585 769 l 585 132 l 503 132 l 503 485 b 197 942 503 786 414 942 b -18 696 51 942 -18 836 l 103 667 l 117 682 b 183 914 88 857 132 914 b 294 513 247 914 294 853 l 294 121 b 51 -111 138 90 51 -1 b 471 -347 51 -236 194 -347 b 892 -96 744 -347 892 -214 z m 706 360 l 824 478 l 703 599 l 614 510 l 614 533 b 785 910 614 760 664 910 b 942 618 872 910 942 822 b 614 135 942 375 851 158 l 614 451 z "},"Ỳ":{"ha":1240,"x_min":0,"x_max":0,"o":"m 474 1203 b 707 1006 474 1136 607 1096 l 731 1022 b 614 1293 682 1117 642 1208 b 474 1203 543 1282 474 1256 z m 892 -96 l 740 -29 l 726 -42 b 471 -319 760 -150 675 -319 b 224 -117 322 -319 224 -240 b 443 104 224 -1 293 104 l 585 104 b 536 -99 585 29 565 -36 l 614 -89 l 614 106 b 1174 601 951 122 1174 332 b 814 942 1174 839 1011 942 b 585 535 626 942 585 769 l 585 132 l 503 132 l 503 485 b 197 942 503 786 414 942 b -18 696 51 942 -18 836 l 103 667 l 117 682 b 183 914 88 857 132 914 b 294 513 247 914 294 853 l 294 121 b 51 -111 138 90 51 -1 b 471 -347 51 -236 194 -347 b 892 -96 744 -347 892 -214 z m 706 360 l 824 478 l 703 599 l 614 510 l 614 533 b 785 910 614 760 664 910 b 942 618 872 910 942 822 b 614 135 942 375 851 158 l 614 451 z "},"Ž":{"ha":1097,"x_min":0,"x_max":0,"o":"m 500 1006 l 638 1006 l 644 1025 b 796 1276 674 1106 715 1179 l 772 1293 b 568 1140 682 1233 624 1190 b 365 1293 514 1190 456 1233 l 342 1276 b 500 1006 428 1172 471 1094 z m 10 -208 l 129 0 l 463 0 b 1022 39 711 0 964 -43 b 821 353 1068 100 1035 229 l 804 332 b 808 135 864 286 867 217 b 531 28 763 71 653 28 l 460 28 b 942 879 619 332 806 667 l 1036 901 l 1029 928 b 710 901 890 899 788 900 b 206 28 578 635 411 333 l 146 28 l 663 929 b 110 876 499 939 169 964 b 321 568 65 814 103 685 l 338 590 b 328 786 275 633 269 703 b 611 903 368 846 438 885 l 111 28 l 36 28 l 36 0 l 94 0 l 81 -25 b -64 -178 42 -93 -8 -137 z "},"Ź":{"ha":1097,"x_min":0,"x_max":0,"o":"m 454 1022 l 478 1006 b 711 1203 578 1096 711 1136 b 571 1293 711 1256 642 1282 b 454 1022 543 1208 503 1117 z m 10 -208 l 129 0 l 463 0 b 1022 39 711 0 964 -43 b 821 353 1068 100 1035 229 l 804 332 b 808 135 864 286 867 217 b 531 28 763 71 653 28 l 460 28 b 942 879 619 332 806 667 l 1036 901 l 1029 928 b 710 901 890 899 788 900 b 206 28 578 635 411 333 l 146 28 l 663 929 b 110 876 499 939 169 964 b 321 568 65 814 103 685 l 338 590 b 328 786 275 633 269 703 b 611 903 368 846 438 885 l 111 28 l 36 28 l 36 0 l 94 0 l 81 -25 b -64 -178 42 -93 -8 -137 z "},"Ż":{"ha":1097,"x_min":0,"x_max":0,"o":"m 571 1011 l 694 1135 l 568 1261 l 444 1138 z m 10 -208 l 129 0 l 463 0 b 1022 39 711 0 964 -43 b 821 353 1068 100 1035 229 l 804 332 b 808 135 864 286 867 217 b 531 28 763 71 653 28 l 460 28 b 942 879 619 332 806 667 l 1036 901 l 1029 928 b 710 901 890 899 788 900 b 206 28 578 635 411 333 l 146 28 l 663 929 b 110 876 499 939 169 964 b 321 568 65 814 103 685 l 338 590 b 328 786 275 633 269 703 b 611 903 368 846 438 885 l 111 28 l 36 28 l 36 0 l 94 0 l 81 -25 b -64 -178 42 -93 -8 -137 z "},"á":{"ha":554,"x_min":0,"x_max":0,"o":"m 154 764 l 167 749 b 364 892 236 793 306 843 b 347 1006 363 933 358 965 l 224 940 b 154 764 222 889 200 826 z m 464 -8 b 596 133 511 47 551 93 l 576 154 b 547 121 567 142 557 131 b 465 201 506 150 482 171 b 481 394 475 256 481 322 l 481 551 b 424 656 481 610 464 647 l 197 703 l 110 596 b 58 485 81 560 58 519 b 144 383 58 440 86 400 l 54 357 l 54 322 b 33 144 54 235 47 193 b 210 -8 68 86 143 17 b 315 126 249 33 283 79 b 464 -8 350 74 408 21 z m 231 404 b 117 507 142 404 117 451 b 136 571 117 521 122 544 b 325 526 201 563 263 546 l 325 422 b 231 404 293 410 258 404 z m 190 208 b 206 357 199 244 206 307 l 206 375 l 208 375 b 325 394 244 375 279 378 l 325 338 b 279 129 325 275 317 183 b 190 208 238 153 213 176 z "},"â":{"ha":554,"x_min":0,"x_max":0,"o":"m 360 783 b 410 838 378 807 392 819 b 299 1006 361 890 328 947 l 175 940 b 106 764 172 886 143 824 l 118 749 b 258 860 171 792 215 828 b 360 783 285 835 317 811 z m 464 -8 b 596 133 511 47 551 93 l 576 154 b 547 121 567 142 557 131 b 465 201 506 150 482 171 b 481 394 475 256 481 322 l 481 551 b 424 656 481 610 464 647 l 197 703 l 110 596 b 58 485 81 560 58 519 b 144 383 58 440 86 400 l 54 357 l 54 322 b 33 144 54 235 47 193 b 210 -8 68 86 143 17 b 315 126 249 33 283 79 b 464 -8 350 74 408 21 z m 231 404 b 117 507 142 404 117 451 b 136 571 117 521 122 544 b 325 526 201 563 263 546 l 325 422 b 231 404 293 410 258 404 z m 190 208 b 206 357 199 244 206 307 l 206 375 l 208 375 b 325 394 244 375 279 378 l 325 338 b 279 129 325 275 317 183 b 190 208 238 153 213 176 z "},"ä":{"ha":554,"x_min":0,"x_max":0,"o":"m 244 863 l 160 947 l 78 865 l 163 781 z m 436 860 l 351 944 l 269 863 l 354 778 z m 464 -8 b 596 133 511 47 551 93 l 576 154 b 547 121 567 142 557 131 b 465 201 506 150 482 171 b 481 394 475 256 481 322 l 481 551 b 424 656 481 610 464 647 l 197 703 l 110 596 b 58 485 81 560 58 519 b 144 383 58 440 86 400 l 54 357 l 54 322 b 33 144 54 235 47 193 b 210 -8 68 86 143 17 b 315 126 249 33 283 79 b 464 -8 350 74 408 21 z m 231 404 b 117 507 142 404 117 451 b 136 571 117 521 122 544 b 325 526 201 563 263 546 l 325 422 b 231 404 293 410 258 404 z m 190 208 b 206 357 199 244 206 307 l 206 375 l 208 375 b 325 394 244 375 279 378 l 325 338 b 279 129 325 275 317 183 b 190 208 238 153 213 176 z "},"à":{"ha":554,"x_min":0,"x_max":0,"o":"m 317 781 b 367 835 335 804 349 817 b 254 1006 317 889 283 946 l 131 940 b 317 781 178 881 228 831 z m 464 -8 b 596 133 511 47 551 93 l 576 154 b 547 121 567 142 557 131 b 465 201 506 150 482 171 b 481 394 475 256 481 322 l 481 551 b 424 656 481 610 464 647 l 197 703 l 110 596 b 58 485 81 560 58 519 b 144 383 58 440 86 400 l 54 357 l 54 322 b 33 144 54 235 47 193 b 210 -8 68 86 143 17 b 315 126 249 33 283 79 b 464 -8 350 74 408 21 z m 231 404 b 117 507 142 404 117 451 b 136 571 117 521 122 544 b 325 526 201 563 263 546 l 325 422 b 231 404 293 410 258 404 z m 190 208 b 206 357 199 244 206 307 l 206 375 l 208 375 b 325 394 244 375 279 378 l 325 338 b 279 129 325 275 317 183 b 190 208 238 153 213 176 z "},"å":{"ha":554,"x_min":0,"x_max":0,"o":"m 274 749 b 383 849 313 789 336 811 l 383 919 b 326 1001 383 983 374 988 l 242 1025 l 215 960 l 150 949 l 150 893 b 142 803 150 849 149 825 b 274 749 164 782 217 760 z m 229 849 b 235 914 233 871 235 888 l 235 940 b 299 919 257 935 281 925 b 300 875 300 904 300 889 b 299 822 300 857 299 840 b 229 849 267 832 246 839 z m 464 -8 b 596 133 511 47 551 93 l 576 154 b 547 121 567 142 557 131 b 465 201 506 150 482 171 b 481 394 475 256 481 322 l 481 551 b 424 656 481 610 464 647 l 197 703 l 110 596 b 58 485 81 560 58 519 b 144 383 58 440 86 400 l 54 357 l 54 322 b 33 144 54 235 47 193 b 210 -8 68 86 143 17 b 315 126 249 33 283 79 b 464 -8 350 74 408 21 z m 231 404 b 117 507 142 404 117 451 b 136 571 117 521 122 544 b 325 526 201 563 263 546 l 325 422 b 231 404 293 410 258 404 z m 190 208 b 206 357 199 244 206 307 l 206 375 l 208 375 b 325 394 244 375 279 378 l 325 338 b 279 129 325 275 317 183 b 190 208 238 153 213 176 z "},"ã":{"ha":554,"x_min":0,"x_max":0,"o":"m 328 775 b 458 943 389 775 390 839 l 440 953 b 360 886 404 901 382 886 b 196 953 314 886 249 953 b 65 785 135 953 133 889 l 83 775 b 164 842 119 826 142 842 b 328 775 210 842 275 775 z m 464 -8 b 596 133 511 47 551 93 l 576 154 b 547 121 567 142 557 131 b 465 201 506 150 482 171 b 481 394 475 256 481 322 l 481 551 b 424 656 481 610 464 647 l 197 703 l 110 596 b 58 485 81 560 58 519 b 144 383 58 440 86 400 l 54 357 l 54 322 b 33 144 54 235 47 193 b 210 -8 68 86 143 17 b 315 126 249 33 283 79 b 464 -8 350 74 408 21 z m 231 404 b 117 507 142 404 117 451 b 136 571 117 521 122 544 b 325 526 201 563 263 546 l 325 422 b 231 404 293 410 258 404 z m 190 208 b 206 357 199 244 206 307 l 206 375 l 208 375 b 325 394 244 375 279 378 l 325 338 b 279 129 325 275 317 183 b 190 208 238 153 213 176 z "},"ă":{"ha":554,"x_min":0,"x_max":0,"o":"m 128 843 b 258 775 163 799 210 775 b 378 850 307 775 344 799 l 431 932 l 406 943 b 307 874 374 896 343 874 b 229 914 281 874 256 885 l 203 943 l 93 886 z m 464 -8 b 596 133 511 47 551 93 l 576 154 b 547 121 567 142 557 131 b 465 201 506 150 482 171 b 481 394 475 256 481 322 l 481 551 b 424 656 481 610 464 647 l 197 703 l 110 596 b 58 485 81 560 58 519 b 144 383 58 440 86 400 l 54 357 l 54 322 b 33 144 54 235 47 193 b 210 -8 68 86 143 17 b 315 126 249 33 283 79 b 464 -8 350 74 408 21 z m 231 404 b 117 507 142 404 117 451 b 136 571 117 521 122 544 b 325 526 201 563 263 546 l 325 422 b 231 404 293 410 258 404 z m 190 208 b 206 357 199 244 206 307 l 206 375 l 208 375 b 325 394 244 375 279 378 l 325 338 b 279 129 325 275 317 183 b 190 208 238 153 213 176 z "},"ā":{"ha":554,"x_min":0,"x_max":0,"o":"m 103 794 b 247 808 158 806 194 808 l 372 808 l 415 913 b 271 899 360 901 324 899 l 146 899 z m 464 -8 b 596 133 511 47 551 93 l 576 154 b 547 121 567 142 557 131 b 465 201 506 150 482 171 b 481 394 475 256 481 322 l 481 551 b 424 656 481 610 464 647 l 197 703 l 110 596 b 58 485 81 560 58 519 b 144 383 58 440 86 400 l 54 357 l 54 322 b 33 144 54 235 47 193 b 210 -8 68 86 143 17 b 315 126 249 33 283 79 b 464 -8 350 74 408 21 z m 231 404 b 117 507 142 404 117 451 b 136 571 117 521 122 544 b 325 526 201 563 263 546 l 325 422 b 231 404 293 410 258 404 z m 190 208 b 206 357 199 244 206 307 l 206 375 l 208 375 b 325 394 244 375 279 378 l 325 338 b 279 129 325 275 317 183 b 190 208 238 153 213 176 z "},"ą":{"ha":563,"x_min":0,"x_max":0,"o":"m 494 -310 b 597 -158 532 -247 563 -204 l 576 -144 b 547 -186 567 -161 561 -169 b 457 -76 486 -147 457 -110 b 596 133 457 -53 471 -1 l 576 154 b 547 121 567 142 557 131 b 465 201 506 150 482 171 b 481 394 475 256 481 322 l 481 551 b 424 656 481 610 464 647 l 197 703 l 110 596 b 58 485 81 560 58 519 b 144 383 58 440 86 400 l 54 357 l 54 322 b 33 144 54 235 47 193 b 210 -8 68 86 143 17 b 315 126 249 33 283 79 b 451 -1 347 78 400 29 b 364 -157 371 -114 364 -137 b 494 -310 364 -199 404 -254 z m 231 404 b 117 507 142 404 117 451 b 136 571 117 521 122 544 b 325 526 201 563 263 546 l 325 422 b 231 404 293 410 258 404 z m 190 208 b 206 357 199 244 206 307 l 206 375 l 208 375 b 325 394 244 375 279 378 l 325 338 b 279 129 325 275 317 183 b 190 208 238 153 213 176 z "},"ç":{"ha":396,"x_min":0,"x_max":0,"o":"m 200 -310 b 371 -178 301 -310 371 -231 b 240 -12 371 -126 346 -92 b 376 142 285 43 322 88 l 357 163 b 319 119 343 146 332 132 b 199 215 261 147 228 183 b 214 396 208 258 214 329 l 214 544 b 322 496 253 528 288 513 b 314 385 321 447 318 417 l 347 396 l 347 504 l 426 618 l 246 703 l 157 574 l 58 546 l 58 336 b 38 144 58 242 53 196 b 214 1 68 90 144 29 b 133 -89 189 -29 158 -62 l 133 -99 b 267 -239 250 -179 267 -204 b 208 -285 267 -271 246 -285 b 117 -240 182 -285 142 -268 l 110 -240 l 103 -289 b 200 -310 129 -303 172 -310 z "},"ć":{"ha":396,"x_min":0,"x_max":0,"o":"m 133 764 l 146 749 b 343 892 215 793 285 843 b 326 1006 342 933 338 965 l 203 940 b 133 764 201 889 179 826 z m 240 -8 l 303 65 b 376 142 328 93 351 118 l 357 163 b 319 119 343 146 332 132 b 199 215 261 147 228 183 b 214 396 208 258 214 329 l 214 544 b 322 496 253 528 288 513 b 314 385 321 447 318 417 l 347 396 l 347 504 l 426 618 l 246 703 l 157 574 l 58 546 l 58 336 b 38 144 58 242 53 196 b 240 -8 72 83 165 13 z "},"č":{"ha":396,"x_min":0,"x_max":0,"o":"m 197 749 l 321 814 b 390 990 324 868 353 931 l 378 1006 b 239 894 325 963 281 928 b 136 971 211 921 179 944 b 86 917 118 947 104 935 b 197 749 135 864 168 807 z m 240 -8 l 303 65 b 376 142 328 93 351 118 l 357 163 b 319 119 343 146 332 132 b 199 215 261 147 228 183 b 214 396 208 258 214 329 l 214 544 b 322 496 253 528 288 513 b 314 385 321 447 318 417 l 347 396 l 347 504 l 426 618 l 246 703 l 157 574 l 58 546 l 58 336 b 38 144 58 242 53 196 b 240 -8 72 83 165 13 z "},"ĉ":{"ha":396,"x_min":0,"x_max":0,"o":"m 326 783 b 376 838 344 807 358 819 b 265 1006 328 890 294 947 l 142 940 b 72 764 139 886 110 824 l 85 749 b 225 860 138 792 182 828 b 326 783 251 835 283 811 z m 240 -8 l 303 65 b 376 142 328 93 351 118 l 357 163 b 319 119 343 146 332 132 b 199 215 261 147 228 183 b 214 396 208 258 214 329 l 214 544 b 322 496 253 528 288 513 b 314 385 321 447 318 417 l 347 396 l 347 504 l 426 618 l 246 703 l 157 574 l 58 546 l 58 336 b 38 144 58 242 53 196 b 240 -8 72 83 165 13 z "},"ċ":{"ha":396,"x_min":0,"x_max":0,"o":"m 344 876 l 238 983 l 133 879 l 240 772 z m 240 -8 l 303 65 b 376 142 328 93 351 118 l 357 163 b 319 119 343 146 332 132 b 199 215 261 147 228 183 b 214 396 208 258 214 329 l 214 544 b 322 496 253 528 288 513 b 314 385 321 447 318 417 l 347 396 l 347 504 l 426 618 l 246 703 l 157 574 l 58 546 l 58 336 b 38 144 58 242 53 196 b 240 -8 72 83 165 13 z "},"ď":{"ha":578,"x_min":0,"x_max":0,"o":"m 289 -8 b 514 213 367 79 415 125 l 514 524 b 422 708 514 622 500 669 b 386 726 410 715 397 721 b 514 888 454 792 514 844 b 497 928 514 904 508 918 l 424 1000 l 325 899 l 382 843 b 364 738 404 822 404 803 b 65 942 115 865 65 907 b 72 968 65 950 68 960 l 93 1004 l 72 1019 b -12 892 47 971 21 933 b 19 754 -64 828 -53 794 l 360 565 b 364 361 363 492 364 424 b 356 117 364 268 361 188 b 214 215 286 147 246 179 b 229 396 224 258 229 329 l 229 590 l 74 547 l 74 336 b 53 144 74 242 68 196 b 289 -8 89 82 206 15 z "},"đ":{"ha":574,"x_min":0,"x_max":0,"o":"m 289 -8 b 514 213 367 79 415 125 l 514 524 b 422 708 514 622 500 669 b 306 768 378 731 339 750 b 425 844 343 800 383 825 l 354 886 l 271 786 b 65 942 103 876 65 911 b 72 968 65 950 68 960 l 93 1004 l 72 1019 b -12 892 47 971 21 933 b -44 825 -33 865 -44 844 b 19 754 -44 799 -24 778 l 169 671 b 39 582 131 633 86 606 l 104 540 l 200 654 l 360 565 b 356 117 367 382 364 235 b 214 215 286 147 246 179 b 229 396 224 258 229 329 l 229 539 l 74 496 l 74 336 b 53 144 74 242 68 196 b 289 -8 89 82 206 15 z "},"é":{"ha":453,"x_min":0,"x_max":0,"o":"m 135 764 l 147 749 b 344 892 217 793 286 843 b 328 1006 343 933 339 965 l 204 940 b 135 764 203 889 181 826 z m 276 -8 l 339 65 b 413 142 364 93 388 118 l 393 163 b 356 119 379 146 367 132 b 208 215 286 149 240 181 b 222 336 215 246 219 289 b 400 328 297 336 363 332 l 418 361 l 254 361 b 415 524 311 414 367 465 b 397 625 449 563 432 606 l 261 703 l 174 575 l 68 546 l 68 361 l 11 361 l -7 322 b 68 332 22 326 46 331 b 47 144 68 240 63 194 b 276 -8 83 82 193 15 z m 224 369 l 224 546 b 332 474 265 525 299 503 b 224 369 294 436 260 404 z "},"ê":{"ha":453,"x_min":0,"x_max":0,"o":"m 342 783 b 392 838 360 807 374 819 b 281 1006 343 890 310 947 l 157 940 b 88 764 154 886 125 824 l 100 749 b 240 860 153 792 197 828 b 342 783 267 835 299 811 z m 276 -8 l 339 65 b 413 142 364 93 388 118 l 393 163 b 356 119 379 146 367 132 b 208 215 286 149 240 181 b 222 336 215 246 219 289 b 400 328 297 336 363 332 l 418 361 l 254 361 b 415 524 311 414 367 465 b 397 625 449 563 432 606 l 261 703 l 174 575 l 68 546 l 68 361 l 11 361 l -7 322 b 68 332 22 326 46 331 b 47 144 68 240 63 194 b 276 -8 83 82 193 15 z m 224 369 l 224 546 b 332 474 265 525 299 503 b 224 369 294 436 260 404 z "},"ë":{"ha":453,"x_min":0,"x_max":0,"o":"m 228 863 l 143 947 l 61 865 l 146 781 z m 419 860 l 335 944 l 253 863 l 338 778 z m 276 -8 l 339 65 b 413 142 364 93 388 118 l 393 163 b 356 119 379 146 367 132 b 208 215 286 149 240 181 b 222 336 215 246 219 289 b 400 328 297 336 363 332 l 418 361 l 254 361 b 415 524 311 414 367 465 b 397 625 449 563 432 606 l 261 703 l 174 575 l 68 546 l 68 361 l 11 361 l -7 322 b 68 332 22 326 46 331 b 47 144 68 240 63 194 b 276 -8 83 82 193 15 z m 224 369 l 224 546 b 332 474 265 525 299 503 b 224 369 294 436 260 404 z "},"è":{"ha":453,"x_min":0,"x_max":0,"o":"m 308 781 b 358 835 326 804 340 817 b 246 1006 308 889 275 946 l 122 940 b 308 781 169 881 219 831 z m 276 -8 l 339 65 b 413 142 364 93 388 118 l 393 163 b 356 119 379 146 367 132 b 208 215 286 149 240 181 b 222 336 215 246 219 289 b 400 328 297 336 363 332 l 418 361 l 254 361 b 415 524 311 414 367 465 b 397 625 449 563 432 606 l 261 703 l 174 575 l 68 546 l 68 361 l 11 361 l -7 322 b 68 332 22 326 46 331 b 47 144 68 240 63 194 b 276 -8 83 82 193 15 z m 224 369 l 224 546 b 332 474 265 525 299 503 b 224 369 294 436 260 404 z "},"ĕ":{"ha":453,"x_min":0,"x_max":0,"o":"m 106 843 b 236 775 140 799 188 775 b 356 850 285 775 322 799 l 408 932 l 383 943 b 285 874 351 896 321 874 b 207 914 258 874 233 885 l 181 943 l 71 886 z m 276 -8 l 339 65 b 413 142 364 93 388 118 l 393 163 b 356 119 379 146 367 132 b 208 215 286 149 240 181 b 222 336 215 246 219 289 b 400 328 297 336 363 332 l 418 361 l 254 361 b 415 524 311 414 367 465 b 397 625 449 563 432 606 l 261 703 l 174 575 l 68 546 l 68 361 l 11 361 l -7 322 b 68 332 22 326 46 331 b 47 144 68 240 63 194 b 276 -8 83 82 193 15 z m 224 369 l 224 546 b 332 474 265 525 299 503 b 224 369 294 436 260 404 z "},"ě":{"ha":453,"x_min":0,"x_max":0,"o":"m 199 749 l 322 814 b 392 990 325 868 354 931 l 379 1006 b 240 894 326 963 282 928 b 138 971 213 921 181 944 b 88 917 119 947 106 935 b 199 749 136 864 169 807 z m 276 -8 l 339 65 b 413 142 364 93 388 118 l 393 163 b 356 119 379 146 367 132 b 208 215 286 149 240 181 b 222 336 215 246 219 289 b 400 328 297 336 363 332 l 418 361 l 254 361 b 415 524 311 414 367 465 b 397 625 449 563 432 606 l 261 703 l 174 575 l 68 546 l 68 361 l 11 361 l -7 322 b 68 332 22 326 46 331 b 47 144 68 240 63 194 b 276 -8 83 82 193 15 z m 224 369 l 224 546 b 332 474 265 525 299 503 b 224 369 294 436 260 404 z "},"ė":{"ha":453,"x_min":0,"x_max":0,"o":"m 346 876 l 239 983 l 135 879 l 242 772 z m 276 -8 l 339 65 b 413 142 364 93 388 118 l 393 163 b 356 119 379 146 367 132 b 208 215 286 149 240 181 b 222 336 215 246 219 289 b 400 328 297 336 363 332 l 418 361 l 254 361 b 415 524 311 414 367 465 b 397 625 449 563 432 606 l 261 703 l 174 575 l 68 546 l 68 361 l 11 361 l -7 322 b 68 332 22 326 46 331 b 47 144 68 240 63 194 b 276 -8 83 82 193 15 z m 224 369 l 224 546 b 332 474 265 525 299 503 b 224 369 294 436 260 404 z "},"ē":{"ha":453,"x_min":0,"x_max":0,"o":"m 83 794 b 228 808 139 806 175 808 l 353 808 l 396 913 b 251 899 340 901 304 899 l 126 899 z m 276 -8 l 339 65 b 413 142 364 93 388 118 l 393 163 b 356 119 379 146 367 132 b 208 215 286 149 240 181 b 222 336 215 246 219 289 b 400 328 297 336 363 332 l 418 361 l 254 361 b 415 524 311 414 367 465 b 397 625 449 563 432 606 l 261 703 l 174 575 l 68 546 l 68 361 l 11 361 l -7 322 b 68 332 22 326 46 331 b 47 144 68 240 63 194 b 276 -8 83 82 193 15 z m 224 369 l 224 546 b 332 474 265 525 299 503 b 224 369 294 436 260 404 z "},"ę":{"ha":453,"x_min":0,"x_max":0,"o":"m 413 -158 l 392 -144 b 363 -186 382 -161 376 -169 b 265 -76 299 -146 265 -104 b 413 142 265 -51 282 0 l 393 163 b 356 119 379 146 367 132 b 208 215 286 149 240 181 b 222 336 215 246 219 289 b 400 328 297 336 363 332 l 418 361 l 254 361 b 415 524 311 414 367 465 b 397 625 449 563 432 606 l 261 703 l 174 575 l 68 546 l 68 361 l 11 361 l -7 322 b 68 332 22 326 46 331 b 47 144 68 240 63 194 b 258 -3 81 86 178 25 b 172 -157 179 -114 172 -137 b 310 -310 172 -194 217 -251 b 413 -158 347 -247 378 -204 z m 224 369 l 224 546 b 332 474 265 525 299 503 b 224 369 294 436 260 404 z "},"ğ":{"ha":560,"x_min":0,"x_max":0,"o":"m 144 843 b 275 775 179 799 226 775 b 394 850 324 775 361 799 l 447 932 l 422 943 b 324 874 390 896 360 874 b 246 914 297 874 272 885 l 219 943 l 110 886 z m 392 -347 b 500 -211 425 -297 461 -253 b 528 -149 518 -192 528 -169 b 469 -64 528 -119 510 -90 b 261 46 404 -24 322 1 b 510 296 333 126 424 219 l 510 653 b 524 811 510 706 515 754 l 460 789 l 460 639 b 408 657 446 646 429 651 l 236 703 l 149 572 l 60 547 l 60 419 b 39 228 60 325 54 279 b 257 83 71 172 174 113 b 200 31 242 68 224 51 b 153 -43 171 4 153 -21 b 189 -92 153 -61 164 -78 l 293 -151 b 406 -262 376 -200 406 -232 b 388 -308 406 -278 399 -292 l 371 -332 z m 200 299 b 215 479 210 342 215 413 l 215 553 b 356 510 264 539 317 525 b 358 365 358 449 358 406 b 354 200 358 315 357 271 b 200 299 281 231 232 263 z "},"ĝ":{"ha":560,"x_min":0,"x_max":0,"o":"m 367 783 b 417 838 385 807 399 819 b 306 1006 368 890 335 947 l 182 940 b 113 764 179 886 150 824 l 125 749 b 265 860 178 792 222 828 b 367 783 292 835 324 811 z m 392 -347 b 500 -211 425 -297 461 -253 b 528 -149 518 -192 528 -169 b 469 -64 528 -119 510 -90 b 261 46 404 -24 322 1 b 510 296 333 126 424 219 l 510 653 b 524 811 510 706 515 754 l 460 789 l 460 639 b 408 657 446 646 429 651 l 236 703 l 149 572 l 60 547 l 60 419 b 39 228 60 325 54 279 b 257 83 71 172 174 113 b 200 31 242 68 224 51 b 153 -43 171 4 153 -21 b 189 -92 153 -61 164 -78 l 293 -151 b 406 -262 376 -200 406 -232 b 388 -308 406 -278 399 -292 l 371 -332 z m 200 299 b 215 479 210 342 215 413 l 215 553 b 356 510 264 539 317 525 b 358 365 358 449 358 406 b 354 200 358 315 357 271 b 200 299 281 231 232 263 z "},"ģ":{"ha":560,"x_min":0,"x_max":0,"o":"m 346 1093 b 174 874 257 1006 174 929 b 192 829 174 856 179 840 l 274 749 l 383 861 l 319 924 b 304 956 310 933 304 943 b 364 1074 304 978 321 1011 z m 392 -347 b 500 -211 425 -297 461 -253 b 528 -149 518 -192 528 -169 b 469 -64 528 -119 510 -90 b 261 46 404 -24 322 1 b 510 296 333 126 424 219 l 510 653 b 524 811 510 706 515 754 l 460 789 l 460 639 b 408 657 446 646 429 651 l 236 703 l 149 572 l 60 547 l 60 419 b 39 228 60 325 54 279 b 257 83 71 172 174 113 b 200 31 242 68 224 51 b 153 -43 171 4 153 -21 b 189 -92 153 -61 164 -78 l 293 -151 b 406 -262 376 -200 406 -232 b 388 -308 406 -278 399 -292 l 371 -332 z m 200 299 b 215 479 210 342 215 413 l 215 553 b 356 510 264 539 317 525 b 358 365 358 449 358 406 b 354 200 358 315 357 271 b 200 299 281 231 232 263 z "},"ġ":{"ha":560,"x_min":0,"x_max":0,"o":"m 385 876 l 278 983 l 174 879 l 281 772 z m 392 -347 b 500 -211 425 -297 461 -253 b 528 -149 518 -192 528 -169 b 469 -64 528 -119 510 -90 b 261 46 404 -24 322 1 b 510 296 333 126 424 219 l 510 653 b 524 811 510 706 515 754 l 460 789 l 460 639 b 408 657 446 646 429 651 l 236 703 l 149 572 l 60 547 l 60 419 b 39 228 60 325 54 279 b 257 83 71 172 174 113 b 200 31 242 68 224 51 b 153 -43 171 4 153 -21 b 189 -92 153 -61 164 -78 l 293 -151 b 406 -262 376 -200 406 -232 b 388 -308 406 -278 399 -292 l 371 -332 z m 200 299 b 215 479 210 342 215 413 l 215 553 b 356 510 264 539 317 525 b 358 365 358 449 358 406 b 354 200 358 315 357 271 b 200 299 281 231 232 263 z "},"ħ":{"ha":607,"x_min":0,"x_max":0,"o":"m 517 -8 b 649 133 564 47 604 93 l 629 154 b 600 121 619 142 610 131 b 518 201 558 150 535 171 b 533 396 529 247 533 319 l 533 551 b 476 649 533 590 525 629 l 343 703 b 239 571 307 667 271 622 l 239 750 l 367 750 l 382 799 b 239 779 340 792 292 783 l 239 935 b 256 1106 239 1014 246 1038 l 214 1093 l 214 946 l 90 1000 b -42 858 43 944 3 899 l -22 838 b 8 872 -11 850 -1 863 l 83 836 l 83 778 l -43 778 l -58 729 b 83 747 -18 736 31 744 l 83 336 b 63 144 83 242 78 196 b 222 -8 96 86 161 24 l 322 110 b 224 201 271 144 242 167 b 239 396 235 247 239 319 l 239 521 b 272 564 250 538 261 551 b 378 521 308 553 343 538 l 378 336 b 357 144 378 242 372 196 b 517 -8 390 86 456 24 z "},"ĥ":{"ha":607,"x_min":0,"x_max":0,"o":"m 381 1082 b 431 1136 399 1106 413 1118 b 319 1304 382 1189 349 1246 l 196 1239 b 126 1063 193 1185 164 1122 l 139 1047 b 279 1158 192 1090 236 1126 b 381 1082 306 1133 338 1110 z m 517 -8 b 649 133 564 47 604 93 l 629 154 b 600 121 619 142 610 131 b 518 201 558 150 535 171 b 533 396 529 247 533 319 l 533 551 b 476 649 533 590 525 629 l 343 703 b 239 571 307 667 271 622 l 239 935 l 90 1000 b -42 858 43 944 3 899 l -22 838 b 8 872 -11 850 -1 863 l 83 836 l 83 336 b 63 144 83 242 78 196 b 222 -8 96 86 161 24 l 322 110 b 224 201 271 144 242 167 b 239 396 235 247 239 319 l 239 521 b 272 564 250 538 261 551 b 378 521 308 553 343 538 l 378 336 b 357 144 378 242 372 196 b 517 -8 390 86 456 24 z "},"í":{"ha":313,"x_min":0,"x_max":0,"o":"m 43 764 l 56 749 b 253 892 125 793 194 843 b 236 1006 251 933 247 965 l 113 940 b 43 764 111 889 89 826 z m 222 -8 b 354 133 269 47 310 93 l 335 154 b 306 121 325 142 315 131 b 224 201 264 150 240 171 b 239 396 235 247 239 319 l 239 551 b 182 656 239 593 233 629 l 92 703 b -40 561 44 647 4 601 l -21 540 b 8 572 -11 553 -1 563 b 83 526 35 561 54 549 l 83 336 b 63 144 83 242 78 196 b 222 -8 96 86 161 24 z "},"î":{"ha":313,"x_min":0,"x_max":0,"o":"m 236 783 b 286 838 254 807 268 819 b 175 1006 238 890 204 947 l 51 940 b -18 764 49 886 19 824 l -6 749 b 135 860 47 792 92 828 b 236 783 161 835 193 811 z m 222 -8 b 354 133 269 47 310 93 l 335 154 b 306 121 325 142 315 131 b 224 201 264 150 240 171 b 239 396 235 247 239 319 l 239 551 b 182 656 239 593 233 629 l 92 703 b -40 561 44 647 4 601 l -21 540 b 8 572 -11 553 -1 563 b 83 526 35 561 54 549 l 83 336 b 63 144 83 242 78 196 b 222 -8 96 86 161 24 z "},"ï":{"ha":313,"x_min":0,"x_max":0,"o":"m 136 863 l 51 947 l -31 865 l 54 781 z m 328 860 l 243 944 l 161 863 l 246 778 z m 222 -8 b 354 133 269 47 310 93 l 335 154 b 306 121 325 142 315 131 b 224 201 264 150 240 171 b 239 396 235 247 239 319 l 239 551 b 182 656 239 593 233 629 l 92 703 b -40 561 44 647 4 601 l -21 540 b 8 572 -11 553 -1 563 b 83 526 35 561 54 549 l 83 336 b 63 144 83 242 78 196 b 222 -8 96 86 161 24 z "},"ì":{"ha":313,"x_min":0,"x_max":0,"o":"m 210 781 b 260 835 228 804 242 817 b 147 1006 210 889 176 946 l 24 940 b 210 781 71 881 121 831 z m 222 -8 b 354 133 269 47 310 93 l 335 154 b 306 121 325 142 315 131 b 224 201 264 150 240 171 b 239 396 235 247 239 319 l 239 551 b 182 656 239 593 233 629 l 92 703 b -40 561 44 647 4 601 l -21 540 b 8 572 -11 553 -1 563 b 83 526 35 561 54 549 l 83 336 b 63 144 83 242 78 196 b 222 -8 96 86 161 24 z "},"ĭ":{"ha":313,"x_min":0,"x_max":0,"o":"m 14 843 b 144 775 49 799 96 775 b 264 850 193 775 231 799 l 317 932 l 292 943 b 193 874 260 896 229 874 b 115 914 167 874 142 885 l 89 943 l -21 886 z m 222 -8 b 354 133 269 47 310 93 l 335 154 b 306 121 325 142 315 131 b 224 201 264 150 240 171 b 239 396 235 247 239 319 l 239 551 b 182 656 239 593 233 629 l 92 703 b -40 561 44 647 4 601 l -21 540 b 8 572 -11 553 -1 563 b 83 526 35 561 54 549 l 83 336 b 63 144 83 242 78 196 b 222 -8 96 86 161 24 z "},"ī":{"ha":313,"x_min":0,"x_max":0,"o":"m -4 794 b 140 808 51 806 88 808 l 265 808 l 308 913 b 164 899 253 901 217 899 l 39 899 z m 222 -8 b 354 133 269 47 310 93 l 335 154 b 306 121 325 142 315 131 b 224 201 264 150 240 171 b 239 396 235 247 239 319 l 239 551 b 182 656 239 593 233 629 l 92 703 b -40 561 44 647 4 601 l -21 540 b 8 572 -11 553 -1 563 b 83 526 35 561 54 549 l 83 336 b 63 144 83 242 78 196 b 222 -8 96 86 161 24 z "},"į":{"ha":313,"x_min":0,"x_max":0,"o":"m 50 799 l 67 783 l 269 928 l 189 990 b 50 799 139 940 92 876 z m 253 -310 b 356 -158 290 -247 321 -204 l 335 -144 b 306 -186 325 -161 319 -169 b 215 -76 244 -147 215 -110 b 354 133 215 -53 229 -1 l 335 154 b 306 121 325 142 315 131 b 224 201 264 150 240 171 b 239 396 235 247 239 319 l 239 551 b 182 656 239 593 233 629 l 92 703 b -40 561 44 647 4 601 l -21 540 b 8 572 -11 553 -1 563 b 83 526 35 561 54 549 l 83 336 b 63 144 83 242 78 196 b 210 -1 93 90 153 32 b 122 -157 129 -114 122 -137 b 253 -310 122 -199 163 -254 z "},"ĩ":{"ha":313,"x_min":0,"x_max":0,"o":"m 214 775 b 344 943 275 775 276 839 l 326 953 b 246 886 290 901 268 886 b 82 953 200 886 135 953 b -49 785 21 953 19 889 l -31 775 b 50 842 6 826 28 842 b 214 775 96 842 161 775 z m 222 -8 b 354 133 269 47 310 93 l 335 154 b 306 121 325 142 315 131 b 224 201 264 150 240 171 b 239 396 235 247 239 319 l 239 551 b 182 656 239 593 233 629 l 92 703 b -40 561 44 647 4 601 l -21 540 b 8 572 -11 553 -1 563 b 83 526 35 561 54 549 l 83 336 b 63 144 83 242 78 196 b 222 -8 96 86 161 24 z "},"ĵ":{"ha":307,"x_min":0,"x_max":0,"o":"m 233 783 b 283 838 251 807 265 819 b 172 1006 235 890 201 947 l 49 940 b -21 764 46 886 17 824 l -8 749 b 132 860 44 792 89 828 b 233 783 158 835 190 811 z m 4 -282 b 233 110 104 -101 157 -15 l 233 551 b 176 656 233 593 228 629 l 85 703 b -47 561 38 647 -3 601 l -28 540 b 1 574 -18 553 -8 564 b 78 526 29 561 49 549 b 83 275 83 419 83 375 b -17 -269 83 50 57 -68 z "},"ĳ":{"ha":619,"x_min":0,"x_max":0,"o":"m 50 799 l 67 783 l 269 928 l 189 990 b 50 799 139 940 92 876 z m 357 799 l 374 783 l 576 928 l 496 990 b 357 799 446 940 399 876 z m 222 -8 b 354 133 269 47 310 93 l 335 154 b 306 121 325 142 315 131 b 224 201 264 150 240 171 b 239 396 235 247 239 319 l 239 551 b 182 656 239 593 233 629 l 92 703 b -40 561 44 647 4 601 l -21 540 b 8 572 -11 553 -1 563 b 83 526 35 561 54 549 l 83 336 b 63 144 83 242 78 196 b 222 -8 96 86 161 24 z m 317 -282 b 546 110 417 -101 469 -15 l 546 551 b 489 656 546 593 540 629 l 397 703 b 265 561 350 647 310 601 l 285 540 b 314 574 294 553 304 564 b 390 526 342 561 361 549 b 396 275 396 419 396 375 b 296 -269 396 50 369 -68 z "},"ķ":{"ha":603,"x_min":0,"x_max":0,"o":"m 517 -8 b 649 133 564 47 604 93 l 629 154 b 600 121 619 142 610 131 b 524 201 560 150 540 171 b 533 288 531 228 533 268 l 533 347 b 481 429 533 386 529 408 l 436 447 b 493 501 457 467 475 483 b 542 585 525 533 542 560 b 474 665 542 613 519 639 l 410 703 b 239 518 343 636 296 586 l 239 935 b 256 1106 239 1014 244 1044 l 214 1093 l 214 946 l 90 1000 b -42 858 43 944 3 899 l -22 838 b 8 872 -11 850 -1 863 l 83 836 l 83 336 b 63 144 83 242 78 196 b 222 -8 96 86 161 24 l 322 110 b 224 201 271 144 242 167 b 236 292 229 226 233 257 b 306 342 258 307 282 324 l 308 340 b 378 310 332 332 354 321 l 378 239 b 363 144 378 207 375 181 b 517 -8 396 86 456 24 z m 239 396 l 239 471 b 321 571 267 508 293 540 l 356 551 b 417 488 396 529 417 508 b 385 438 417 472 406 456 b 238 325 339 397 290 361 b 239 396 239 347 239 371 z m 246 -415 b 418 -196 335 -328 418 -251 b 400 -151 418 -178 413 -162 l 318 -71 l 208 -183 l 272 -246 b 288 -278 282 -256 288 -265 b 228 -396 288 -300 271 -333 z "},"ĺ":{"ha":313,"x_min":0,"x_max":0,"o":"m 43 1063 l 56 1047 b 253 1190 125 1092 194 1142 b 236 1304 251 1232 247 1264 l 113 1239 b 43 1063 111 1188 89 1125 z m 208 -8 b 340 133 256 47 296 93 l 321 154 b 292 121 311 142 301 131 b 224 201 257 149 239 172 b 239 396 235 250 239 326 l 239 935 l 90 1000 b -42 858 43 944 3 899 l -22 838 b 8 872 -11 850 -1 863 l 83 836 l 83 336 b 63 144 83 242 78 196 b 208 -8 96 88 151 21 z "},"ľ":{"ha":292,"x_min":0,"x_max":0,"o":"m 208 -8 b 340 133 256 47 296 93 l 321 154 b 292 121 311 142 301 131 b 224 201 257 149 239 172 b 239 396 235 250 239 326 l 239 953 b 256 1106 239 1024 244 1057 l 214 1093 l 214 946 l 90 1000 b -42 858 43 944 3 899 l -22 838 b 8 872 -11 850 -1 863 l 83 836 l 83 336 b 63 144 83 242 78 196 b 208 -8 96 88 151 21 z m 454 888 b 438 928 454 904 449 918 l 364 1000 l 265 899 l 322 843 b 283 707 347 819 344 797 l 296 697 b 454 888 375 776 454 838 z "},"ļ":{"ha":292,"x_min":0,"x_max":0,"o":"m 239 935 b 256 1106 239 1014 244 1044 l 214 1093 l 214 946 l 90 1000 b -42 858 43 944 3 899 l -22 838 b 8 872 -11 850 -1 863 l 83 836 l 83 336 b 63 144 83 242 78 196 b 208 -8 96 88 151 21 b 340 133 256 47 296 93 l 321 154 b 292 121 311 142 301 131 b 224 201 257 149 239 172 b 239 396 235 250 239 326 z m 114 -415 b 286 -196 203 -328 286 -251 b 268 -151 286 -178 281 -162 l 186 -71 l 76 -183 l 140 -246 b 156 -278 150 -256 156 -265 b 96 -396 156 -300 139 -333 z "},"ŀ":{"ha":396,"x_min":0,"x_max":0,"o":"m 239 935 b 256 1106 239 1014 244 1044 l 214 1093 l 214 946 l 90 1000 b -42 858 43 944 3 899 l -22 838 b 8 872 -11 850 -1 863 l 83 836 l 83 336 b 63 144 83 242 78 196 b 208 -8 96 88 151 21 b 340 133 256 47 296 93 l 321 154 b 292 121 311 142 301 131 b 224 201 257 149 239 172 b 239 396 235 250 239 326 z m 465 503 l 358 610 l 254 506 l 361 399 z "},"ñ":{"ha":607,"x_min":0,"x_max":0,"o":"m 368 775 b 499 943 429 775 431 839 l 481 953 b 400 886 444 901 422 886 b 236 953 354 886 289 953 b 106 785 175 953 174 889 l 124 775 b 204 842 160 826 182 842 b 368 775 250 842 315 775 z m 517 -8 b 649 133 564 47 604 93 l 629 154 b 600 121 619 142 610 131 b 518 201 558 150 535 171 b 533 396 531 247 533 313 l 533 551 b 476 649 533 590 525 629 l 343 703 b 239 571 307 667 271 622 l 239 638 l 90 703 b -42 561 43 647 3 601 l -22 540 b 8 575 -11 553 -1 565 l 83 539 l 83 336 b 63 144 83 242 78 196 b 222 -8 96 86 161 24 l 322 110 b 224 201 271 144 242 167 b 239 396 236 247 239 313 l 239 521 b 275 568 251 539 264 554 b 378 526 311 557 344 543 l 378 336 b 357 144 378 242 372 196 b 517 -8 390 86 456 24 z "},"ń":{"ha":607,"x_min":0,"x_max":0,"o":"m 197 764 l 210 749 b 407 892 279 793 349 843 b 390 1006 406 933 401 965 l 267 940 b 197 764 265 889 243 826 z m 517 -8 b 649 133 564 47 604 93 l 629 154 b 600 121 619 142 610 131 b 518 201 558 150 535 171 b 533 396 531 247 533 313 l 533 551 b 476 649 533 590 525 629 l 343 703 b 239 571 307 667 271 622 l 239 638 l 90 703 b -42 561 43 647 3 601 l -22 540 b 8 575 -11 553 -1 565 l 83 539 l 83 336 b 63 144 83 242 78 196 b 222 -8 96 86 161 24 l 322 110 b 224 201 271 144 242 167 b 239 396 236 247 239 313 l 239 521 b 275 568 251 539 264 554 b 378 526 311 557 344 543 l 378 336 b 357 144 378 242 372 196 b 517 -8 390 86 456 24 z "},"ň":{"ha":607,"x_min":0,"x_max":0,"o":"m 261 749 l 385 814 b 454 990 388 868 417 931 l 442 1006 b 303 894 389 963 344 928 b 200 971 275 921 243 944 b 150 917 182 947 168 935 b 261 749 199 864 232 807 z m 517 -8 b 649 133 564 47 604 93 l 629 154 b 600 121 619 142 610 131 b 518 201 558 150 535 171 b 533 396 531 247 533 313 l 533 551 b 476 649 533 590 525 629 l 343 703 b 239 571 307 667 271 622 l 239 638 l 90 703 b -42 561 43 647 3 601 l -22 540 b 8 575 -11 553 -1 565 l 83 539 l 83 336 b 63 144 83 242 78 196 b 222 -8 96 86 161 24 l 322 110 b 224 201 271 144 242 167 b 239 396 236 247 239 313 l 239 521 b 275 568 251 539 264 554 b 378 526 311 557 344 543 l 378 336 b 357 144 378 242 372 196 b 517 -8 390 86 456 24 z "},"ņ":{"ha":607,"x_min":0,"x_max":0,"o":"m 517 -8 b 649 133 564 47 604 93 l 629 154 b 600 121 619 142 610 131 b 518 201 558 150 535 171 b 533 396 531 247 533 313 l 533 551 b 476 649 533 590 525 629 l 343 703 b 239 571 307 667 271 622 l 239 638 l 90 703 b -42 561 43 647 3 601 l -22 540 b 8 575 -11 553 -1 565 l 83 539 l 83 336 b 63 144 83 242 78 196 b 222 -8 96 86 161 24 l 322 110 b 224 201 271 144 242 167 b 239 396 236 247 239 313 l 239 521 b 275 568 251 539 264 554 b 378 526 311 557 344 543 l 378 336 b 357 144 378 242 372 196 b 517 -8 390 86 456 24 z m 249 -415 b 421 -196 338 -328 421 -251 b 403 -151 421 -178 415 -162 l 321 -71 l 211 -183 l 275 -246 b 290 -278 285 -256 290 -265 b 231 -396 290 -300 274 -333 z "},"ó":{"ha":560,"x_min":0,"x_max":0,"o":"m 174 764 l 186 749 b 383 892 256 793 325 843 b 367 1006 382 933 378 965 l 243 940 b 174 764 242 889 219 826 z m 283 -8 b 508 213 361 79 410 125 l 508 468 b 407 657 508 614 494 633 l 235 703 l 147 572 l 58 547 l 58 336 b 38 144 58 242 53 196 b 283 -8 74 82 199 15 z m 199 215 b 214 396 210 276 214 322 l 214 553 b 354 510 263 539 315 525 b 357 360 356 457 357 408 b 350 117 357 278 354 200 b 199 215 278 149 231 179 z "},"ô":{"ha":560,"x_min":0,"x_max":0,"o":"m 367 783 b 417 838 385 807 399 819 b 306 1006 368 890 335 947 l 182 940 b 113 764 179 886 150 824 l 125 749 b 265 860 178 792 222 828 b 367 783 292 835 324 811 z m 283 -8 b 508 213 361 79 410 125 l 508 468 b 407 657 508 614 494 633 l 235 703 l 147 572 l 58 547 l 58 336 b 38 144 58 242 53 196 b 283 -8 74 82 199 15 z m 199 215 b 214 396 210 276 214 322 l 214 553 b 354 510 263 539 315 525 b 357 360 356 457 357 408 b 350 117 357 278 354 200 b 199 215 278 149 231 179 z "},"ö":{"ha":560,"x_min":0,"x_max":0,"o":"m 267 863 l 182 947 l 100 865 l 185 781 z m 458 860 l 374 944 l 292 863 l 376 778 z m 283 -8 b 508 213 361 79 410 125 l 508 468 b 407 657 508 614 494 633 l 235 703 l 147 572 l 58 547 l 58 336 b 38 144 58 242 53 196 b 283 -8 74 82 199 15 z m 199 215 b 214 396 210 276 214 322 l 214 553 b 354 510 263 539 315 525 b 357 360 356 457 357 408 b 350 117 357 278 354 200 b 199 215 278 149 231 179 z "},"ò":{"ha":560,"x_min":0,"x_max":0,"o":"m 347 781 b 397 835 365 804 379 817 b 285 1006 347 889 314 946 l 161 940 b 347 781 208 881 258 831 z m 283 -8 b 508 213 361 79 410 125 l 508 468 b 407 657 508 614 494 633 l 235 703 l 147 572 l 58 547 l 58 336 b 38 144 58 242 53 196 b 283 -8 74 82 199 15 z m 199 215 b 214 396 210 276 214 322 l 214 553 b 354 510 263 539 315 525 b 357 360 356 457 357 408 b 350 117 357 278 354 200 b 199 215 278 149 231 179 z "},"õ":{"ha":560,"x_min":0,"x_max":0,"o":"m 344 775 b 475 943 406 775 407 839 l 457 953 b 376 886 421 901 399 886 b 213 953 331 886 265 953 b 82 785 151 953 150 889 l 100 775 b 181 842 136 826 158 842 b 344 775 226 842 292 775 z m 283 -8 b 508 213 361 79 410 125 l 508 468 b 407 657 508 614 494 633 l 235 703 l 147 572 l 58 547 l 58 336 b 38 144 58 242 53 196 b 283 -8 74 82 199 15 z m 199 215 b 214 396 210 276 214 322 l 214 553 b 354 510 263 539 315 525 b 357 360 356 457 357 408 b 350 117 357 278 354 200 b 199 215 278 149 231 179 z "},"ŏ":{"ha":560,"x_min":0,"x_max":0,"o":"m 144 843 b 275 775 179 799 226 775 b 394 850 324 775 361 799 l 447 932 l 422 943 b 324 874 390 896 360 874 b 246 914 297 874 272 885 l 219 943 l 110 886 z m 283 -8 b 508 213 361 79 410 125 l 508 468 b 407 657 508 614 494 633 l 235 703 l 147 572 l 58 547 l 58 336 b 38 144 58 242 53 196 b 283 -8 74 82 199 15 z m 199 215 b 214 396 210 276 214 322 l 214 553 b 354 510 263 539 315 525 b 357 360 356 457 357 408 b 350 117 357 278 354 200 b 199 215 278 149 231 179 z "},"ő":{"ha":560,"x_min":0,"x_max":0,"o":"m 78 764 l 90 749 b 274 892 157 790 222 840 b 271 1006 278 936 276 967 l 147 940 b 78 764 146 889 124 826 z m 285 764 l 297 749 b 481 892 364 790 429 840 b 478 1006 485 936 483 967 l 354 940 b 285 764 353 889 331 826 z m 283 -8 b 508 213 361 79 410 125 l 508 468 b 407 657 508 614 494 633 l 235 703 l 147 572 l 58 547 l 58 336 b 38 144 58 242 53 196 b 283 -8 74 82 199 15 z m 199 215 b 214 396 210 276 214 322 l 214 553 b 354 510 263 539 315 525 b 357 360 356 457 357 408 b 350 117 357 278 354 200 b 199 215 278 149 231 179 z "},"ō":{"ha":560,"x_min":0,"x_max":0,"o":"m 122 794 b 267 808 178 806 214 808 l 392 808 l 435 913 b 290 899 379 901 343 899 l 165 899 z m 283 -8 b 508 213 361 79 410 125 l 508 468 b 407 657 508 614 494 633 l 235 703 l 147 572 l 58 547 l 58 336 b 38 144 58 242 53 196 b 283 -8 74 82 199 15 z m 199 215 b 214 396 210 276 214 322 l 214 553 b 354 510 263 539 315 525 b 357 360 356 457 357 408 b 350 117 357 278 354 200 b 199 215 278 149 231 179 z "},"ŕ":{"ha":426,"x_min":0,"x_max":0,"o":"m 124 764 l 136 749 b 333 892 206 793 275 843 b 317 1006 332 933 328 965 l 193 940 b 124 764 192 889 169 826 z m 222 -8 l 285 65 b 358 142 310 93 333 118 l 339 163 b 304 122 326 147 315 135 b 224 201 264 150 239 171 b 239 396 236 253 239 319 l 239 517 b 272 561 250 533 261 547 b 360 493 303 542 333 519 b 353 390 360 449 357 419 l 386 401 l 386 497 l 471 607 l 346 703 b 239 567 308 665 272 619 l 239 638 l 90 703 b -42 561 43 647 3 601 l -22 540 b 8 575 -11 553 -1 565 l 83 539 l 83 336 b 63 144 83 242 78 196 b 222 -8 96 86 161 24 z "},"ř":{"ha":426,"x_min":0,"x_max":0,"o":"m 185 749 l 308 814 b 378 990 311 868 340 931 l 365 1006 b 226 894 313 963 268 928 b 124 971 199 921 167 944 b 74 917 106 947 92 935 b 185 749 122 864 156 807 z m 222 -8 l 285 65 b 358 142 310 93 333 118 l 339 163 b 304 122 326 147 315 135 b 224 201 264 150 239 171 b 239 396 236 253 239 319 l 239 517 b 272 561 250 533 261 547 b 360 493 303 542 333 519 b 353 390 360 449 357 419 l 386 401 l 386 497 l 471 607 l 346 703 b 239 567 308 665 272 619 l 239 638 l 90 703 b -42 561 43 647 3 601 l -22 540 b 8 575 -11 553 -1 565 l 83 539 l 83 336 b 63 144 83 242 78 196 b 222 -8 96 86 161 24 z "},"ŗ":{"ha":426,"x_min":0,"x_max":0,"o":"m 222 -8 l 285 65 b 358 142 310 93 333 118 l 339 163 b 304 122 326 147 315 135 b 224 201 264 150 239 171 b 239 396 236 253 239 319 l 239 517 b 272 561 250 533 261 547 b 360 493 303 542 333 519 b 353 390 360 449 357 419 l 386 401 l 386 497 l 471 607 l 346 703 b 239 567 308 665 272 619 l 239 638 l 90 703 b -42 561 43 647 3 601 l -22 540 b 8 575 -11 553 -1 565 l 83 539 l 83 336 b 63 144 83 242 78 196 b 222 -8 96 86 161 24 z m 150 -415 b 322 -196 239 -328 322 -251 b 304 -151 322 -178 317 -162 l 222 -71 l 113 -183 l 176 -246 b 192 -278 186 -256 192 -265 b 132 -396 192 -300 175 -333 z "},"š":{"ha":518,"x_min":0,"x_max":0,"o":"m 217 749 l 340 814 b 410 990 343 868 372 931 l 397 1006 b 258 894 344 963 300 928 b 156 971 231 921 199 944 b 106 917 138 947 124 935 b 217 749 154 864 188 807 z m 250 -8 l 353 89 l 465 143 b 490 313 478 185 490 276 b 453 386 490 346 475 371 l 371 444 l 486 557 l 468 569 l 267 703 l 153 596 l 61 553 b 36 381 46 503 36 432 l 36 363 l 154 271 l 126 244 b 28 156 76 197 56 176 l 54 136 z m 256 368 b 175 432 225 392 200 411 b 193 565 175 474 182 521 b 344 453 251 536 297 501 z m 350 274 b 332 125 350 242 344 182 b 175 254 268 161 222 203 l 264 340 b 350 274 297 322 322 303 z "},"ś":{"ha":518,"x_min":0,"x_max":0,"o":"m 153 764 l 165 749 b 363 892 235 793 304 843 b 346 1006 361 933 357 965 l 222 940 b 153 764 221 889 199 826 z m 250 -8 l 353 89 l 465 143 b 490 313 478 185 490 276 b 453 386 490 346 475 371 l 371 444 l 486 557 l 468 569 l 267 703 l 153 596 l 61 553 b 36 381 46 503 36 432 l 36 363 l 154 271 l 126 244 b 28 156 76 197 56 176 l 54 136 z m 256 368 b 175 432 225 392 200 411 b 193 565 175 474 182 521 b 344 453 251 536 297 501 z m 350 274 b 332 125 350 242 344 182 b 175 254 268 161 222 203 l 264 340 b 350 274 297 322 322 303 z "},"ş":{"ha":518,"x_min":0,"x_max":0,"o":"m 228 -310 b 399 -178 329 -310 399 -231 b 268 -12 399 -126 374 -92 b 354 90 297 25 324 57 l 465 143 b 490 313 478 185 490 276 b 453 386 490 346 475 371 l 371 444 l 486 557 l 468 569 l 267 703 l 153 596 l 61 553 b 36 381 46 503 36 432 l 36 363 l 154 271 l 126 244 b 28 156 76 197 56 176 l 54 136 l 240 -1 b 161 -89 215 -31 186 -64 l 161 -99 b 294 -239 278 -179 294 -204 b 236 -285 294 -271 274 -285 b 144 -240 210 -285 169 -268 l 138 -240 l 131 -289 b 228 -310 157 -303 200 -310 z m 256 368 b 175 432 225 392 200 411 b 193 565 175 474 182 521 b 344 453 251 536 297 501 z m 350 274 b 332 125 350 242 344 182 b 175 254 268 161 222 203 l 264 340 b 350 274 297 322 322 303 z "},"ŝ":{"ha":518,"x_min":0,"x_max":0,"o":"m 346 783 b 396 838 364 807 378 819 b 285 1006 347 890 314 947 l 161 940 b 92 764 158 886 129 824 l 104 749 b 244 860 157 792 201 828 b 346 783 271 835 303 811 z m 250 -8 l 353 89 l 465 143 b 490 313 478 185 490 276 b 453 386 490 346 475 371 l 371 444 l 486 557 l 468 569 l 267 703 l 153 596 l 61 553 b 36 381 46 503 36 432 l 36 363 l 154 271 l 126 244 b 28 156 76 197 56 176 l 54 136 z m 256 368 b 175 432 225 392 200 411 b 193 565 175 474 182 521 b 344 453 251 536 297 501 z m 350 274 b 332 125 350 242 344 182 b 175 254 268 161 222 203 l 264 340 b 350 274 297 322 322 303 z "},"ș":{"ha":518,"x_min":0,"x_max":0,"o":"m 250 -8 l 353 89 l 465 143 b 490 313 478 185 490 276 b 453 386 490 346 475 371 l 371 444 l 486 557 l 468 569 l 267 703 l 153 596 l 61 553 b 36 381 46 503 36 432 l 36 363 l 154 271 l 126 244 b 28 156 76 197 56 176 l 54 136 z m 256 368 b 175 432 225 392 200 411 b 193 565 175 474 182 521 b 344 453 251 536 297 501 z m 350 274 b 332 125 350 242 344 182 b 175 254 268 161 222 203 l 264 340 b 350 274 297 322 322 303 z m 190 -415 b 363 -196 279 -328 363 -251 b 344 -151 363 -178 357 -162 l 263 -71 l 153 -183 l 217 -246 b 232 -278 226 -256 232 -265 b 172 -396 232 -300 215 -333 z "},"ŧ":{"ha":356,"x_min":0,"x_max":0,"o":"m 314 65 b 388 142 339 93 363 118 l 368 163 b 331 119 354 146 343 132 b 224 201 281 143 249 169 b 239 364 233 240 238 297 l 239 383 l 358 383 l 374 432 b 239 414 335 425 289 418 l 239 647 b 368 639 293 646 339 642 l 386 694 l 239 694 l 239 849 b 256 1019 239 928 246 951 l 214 1007 l 214 865 l 83 789 l 83 694 l 7 694 l -11 633 b 83 644 22 639 53 642 l 83 411 l -8 411 l -24 363 b 83 378 8 368 44 374 l 83 336 b 63 144 83 242 78 196 b 251 -8 97 85 181 11 z "},"ť":{"ha":356,"x_min":0,"x_max":0,"o":"m 314 65 b 388 142 339 93 363 118 l 368 163 b 331 119 354 146 343 132 b 224 201 281 143 249 169 b 239 364 233 240 238 297 l 239 647 b 368 639 293 646 339 642 l 386 694 l 239 694 l 239 849 b 256 1019 239 928 246 951 l 214 1007 l 214 865 l 83 789 l 83 694 l 7 694 l -11 633 b 83 644 22 639 53 642 l 83 336 b 63 144 83 242 78 196 b 251 -8 97 85 181 11 z m 454 888 b 438 928 454 904 449 918 l 364 1000 l 265 899 l 322 843 b 304 740 340 825 346 801 l 317 731 b 454 888 383 797 454 846 z "},"ţ":{"ha":356,"x_min":0,"x_max":0,"o":"m 314 65 b 388 142 339 93 363 118 l 368 163 b 331 119 354 146 343 132 b 224 201 281 143 249 169 b 239 364 233 240 238 297 l 239 647 b 368 639 293 646 339 642 l 386 694 l 239 694 l 239 849 b 256 1019 239 928 246 951 l 214 1007 l 214 865 l 83 789 l 83 694 l 7 694 l -11 633 b 83 644 22 639 53 642 l 83 336 b 63 144 83 242 78 196 b 251 -8 97 85 181 11 z m 131 -415 b 303 -196 219 -328 303 -251 b 285 -151 303 -178 297 -162 l 203 -71 l 93 -183 l 157 -246 b 172 -278 167 -256 172 -265 b 113 -396 172 -300 156 -333 z "},"ț":{"ha":356,"x_min":0,"x_max":0,"o":"m 314 65 b 388 142 339 93 363 118 l 368 163 b 331 119 354 146 343 132 b 224 201 281 143 249 169 b 239 364 233 240 238 297 l 239 647 b 368 639 293 646 339 642 l 386 694 l 239 694 l 239 849 b 256 1019 239 928 246 951 l 214 1007 l 214 865 l 83 789 l 83 694 l 7 694 l -11 633 b 83 644 22 639 53 642 l 83 336 b 63 144 83 242 78 196 b 251 -8 97 85 181 11 z m 131 -415 b 303 -196 219 -328 303 -251 b 285 -151 303 -178 297 -162 l 203 -71 l 93 -183 l 157 -246 b 172 -278 167 -256 172 -265 b 113 -396 172 -300 156 -333 z "},"ú":{"ha":607,"x_min":0,"x_max":0,"o":"m 218 764 l 231 749 b 428 892 300 793 369 843 b 411 1006 426 933 422 965 l 288 940 b 218 764 286 889 264 826 z m 517 -8 b 649 133 564 47 604 93 l 629 154 b 600 121 619 142 610 131 b 518 201 558 150 535 171 b 533 396 529 247 533 310 l 533 551 b 476 656 533 593 524 633 l 374 703 l 285 575 b 378 526 317 563 349 547 l 378 336 b 372 221 378 288 376 251 b 303 122 351 185 328 151 b 224 201 264 150 239 171 b 239 396 235 247 239 310 l 239 638 l 90 703 b -42 561 43 647 3 601 l -22 540 b 8 575 -11 553 -1 565 l 83 539 l 83 336 b 63 144 83 242 78 196 b 222 -8 96 86 161 24 b 357 143 271 42 318 89 b 517 -8 390 86 456 24 z "},"û":{"ha":607,"x_min":0,"x_max":0,"o":"m 411 783 b 461 838 429 807 443 819 b 350 1006 413 890 379 947 l 226 940 b 157 764 224 886 194 824 l 169 749 b 310 860 222 792 267 828 b 411 783 336 835 368 811 z m 517 -8 b 649 133 564 47 604 93 l 629 154 b 600 121 619 142 610 131 b 518 201 558 150 535 171 b 533 396 529 247 533 310 l 533 551 b 476 656 533 593 524 633 l 374 703 l 285 575 b 378 526 317 563 349 547 l 378 336 b 372 221 378 288 376 251 b 303 122 351 185 328 151 b 224 201 264 150 239 171 b 239 396 235 247 239 310 l 239 638 l 90 703 b -42 561 43 647 3 601 l -22 540 b 8 575 -11 553 -1 565 l 83 539 l 83 336 b 63 144 83 242 78 196 b 222 -8 96 86 161 24 b 357 143 271 42 318 89 b 517 -8 390 86 456 24 z "},"ü":{"ha":607,"x_min":0,"x_max":0,"o":"m 292 863 l 207 947 l 125 865 l 210 781 z m 483 860 l 399 944 l 317 863 l 401 778 z m 517 -8 b 649 133 564 47 604 93 l 629 154 b 600 121 619 142 610 131 b 518 201 558 150 535 171 b 533 396 529 247 533 310 l 533 551 b 476 656 533 593 524 633 l 374 703 l 285 575 b 378 526 317 563 349 547 l 378 336 b 372 221 378 288 376 251 b 303 122 351 185 328 151 b 224 201 264 150 239 171 b 239 396 235 247 239 310 l 239 638 l 90 703 b -42 561 43 647 3 601 l -22 540 b 8 575 -11 553 -1 565 l 83 539 l 83 336 b 63 144 83 242 78 196 b 222 -8 96 86 161 24 b 357 143 271 42 318 89 b 517 -8 390 86 456 24 z "},"ù":{"ha":607,"x_min":0,"x_max":0,"o":"m 364 781 b 414 835 382 804 396 817 b 301 1006 364 889 331 946 l 178 940 b 364 781 225 881 275 831 z m 517 -8 b 649 133 564 47 604 93 l 629 154 b 600 121 619 142 610 131 b 518 201 558 150 535 171 b 533 396 529 247 533 310 l 533 551 b 476 656 533 593 524 633 l 374 703 l 285 575 b 378 526 317 563 349 547 l 378 336 b 372 221 378 288 376 251 b 303 122 351 185 328 151 b 224 201 264 150 239 171 b 239 396 235 247 239 310 l 239 638 l 90 703 b -42 561 43 647 3 601 l -22 540 b 8 575 -11 553 -1 565 l 83 539 l 83 336 b 63 144 83 242 78 196 b 222 -8 96 86 161 24 b 357 143 271 42 318 89 b 517 -8 390 86 456 24 z "},"ŭ":{"ha":607,"x_min":0,"x_max":0,"o":"m 182 843 b 313 775 217 799 264 775 b 432 850 361 775 399 799 l 485 932 l 460 943 b 361 874 428 896 397 874 b 283 914 335 874 310 885 l 257 943 l 147 886 z m 517 -8 b 649 133 564 47 604 93 l 629 154 b 600 121 619 142 610 131 b 518 201 558 150 535 171 b 533 396 529 247 533 310 l 533 551 b 476 656 533 593 524 633 l 374 703 l 285 575 b 378 526 317 563 349 547 l 378 336 b 372 221 378 288 376 251 b 303 122 351 185 328 151 b 224 201 264 150 239 171 b 239 396 235 247 239 310 l 239 638 l 90 703 b -42 561 43 647 3 601 l -22 540 b 8 575 -11 553 -1 565 l 83 539 l 83 336 b 63 144 83 242 78 196 b 222 -8 96 86 161 24 b 357 143 271 42 318 89 b 517 -8 390 86 456 24 z "},"ű":{"ha":607,"x_min":0,"x_max":0,"o":"m 115 764 l 128 749 b 311 892 194 790 260 840 b 308 1006 315 936 314 967 l 185 940 b 115 764 183 889 161 826 z m 322 764 l 335 749 b 518 892 401 790 467 840 b 515 1006 522 936 521 967 l 392 940 b 322 764 390 889 368 826 z m 517 -8 b 649 133 564 47 604 93 l 629 154 b 600 121 619 142 610 131 b 518 201 558 150 535 171 b 533 396 529 247 533 310 l 533 551 b 476 656 533 593 524 633 l 374 703 l 285 575 b 378 526 317 563 349 547 l 378 336 b 372 221 378 288 376 251 b 303 122 351 185 328 151 b 224 201 264 150 239 171 b 239 396 235 247 239 310 l 239 638 l 90 703 b -42 561 43 647 3 601 l -22 540 b 8 575 -11 553 -1 565 l 83 539 l 83 336 b 63 144 83 242 78 196 b 222 -8 96 86 161 24 b 357 143 271 42 318 89 b 517 -8 390 86 456 24 z "},"ū":{"ha":607,"x_min":0,"x_max":0,"o":"m 160 794 b 304 808 215 806 251 808 l 429 808 l 472 913 b 328 899 417 901 381 899 l 203 899 z m 517 -8 b 649 133 564 47 604 93 l 629 154 b 600 121 619 142 610 131 b 518 201 558 150 535 171 b 533 396 529 247 533 310 l 533 551 b 476 656 533 593 524 633 l 374 703 l 285 575 b 378 526 317 563 349 547 l 378 336 b 372 221 378 288 376 251 b 303 122 351 185 328 151 b 224 201 264 150 239 171 b 239 396 235 247 239 310 l 239 638 l 90 703 b -42 561 43 647 3 601 l -22 540 b 8 575 -11 553 -1 565 l 83 539 l 83 336 b 63 144 83 242 78 196 b 222 -8 96 86 161 24 b 357 143 271 42 318 89 b 517 -8 390 86 456 24 z "},"ų":{"ha":607,"x_min":0,"x_max":0,"o":"m 547 -310 b 650 -158 585 -247 615 -204 l 629 -144 b 600 -186 619 -161 614 -169 b 510 -76 539 -147 510 -110 b 649 133 510 -53 524 -1 l 629 154 b 600 121 619 142 610 131 b 518 201 558 150 535 171 b 533 396 529 247 533 310 l 533 551 b 476 656 533 593 524 633 l 374 703 l 285 575 b 378 526 317 563 349 547 l 378 336 b 372 221 378 288 376 251 b 303 122 351 185 328 151 b 224 201 264 150 239 171 b 239 396 235 247 239 310 l 239 638 l 90 703 b -42 561 43 647 3 601 l -22 540 b 8 575 -11 553 -1 565 l 83 539 l 83 336 b 63 144 83 242 78 196 b 222 -8 96 86 161 24 b 357 143 271 42 318 89 b 504 -1 388 90 447 32 b 417 -157 424 -114 417 -137 b 547 -310 417 -199 457 -254 z "},"ů":{"ha":607,"x_min":0,"x_max":0,"o":"m 310 749 b 419 849 349 789 372 811 l 419 919 b 363 1001 419 983 410 988 l 278 1025 l 251 960 l 186 949 l 186 893 b 178 803 186 849 185 825 b 310 749 200 782 253 760 z m 265 849 b 271 914 269 871 271 888 l 271 940 b 335 919 293 935 317 925 b 336 875 336 904 336 889 b 335 822 336 857 335 840 b 265 849 303 832 282 839 z m 517 -8 b 649 133 564 47 604 93 l 629 154 b 600 121 619 142 610 131 b 518 201 558 150 535 171 b 533 396 529 247 533 310 l 533 551 b 476 656 533 593 524 633 l 374 703 l 285 575 b 378 526 317 563 349 547 l 378 336 b 372 221 378 288 376 251 b 303 122 351 185 328 151 b 224 201 264 150 239 171 b 239 396 235 247 239 310 l 239 638 l 90 703 b -42 561 43 647 3 601 l -22 540 b 8 575 -11 553 -1 565 l 83 539 l 83 336 b 63 144 83 242 78 196 b 222 -8 96 86 161 24 b 357 143 271 42 318 89 b 517 -8 390 86 456 24 z "},"ũ":{"ha":607,"x_min":0,"x_max":0,"o":"m 390 775 b 521 943 451 775 453 839 l 503 953 b 422 886 467 901 444 886 b 258 953 376 886 311 953 b 128 785 197 953 196 889 l 146 775 b 226 842 182 826 204 842 b 390 775 272 842 338 775 z m 517 -8 b 649 133 564 47 604 93 l 629 154 b 600 121 619 142 610 131 b 518 201 558 150 535 171 b 533 396 529 247 533 310 l 533 551 b 476 656 533 593 524 633 l 374 703 l 285 575 b 378 526 317 563 349 547 l 378 336 b 372 221 378 288 376 251 b 303 122 351 185 328 151 b 224 201 264 150 239 171 b 239 396 235 247 239 310 l 239 638 l 90 703 b -42 561 43 647 3 601 l -22 540 b 8 575 -11 553 -1 565 l 83 539 l 83 336 b 63 144 83 242 78 196 b 222 -8 96 86 161 24 b 357 143 271 42 318 89 b 517 -8 390 86 456 24 z "},"ẃ":{"ha":840,"x_min":0,"x_max":0,"o":"m 301 764 l 314 749 b 511 892 383 793 453 843 b 494 1006 510 933 506 965 l 371 940 b 301 764 369 889 347 826 z m 531 -8 b 817 446 624 85 817 232 b 679 703 817 557 756 646 l 569 568 b 678 306 642 517 678 433 b 617 117 678 229 654 164 b 518 201 564 146 536 172 b 533 396 532 247 533 264 l 533 625 l 374 703 l 285 575 b 378 526 317 563 349 547 l 378 336 b 372 221 378 288 376 251 b 303 122 351 185 328 151 b 224 201 264 150 239 171 b 239 396 238 247 239 264 l 239 638 l 90 703 b -42 561 43 647 3 601 l -22 540 b 8 575 -11 553 -1 565 l 83 539 l 83 336 b 63 144 83 242 78 196 b 222 -8 96 86 161 24 b 357 143 271 42 318 89 b 531 -8 392 85 450 35 z "},"ŵ":{"ha":840,"x_min":0,"x_max":0,"o":"m 507 783 b 557 838 525 807 539 819 b 446 1006 508 890 475 947 l 322 940 b 253 764 319 886 290 824 l 265 749 b 406 860 318 792 363 828 b 507 783 432 835 464 811 z m 531 -8 b 817 446 624 85 817 232 b 679 703 817 557 756 646 l 569 568 b 678 306 642 517 678 433 b 617 117 678 229 654 164 b 518 201 564 146 536 172 b 533 396 532 247 533 264 l 533 625 l 374 703 l 285 575 b 378 526 317 563 349 547 l 378 336 b 372 221 378 288 376 251 b 303 122 351 185 328 151 b 224 201 264 150 239 171 b 239 396 238 247 239 264 l 239 638 l 90 703 b -42 561 43 647 3 601 l -22 540 b 8 575 -11 553 -1 565 l 83 539 l 83 336 b 63 144 83 242 78 196 b 222 -8 96 86 161 24 b 357 143 271 42 318 89 b 531 -8 392 85 450 35 z "},"ẅ":{"ha":840,"x_min":0,"x_max":0,"o":"m 408 863 l 324 947 l 242 865 l 326 781 z m 600 860 l 515 944 l 433 863 l 518 778 z m 531 -8 b 817 446 624 85 817 232 b 679 703 817 557 756 646 l 569 568 b 678 306 642 517 678 433 b 617 117 678 229 654 164 b 518 201 564 146 536 172 b 533 396 532 247 533 264 l 533 625 l 374 703 l 285 575 b 378 526 317 563 349 547 l 378 336 b 372 221 378 288 376 251 b 303 122 351 185 328 151 b 224 201 264 150 239 171 b 239 396 238 247 239 264 l 239 638 l 90 703 b -42 561 43 647 3 601 l -22 540 b 8 575 -11 553 -1 565 l 83 539 l 83 336 b 63 144 83 242 78 196 b 222 -8 96 86 161 24 b 357 143 271 42 318 89 b 531 -8 392 85 450 35 z "},"ẁ":{"ha":840,"x_min":0,"x_max":0,"o":"m 489 781 b 539 835 507 804 521 817 b 426 1006 489 889 456 946 l 303 940 b 489 781 350 881 400 831 z m 531 -8 b 817 446 624 85 817 232 b 679 703 817 557 756 646 l 569 568 b 678 306 642 517 678 433 b 617 117 678 229 654 164 b 518 201 564 146 536 172 b 533 396 532 247 533 264 l 533 625 l 374 703 l 285 575 b 378 526 317 563 349 547 l 378 336 b 372 221 378 288 376 251 b 303 122 351 185 328 151 b 224 201 264 150 239 171 b 239 396 238 247 239 264 l 239 638 l 90 703 b -42 561 43 647 3 601 l -22 540 b 8 575 -11 553 -1 565 l 83 539 l 83 336 b 63 144 83 242 78 196 b 222 -8 96 86 161 24 b 357 143 271 42 318 89 b 531 -8 392 85 450 35 z "},"ý":{"ha":576,"x_min":0,"x_max":0,"o":"m 196 764 l 208 749 b 406 892 278 793 347 843 b 389 1006 404 933 400 965 l 265 940 b 196 764 264 889 242 826 z m 414 -347 b 522 -211 447 -297 483 -253 b 550 -149 540 -192 550 -169 b 492 -64 550 -119 532 -90 b 283 46 426 -24 344 1 b 531 294 356 126 446 219 l 531 544 b 467 658 531 611 507 639 l 371 703 l 282 575 b 376 526 318 561 346 546 b 379 376 379 467 379 419 b 372 199 379 314 376 263 b 221 297 300 231 253 261 b 236 478 231 340 236 411 l 236 638 l 88 703 b -44 561 40 647 0 601 l -25 540 b 6 575 -14 553 -4 565 l 81 539 l 81 418 b 60 226 81 324 75 278 b 276 82 93 169 194 110 b 222 31 261 67 244 50 b 175 -43 193 4 175 -21 b 211 -92 175 -61 186 -78 l 315 -151 b 428 -262 399 -200 428 -232 b 410 -308 428 -278 421 -292 l 393 -332 z "},"ÿ":{"ha":576,"x_min":0,"x_max":0,"o":"m 275 863 l 190 947 l 108 865 l 193 781 z m 467 860 l 382 944 l 300 863 l 385 778 z m 414 -347 b 522 -211 447 -297 483 -253 b 550 -149 540 -192 550 -169 b 492 -64 550 -119 532 -90 b 283 46 426 -24 344 1 b 531 294 356 126 446 219 l 531 544 b 467 658 531 611 507 639 l 371 703 l 282 575 b 376 526 318 561 346 546 b 379 376 379 467 379 419 b 372 199 379 314 376 263 b 221 297 300 231 253 261 b 236 478 231 340 236 411 l 236 638 l 88 703 b -44 561 40 647 0 601 l -25 540 b 6 575 -14 553 -4 565 l 81 539 l 81 418 b 60 226 81 324 75 278 b 276 82 93 169 194 110 b 222 31 261 67 244 50 b 175 -43 193 4 175 -21 b 211 -92 175 -61 186 -78 l 315 -151 b 428 -262 399 -200 428 -232 b 410 -308 428 -278 421 -292 l 393 -332 z "},"ŷ":{"ha":576,"x_min":0,"x_max":0,"o":"m 389 783 b 439 838 407 807 421 819 b 328 1006 390 890 357 947 l 204 940 b 135 764 201 886 172 824 l 147 749 b 288 860 200 792 244 828 b 389 783 314 835 346 811 z m 414 -347 b 522 -211 447 -297 483 -253 b 550 -149 540 -192 550 -169 b 492 -64 550 -119 532 -90 b 283 46 426 -24 344 1 b 531 294 356 126 446 219 l 531 544 b 467 658 531 611 507 639 l 371 703 l 282 575 b 376 526 318 561 346 546 b 379 376 379 467 379 419 b 372 199 379 314 376 263 b 221 297 300 231 253 261 b 236 478 231 340 236 411 l 236 638 l 88 703 b -44 561 40 647 0 601 l -25 540 b 6 575 -14 553 -4 565 l 81 539 l 81 418 b 60 226 81 324 75 278 b 276 82 93 169 194 110 b 222 31 261 67 244 50 b 175 -43 193 4 175 -21 b 211 -92 175 -61 186 -78 l 315 -151 b 428 -262 399 -200 428 -232 b 410 -308 428 -278 421 -292 l 393 -332 z "},"ỳ":{"ha":576,"x_min":0,"x_max":0,"o":"m 342 781 b 392 835 360 804 374 817 b 279 1006 342 889 308 946 l 156 940 b 342 781 203 881 253 831 z m 414 -347 b 522 -211 447 -297 483 -253 b 550 -149 540 -192 550 -169 b 492 -64 550 -119 532 -90 b 283 46 426 -24 344 1 b 531 294 356 126 446 219 l 531 544 b 467 658 531 611 507 639 l 371 703 l 282 575 b 376 526 318 561 346 546 b 379 376 379 467 379 419 b 372 199 379 314 376 263 b 221 297 300 231 253 261 b 236 478 231 340 236 411 l 236 638 l 88 703 b -44 561 40 647 0 601 l -25 540 b 6 575 -14 553 -4 565 l 81 539 l 81 418 b 60 226 81 324 75 278 b 276 82 93 169 194 110 b 222 31 261 67 244 50 b 175 -43 193 4 175 -21 b 211 -92 175 -61 186 -78 l 315 -151 b 428 -262 399 -200 428 -232 b 410 -308 428 -278 421 -292 l 393 -332 z "},"ž":{"ha":363,"x_min":0,"x_max":0,"o":"m 125 749 l 249 814 b 318 990 251 868 281 931 l 306 1006 b 167 894 253 963 208 928 b 64 971 139 921 107 944 b 14 917 46 947 32 935 b 125 749 63 864 96 807 z m 297 -254 b 351 -172 333 -228 351 -203 b 333 -114 351 -156 346 -136 b 172 219 276 -8 226 99 b 293 332 207 256 243 289 b 365 325 324 331 342 328 l 383 361 l 313 361 l 313 544 b 247 663 313 614 290 651 l 97 703 b -35 561 50 647 10 601 l -15 540 b 14 574 -6 553 4 564 b 158 526 72 563 113 549 b 161 431 160 493 161 461 b 160 361 161 407 161 385 l 18 361 l 0 319 b 158 333 57 328 106 333 b 150 239 156 304 153 272 l 89 189 b 51 133 63 168 51 153 b 69 75 51 118 58 101 l 200 -217 b 214 -264 210 -237 214 -253 b 196 -297 214 -278 208 -287 l 163 -325 l 183 -347 b 297 -254 215 -317 265 -278 z "},"ź":{"ha":363,"x_min":0,"x_max":0,"o":"m 61 764 l 74 749 b 271 892 143 793 213 843 b 254 1006 269 933 265 965 l 131 940 b 61 764 129 889 107 826 z m 297 -254 b 351 -172 333 -228 351 -203 b 333 -114 351 -156 346 -136 b 172 219 276 -8 226 99 b 293 332 207 256 243 289 b 365 325 324 331 342 328 l 383 361 l 313 361 l 313 544 b 247 663 313 614 290 651 l 97 703 b -35 561 50 647 10 601 l -15 540 b 14 574 -6 553 4 564 b 158 526 72 563 113 549 b 161 431 160 493 161 461 b 160 361 161 407 161 385 l 18 361 l 0 319 b 158 333 57 328 106 333 b 150 239 156 304 153 272 l 89 189 b 51 133 63 168 51 153 b 69 75 51 118 58 101 l 200 -217 b 214 -264 210 -237 214 -253 b 196 -297 214 -278 208 -287 l 163 -325 l 183 -347 b 297 -254 215 -317 265 -278 z "},"ż":{"ha":363,"x_min":0,"x_max":0,"o":"m 268 876 l 161 983 l 57 879 l 164 772 z m 297 -254 b 351 -172 333 -228 351 -203 b 333 -114 351 -156 346 -136 b 172 219 276 -8 226 99 b 293 332 207 256 243 289 b 365 325 324 331 342 328 l 383 361 l 313 361 l 313 544 b 247 663 313 614 290 651 l 97 703 b -35 561 50 647 10 601 l -15 540 b 14 574 -6 553 4 564 b 158 526 72 563 113 549 b 161 431 160 493 161 461 b 160 361 161 407 161 385 l 18 361 l 0 319 b 158 333 57 328 106 333 b 150 239 156 304 153 272 l 89 189 b 51 133 63 168 51 153 b 69 75 51 118 58 101 l 200 -217 b 214 -264 210 -237 214 -253 b 196 -297 214 -278 208 -287 l 163 -325 l 183 -347 b 297 -254 215 -317 265 -278 z "},"´":{"ha":694,"x_min":0,"x_max":0,"o":"m 242 764 l 254 749 b 451 892 324 793 393 843 b 435 1006 450 933 446 965 l 311 940 b 242 764 310 889 288 826 z "},"`":{"ha":694,"x_min":0,"x_max":0,"o":"m 415 781 b 465 835 433 804 447 817 b 353 1006 415 889 382 946 l 229 940 b 415 781 276 881 326 831 z "},"ˆ":{"ha":694,"x_min":0,"x_max":0,"o":"m 435 783 b 485 838 453 807 467 819 b 374 1006 436 890 403 947 l 250 940 b 181 764 247 886 218 824 l 193 749 b 333 860 246 792 290 828 b 435 783 360 835 392 811 z "},"ˇ":{"ha":694,"x_min":0,"x_max":0,"o":"m 306 749 l 429 814 b 499 990 432 868 461 931 l 486 1006 b 347 894 433 963 389 928 b 244 971 319 921 288 944 b 194 917 226 947 213 935 b 306 749 243 864 276 807 z "},"˜":{"ha":694,"x_min":0,"x_max":0,"o":"m 413 775 b 543 943 474 775 475 839 l 525 953 b 444 886 489 901 467 886 b 281 953 399 886 333 953 b 150 785 219 953 218 889 l 168 775 b 249 842 204 826 226 842 b 413 775 294 842 360 775 z "},"¨":{"ha":694,"x_min":0,"x_max":0,"o":"m 335 863 l 250 947 l 168 865 l 253 781 z m 526 860 l 442 944 l 360 863 l 444 778 z "},"˚":{"ha":694,"x_min":0,"x_max":0,"o":"m 358 749 b 468 849 397 789 421 811 l 468 919 b 411 1001 468 983 458 988 l 326 1025 l 300 960 l 235 949 l 235 893 b 226 803 235 849 233 825 b 358 749 249 782 301 760 z m 314 849 b 319 914 318 871 319 888 l 319 940 b 383 919 342 935 365 925 b 385 875 385 904 385 889 b 383 822 385 857 383 840 b 314 849 351 832 331 839 z "},"¸":{"ha":694,"x_min":0,"x_max":0,"o":"m 315 -285 b 224 -240 289 -285 249 -268 l 217 -240 l 210 -289 b 307 -310 236 -303 279 -310 b 478 -178 408 -310 478 -231 b 347 -12 478 -126 453 -92 b 483 142 392 43 429 88 l 368 65 b 240 -89 360 44 290 -37 l 240 -99 b 374 -239 357 -179 374 -204 b 315 -285 374 -271 353 -285 z "},"˝":{"ha":694,"x_min":0,"x_max":0,"o":"m 146 764 l 158 749 b 342 892 225 790 290 840 b 339 1006 346 936 344 967 l 215 940 b 146 764 214 889 192 826 z m 353 764 l 365 749 b 549 892 432 790 497 840 b 546 1006 553 936 551 967 l 422 940 b 353 764 421 889 399 826 z "},"˘":{"ha":694,"x_min":0,"x_max":0,"o":"m 213 843 b 343 775 247 799 294 775 b 463 850 392 775 429 799 l 515 932 l 490 943 b 392 874 458 896 428 874 b 314 914 365 874 340 885 l 288 943 l 178 886 z "},"¯":{"ha":694,"x_min":0,"x_max":0,"o":"m 190 794 b 335 808 246 806 282 808 l 460 808 l 503 913 b 358 899 447 901 411 899 l 233 899 z "},"˙":{"ha":694,"x_min":0,"x_max":0,"o":"m 453 876 l 346 983 l 242 879 l 349 772 z "},"·":{"ha":694,"x_min":0,"x_max":0,"o":"m 453 471 l 346 578 l 242 474 l 349 367 z "},"˛":{"ha":694,"x_min":0,"x_max":0,"o":"m 326 10 b 231 -157 238 -112 231 -137 b 361 -310 231 -199 271 -254 b 464 -158 399 -247 429 -204 l 443 -144 b 414 -186 433 -161 428 -169 b 324 -76 353 -147 324 -110 b 463 133 324 -53 338 -1 z "},"̦":{"ha":694,"x_min":0,"x_max":0,"o":"m 279 -415 b 451 -196 368 -328 451 -251 b 433 -151 451 -178 446 -162 l 351 -71 l 242 -183 l 306 -246 b 321 -278 315 -256 321 -265 b 261 -396 321 -300 304 -333 z "},".":{"ha":267,"x_min":0,"x_max":0,"o":"m 160 -8 l 281 113 l 160 233 l 39 113 z "},",":{"ha":236,"x_min":0,"x_max":0,"o":"m 78 -129 b 250 90 167 -42 250 35 b 232 135 250 108 244 124 l 150 215 l 40 103 l 104 40 b 119 8 114 31 119 21 b 60 -110 119 -14 103 -47 z "},":":{"ha":319,"x_min":0,"x_max":0,"o":"m 160 464 l 281 585 l 160 706 l 39 585 z m 160 -8 l 281 113 l 160 233 l 39 113 z "},";":{"ha":319,"x_min":0,"x_max":0,"o":"m 160 465 l 281 586 l 160 707 l 39 586 z m 89 -129 b 261 90 178 -42 261 35 b 243 135 261 108 256 124 l 161 215 l 51 103 l 115 40 b 131 8 125 31 131 21 b 71 -110 131 -14 114 -47 z "},"…":{"ha":792,"x_min":0,"x_max":0,"o":"m 632 -8 l 753 113 l 632 233 l 514 115 l 396 233 l 278 115 l 160 233 l 39 113 l 160 -8 l 278 110 l 396 -8 l 514 110 z "},"?":{"ha":392,"x_min":0,"x_max":0,"o":"m 78 258 l 238 346 l 238 572 b 392 706 281 613 308 635 b 403 831 400 749 403 799 b 322 942 403 903 375 929 l 79 997 b -68 839 26 935 -18 883 l -49 818 b -10 863 -35 835 -22 849 b 244 801 65 849 168 828 b 246 747 246 782 246 764 b 231 618 246 704 243 664 b 78 501 192 583 150 551 z m 160 -8 l 281 113 l 160 233 l 39 113 z "},"!":{"ha":318,"x_min":0,"x_max":0,"o":"m 79 258 l 239 346 l 239 997 l 236 1000 b 32 897 163 958 99 924 l 43 871 b 79 892 56 878 68 885 z m 160 -8 l 281 113 l 160 233 l 39 113 z "},"¿":{"ha":342,"x_min":0,"x_max":0,"o":"m 182 703 l 61 582 l 182 461 l 303 582 z m 263 -303 b 410 -144 315 -240 360 -189 l 390 -124 b 346 -174 375 -143 360 -160 b 96 -92 247 -158 160 -132 b 106 47 104 -43 106 -6 l 106 71 b 264 193 144 107 189 140 l 264 436 l 104 349 l 104 122 b -50 -11 61 82 33 60 l -50 -60 b -61 -179 -50 -118 -51 -147 b 263 -303 8 -232 136 -281 z "},"¡":{"ha":314,"x_min":0,"x_max":0,"o":"m 158 704 l 38 583 l 158 463 l 279 583 z m 81 -304 b 285 -201 154 -262 218 -228 l 274 -175 b 238 -196 261 -182 249 -189 l 238 438 l 78 350 l 78 -301 z "},"(":{"ha":382,"x_min":0,"x_max":0,"o":"m 229 -169 b 401 14 289 -100 346 -36 l 382 35 b 346 -7 369 21 357 7 b 196 458 242 119 196 289 b 392 990 196 667 267 872 l 374 1007 b 44 338 171 853 44 599 b 229 -169 44 163 101 -17 z "},")":{"ha":374,"x_min":0,"x_max":0,"o":"m -15 -169 b 314 500 188 -15 314 239 b 129 1007 314 675 257 854 b -43 824 69 938 13 874 l -24 803 b 13 844 -11 817 1 831 b 163 379 117 718 163 549 b -33 -153 163 171 92 -35 z "},"{":{"ha":376,"x_min":0,"x_max":0,"o":"m 315 -168 b 447 -26 363 -112 403 -67 l 428 -6 b 394 -43 417 -19 406 -32 b 233 56 318 -14 274 17 b 249 236 244 99 249 156 l 249 281 b 192 385 249 322 239 363 l 122 417 b 250 533 157 454 194 489 l 250 606 b 396 989 251 800 267 911 l 383 1010 b 93 574 206 925 93 778 l 93 419 b 19 340 69 392 44 367 l -12 310 b 93 256 19 297 64 276 l 93 176 b 72 -15 93 82 88 36 b 315 -168 138 -93 213 -139 z "},"}":{"ha":375,"x_min":0,"x_max":0,"o":"m -6 -178 b 285 258 172 -93 285 54 l 285 399 b 390 508 318 436 354 474 l 388 510 b 269 600 338 543 288 565 b 285 743 279 646 285 708 l 285 849 b 228 953 285 890 276 939 l 63 1000 b -69 858 15 944 -25 899 l -50 838 b -21 871 -40 850 -31 861 b 129 824 22 861 86 843 l 129 703 b 108 543 129 658 124 594 b 263 408 139 490 204 440 b 128 285 225 368 186 332 l 128 226 b -18 -157 126 32 111 -79 z "},"[":{"ha":374,"x_min":0,"x_max":0,"o":"m 433 -26 l 414 -6 b 381 -43 403 -19 392 -32 b 219 56 304 -14 260 17 b 235 236 229 99 235 169 l 235 858 b 404 815 300 847 343 832 l 453 951 l 267 1000 l 196 875 l 79 843 l 79 176 b 58 -15 79 82 74 36 b 301 -168 124 -93 199 -139 b 433 -26 349 -112 389 -67 z "},"]":{"ha":365,"x_min":0,"x_max":0,"o":"m 110 -169 l 179 -58 l 296 43 l 296 765 b 194 958 296 914 281 928 l 76 1000 b -60 850 28 942 -14 892 l -40 829 b -8 865 -29 843 -19 854 b 142 807 38 854 101 829 b 149 396 146 664 149 529 b 139 -31 149 254 146 115 b -28 15 78 -18 32 -1 l -76 -121 z "},"/":{"ha":471,"x_min":0,"x_max":0,"o":"m 365 774 b 496 979 393 849 442 929 l 392 1000 l 93 185 b -24 10 67 111 25 58 l 78 -11 z "},"\\":{"ha":471,"x_min":0,"x_max":0,"o":"m 496 10 b 379 185 447 58 406 111 l 81 1000 l -24 979 b 107 774 31 929 79 849 l 394 -11 z "},"_":{"ha":708,"x_min":0,"x_max":0,"o":"m 651 -214 l 667 -142 b 493 -162 618 -156 558 -162 l 57 -162 l 42 -235 b 215 -214 90 -221 150 -214 z "},"-":{"ha":456,"x_min":0,"x_max":0,"o":"m 396 329 l 411 401 b 238 381 363 388 303 381 l 60 381 l 44 308 b 218 329 93 322 153 329 z "},"­":{"ha":0,"x_min":0,"x_max":0,"o":""},"–":{"ha":536,"x_min":0,"x_max":0,"o":"m 478 329 l 493 401 b 319 381 444 388 385 381 l 58 381 l 43 308 b 217 329 92 322 151 329 z "},"—":{"ha":708,"x_min":0,"x_max":0,"o":"m 651 329 l 667 401 b 493 381 618 388 558 381 l 57 381 l 42 308 b 215 329 90 322 150 329 z "},"¦":{"ha":179,"x_min":0,"x_max":0,"o":"m 64 1001 l 64 390 l 115 390 l 115 775 b 167 1014 115 854 135 947 z m 64 258 l 64 -126 b 13 -365 64 -206 44 -299 l 115 -353 l 115 258 z "},"|":{"ha":175,"x_min":0,"x_max":0,"o":"m 111 -353 l 111 775 b 163 1014 111 854 131 947 l 61 1001 l 61 -157 b 13 -362 61 -235 42 -300 z "},"«":{"ha":753,"x_min":0,"x_max":0,"o":"m 596 106 l 711 204 b 526 354 646 250 585 299 l 472 406 l 506 432 b 714 546 567 481 639 522 l 621 589 l 346 368 l 346 339 z m 263 106 l 378 204 b 193 354 313 250 251 299 l 139 406 l 172 432 b 381 546 233 481 306 522 l 288 589 l 13 368 l 13 339 z "},"»":{"ha":753,"x_min":0,"x_max":0,"o":"m 132 107 l 407 328 l 407 357 l 157 590 l 42 492 b 226 342 107 446 168 397 l 281 290 l 247 264 b 39 150 186 215 114 174 z m 465 107 l 740 328 l 740 357 l 490 590 l 375 492 b 560 342 440 446 501 397 l 614 290 l 581 264 b 372 150 519 215 447 174 z "},"‹":{"ha":419,"x_min":0,"x_max":0,"o":"m 263 106 l 378 204 b 193 354 313 250 251 299 l 139 406 l 172 432 b 381 546 233 481 306 522 l 288 589 l 13 368 l 13 339 z "},"›":{"ha":419,"x_min":0,"x_max":0,"o":"m 132 107 l 407 328 l 407 357 l 157 590 l 42 492 b 226 342 107 446 168 397 l 281 290 l 247 264 b 39 150 186 215 114 174 z "},"‚":{"ha":236,"x_min":0,"x_max":0,"o":"m 78 -129 b 250 90 167 -42 250 35 b 232 135 250 108 244 124 l 150 215 l 40 103 l 104 40 b 119 8 114 31 119 21 b 60 -110 119 -14 103 -47 z "},"„":{"ha":492,"x_min":0,"x_max":0,"o":"m 333 -129 b 506 90 422 -42 506 35 b 488 135 506 108 500 124 l 406 215 l 296 103 l 360 40 b 375 8 369 31 375 21 b 315 -110 375 -14 358 -47 z m 78 -129 b 250 90 167 -42 250 35 b 232 135 250 108 244 124 l 150 215 l 40 103 l 104 40 b 119 8 114 31 119 21 b 60 -110 119 -14 103 -47 z "},"‘":{"ha":188,"x_min":0,"x_max":0,"o":"m 150 1000 b -22 781 61 913 -22 836 b -4 736 -22 763 -17 747 l 78 656 l 188 768 l 124 831 b 108 863 114 840 108 850 b 168 981 108 885 125 918 z "},"“":{"ha":443,"x_min":0,"x_max":0,"o":"m 150 1000 b -22 781 61 913 -22 836 b -4 736 -22 763 -17 747 l 78 656 l 188 768 l 124 831 b 108 863 114 840 108 850 b 168 981 108 885 125 918 z m 406 1000 b 233 781 317 913 233 836 b 251 736 233 763 239 747 l 333 656 l 443 768 l 379 831 b 364 863 369 840 364 850 b 424 981 364 885 381 918 z "},"’":{"ha":188,"x_min":0,"x_max":0,"o":"m 38 656 b 210 875 126 743 210 819 b 192 919 210 893 204 908 l 110 1000 l 0 888 l 64 825 b 79 793 74 815 79 806 b 19 675 79 771 63 738 z "},"”":{"ha":443,"x_min":0,"x_max":0,"o":"m 293 656 b 465 875 382 743 465 819 b 447 919 465 893 460 908 l 365 1000 l 256 888 l 319 825 b 335 793 329 815 335 806 b 275 675 335 771 318 738 z m 38 656 b 210 875 126 743 210 819 b 192 919 210 893 204 908 l 110 1000 l 0 888 l 64 825 b 79 793 74 815 79 806 b 19 675 79 771 63 738 z "},"'":{"ha":186,"x_min":0,"x_max":0,"o":"m 108 657 l 186 906 l 92 1000 l 0 908 l 81 657 z "},"\"":{"ha":419,"x_min":0,"x_max":0,"o":"m 108 657 l 186 906 l 92 1000 l 0 908 l 81 657 z m 342 657 l 419 906 l 325 1000 l 233 908 l 314 657 z "},"•":{"ha":439,"x_min":0,"x_max":0,"o":"m 356 368 b 219 504 356 451 279 474 b 83 368 160 474 83 450 b 219 232 83 286 160 261 b 356 368 279 261 356 283 z "},"&":{"ha":593,"x_min":0,"x_max":0,"o":"m 631 133 l 611 154 b 582 121 601 142 592 131 b 500 201 540 150 517 171 l 500 335 b 583 328 535 332 563 331 l 601 361 l 500 361 l 500 465 l 353 361 l 253 361 b 365 481 292 400 329 439 b 581 790 460 578 581 685 b 553 869 581 819 572 846 l 389 824 l 382 808 b 439 667 428 750 439 711 b 417 583 439 635 431 608 b 383 625 411 600 399 615 l 261 703 l 174 575 l 68 546 l 68 361 l 11 361 l -7 322 b 68 332 22 326 46 331 b 58 193 68 269 65 229 l -57 71 l -42 31 b 47 144 -8 78 11 106 b 275 -8 83 83 196 14 b 376 93 313 33 343 64 b 499 -8 411 53 456 15 b 631 133 546 47 586 93 z m 224 369 l 224 543 b 321 472 261 522 290 500 b 224 369 290 438 258 403 z m 210 215 l 208 217 b 222 332 215 244 219 286 b 226 336 224 333 225 335 l 349 336 b 342 118 349 263 346 193 b 210 215 279 147 240 181 z "},"¶":{"ha":858,"x_min":0,"x_max":0,"o":"m 333 -199 l 414 -186 l 414 0 l 800 0 l 800 28 l 710 28 b 693 499 697 174 693 358 b 707 914 693 688 697 776 l 808 914 l 824 963 b 622 942 768 953 699 942 l 414 942 b 463 1131 417 1013 436 1072 l 385 1121 l 385 942 b 54 668 192 939 54 843 b 385 358 54 496 167 385 l 385 28 l 222 28 l 222 0 l 383 0 b 333 -199 378 -69 360 -143 z m 493 499 b 476 28 493 358 489 174 l 414 28 l 414 914 l 479 914 b 493 499 489 776 493 688 z "},"†":{"ha":639,"x_min":0,"x_max":0,"o":"m 443 521 b 338 707 394 581 346 650 l 350 707 b 528 607 447 707 511 665 b 632 738 589 622 632 679 b 550 828 632 792 597 828 b 339 744 489 828 435 760 b 443 926 353 815 443 846 b 319 1050 443 1003 374 1024 b 196 926 265 1024 196 1001 b 301 740 196 844 289 814 l 296 740 b 111 840 192 740 128 783 b 7 710 50 825 7 768 b 93 619 7 656 42 619 b 301 703 150 619 203 685 b 196 521 290 647 243 579 b 308 -36 257 340 297 156 l 331 -36 b 443 521 346 156 382 340 z m 317 346 b 294 519 313 404 304 463 b 319 578 306 539 315 558 b 344 519 324 558 333 539 b 322 346 335 463 326 404 z "},"‡":{"ha":710,"x_min":0,"x_max":0,"o":"m 479 115 b 374 301 479 197 386 228 l 386 301 b 564 201 483 301 547 260 b 668 332 625 217 668 274 b 586 422 668 386 633 422 b 374 339 525 422 471 354 b 479 521 385 394 431 463 b 374 707 431 581 382 650 l 386 707 b 564 607 483 707 547 665 b 668 738 625 622 668 679 b 586 828 668 792 633 828 b 375 744 525 828 471 760 b 479 926 389 815 479 846 b 356 1050 479 1003 410 1024 b 232 926 301 1024 232 1001 b 338 740 232 844 325 814 l 332 740 b 147 840 228 740 164 783 b 43 710 86 825 43 768 b 129 619 43 656 78 619 b 338 703 186 619 239 685 b 232 521 326 647 279 579 b 338 335 281 461 329 392 l 332 335 b 147 435 228 335 164 378 b 43 304 86 419 43 363 b 129 214 43 250 78 214 b 336 297 186 214 239 279 b 232 115 321 226 232 194 b 356 -8 232 39 301 18 b 479 115 410 18 479 40 z m 381 521 b 357 471 371 504 363 488 l 354 471 b 331 521 349 488 340 504 b 354 571 340 538 349 554 l 357 571 b 381 521 363 554 371 538 z "},"§":{"ha":1199,"x_min":0,"x_max":0,"o":"m 636 -533 l 636 -347 l 657 -347 b 1119 15 911 -347 1119 -194 b 976 168 1119 106 1075 157 b 1119 413 1063 228 1119 307 b 932 568 1119 515 1063 568 b 638 539 842 568 724 539 l 636 539 l 636 751 b 656 753 643 753 649 753 b 860 722 722 753 779 722 b 1061 993 993 722 1061 835 b 1060 1033 1061 1007 1061 1021 l 1035 1033 b 826 921 1032 940 921 921 b 639 940 764 921 728 936 b 688 1132 644 1007 661 1078 l 611 1119 l 611 942 l 592 942 b 86 315 326 942 86 669 b 611 -344 86 -31 319 -318 b 563 -543 610 -419 590 -482 z m 322 294 b 592 914 322 694 424 914 b 611 913 599 914 606 914 l 611 775 b 433 556 525 757 433 685 b 561 361 433 468 479 389 b 433 158 493 329 433 263 b 611 -46 433 56 497 -37 l 611 -317 b 322 294 400 -290 322 -76 z m 779 760 b 656 781 742 769 703 781 b 636 779 649 781 643 781 l 636 910 b 779 760 725 889 738 807 z m 519 631 b 611 747 519 685 556 731 l 611 540 b 519 631 551 546 519 572 z m 638 142 l 636 142 l 636 351 b 822 367 694 353 751 367 b 951 265 917 367 951 331 b 918 171 951 236 942 203 b 638 142 831 168 719 142 z m 519 233 b 611 350 519 288 556 333 l 611 143 b 519 233 551 149 519 175 z m 657 -319 l 636 -319 l 636 -46 b 822 -31 694 -44 751 -31 b 951 -132 917 -31 951 -67 b 657 -319 951 -208 879 -319 z "},"*":{"ha":519,"x_min":0,"x_max":0,"o":"m 274 746 b 326 892 283 807 326 854 b 260 963 326 935 292 946 b 193 892 229 946 193 933 b 246 746 193 854 236 807 z m 301 706 b 457 700 361 715 421 689 b 503 786 496 713 497 751 b 415 826 478 811 457 840 b 293 732 381 815 349 760 z m 226 732 b 104 826 171 760 139 815 b 17 786 63 840 42 811 b 63 700 22 751 24 713 b 218 706 99 689 158 715 z m 271 667 b 315 517 300 613 293 549 b 411 500 339 483 376 494 b 422 596 426 532 449 561 b 294 683 401 626 338 639 z m 225 683 b 97 596 182 639 118 626 b 108 500 71 561 93 532 b 204 517 143 494 181 483 b 249 667 226 547 219 613 z "},"™":{"ha":1660,"x_min":0,"x_max":0,"o":"m 1258 314 l 1258 433 l 1303 433 l 1303 464 l 1258 464 l 1258 697 l 1313 642 l 1390 719 l 1311 800 l 1258 747 b 1344 965 1260 889 1282 965 b 1439 729 1401 965 1439 904 b 1371 433 1439 610 1411 513 l 1553 433 l 1553 464 l 1436 464 b 1594 749 1531 543 1594 629 b 1357 999 1594 899 1479 999 b 1258 915 1308 999 1276 975 l 1258 969 b 1282 1113 1258 1017 1263 1072 l 1226 1106 l 1226 464 l 1199 464 l 1199 706 b 988 999 1199 872 1143 999 b 883 917 928 999 899 968 l 883 969 b 915 1113 883 1017 896 1072 l 853 1106 l 853 464 l 825 464 b 817 732 819 549 817 653 b 825 990 817 850 819 903 b 611 968 789 981 708 968 l 611 938 l 664 938 b 685 565 676 874 685 810 l 685 464 l 618 464 l 618 433 l 853 433 l 853 432 b 824 308 853 389 840 349 l 883 314 l 883 433 l 936 433 l 936 464 l 883 464 l 883 699 l 939 642 l 1017 719 l 938 800 l 883 746 l 883 790 b 967 964 883 928 924 964 b 1060 740 1024 964 1060 919 l 1060 464 l 993 464 l 993 433 l 1226 433 l 1226 432 b 1197 308 1226 389 1215 349 z m 333 314 l 333 425 l 356 425 b 554 589 474 425 564 507 l 467 607 l 458 597 b 464 561 463 585 464 572 b 356 456 464 496 407 456 b 333 457 347 456 340 456 l 333 692 l 382 643 l 458 719 l 379 799 l 333 753 l 333 879 b 422 858 360 867 389 858 b 576 1054 524 858 576 939 b 575 1078 576 1063 576 1071 l 547 1078 b 386 985 544 1003 490 985 b 333 986 368 985 351 985 b 364 1113 336 1029 347 1076 l 301 1106 l 301 988 b 153 999 243 992 190 999 b -36 843 68 999 -36 947 b 72 699 -36 760 24 718 b 71 668 71 689 71 678 b 301 429 71 549 160 449 b 272 307 301 385 290 344 z m 39 853 b 142 967 39 915 69 967 b 276 911 190 967 232 939 b 78 722 174 883 100 810 b 39 853 53 749 39 792 z m 213 681 b 301 881 213 797 243 857 l 301 464 b 213 681 238 488 213 561 z "},"®":{"ha":1151,"x_min":0,"x_max":0,"o":"m 1076 638 b 575 1139 1076 924 864 1139 b 75 638 289 1139 75 924 b 578 135 75 349 292 135 b 1076 638 867 135 1076 349 z m 575 168 b 111 638 301 168 111 378 b 575 1106 111 896 301 1106 b 1040 638 854 1106 1040 896 b 971 382 1040 543 1015 456 b 925 361 961 368 944 361 b 768 451 881 361 818 396 b 622 622 706 518 660 578 b 842 785 757 631 842 697 b 642 925 842 868 750 925 b 561 874 601 925 576 908 l 561 897 b 590 1033 561 942 572 994 l 532 1026 l 532 650 l 490 650 l 490 671 b 500 917 490 783 493 833 b 297 896 465 907 388 896 l 297 868 l 346 868 b 365 513 358 806 365 746 l 365 417 l 301 417 l 301 388 l 532 388 l 532 385 b 504 268 532 342 521 303 l 561 274 l 561 388 l 604 388 l 604 417 l 561 417 l 561 621 l 592 621 b 681 342 633 535 608 422 b 808 290 713 307 760 290 b 932 328 851 290 896 303 b 575 168 850 229 726 168 z m 561 690 b 633 894 561 818 568 894 b 693 772 671 894 693 860 b 592 650 693 686 667 650 l 561 650 z m 532 621 l 532 417 l 500 417 b 490 621 494 481 492 556 z "},"©":{"ha":1156,"x_min":0,"x_max":0,"o":"m 1092 467 b 576 982 1092 760 872 982 b 63 467 283 982 63 760 b 579 -49 63 169 286 -49 b 1092 467 876 -49 1092 169 z m 99 467 b 576 949 99 732 296 949 b 1056 467 863 949 1056 732 b 576 -17 1056 200 863 -17 b 99 467 296 -17 99 200 z m 565 44 l 565 161 b 594 160 575 160 585 160 b 822 308 729 160 822 242 l 715 336 l 701 325 b 704 296 704 315 704 306 b 594 186 704 231 653 186 b 565 189 585 186 575 188 l 565 435 l 626 375 l 714 461 l 625 550 l 565 489 l 565 719 l 575 719 b 740 590 671 719 665 590 b 822 753 794 590 822 658 b 821 778 822 761 822 771 l 806 778 b 728 735 804 743 758 735 b 590 746 679 735 661 746 b 567 744 582 746 574 746 b 596 865 569 786 581 831 l 538 856 l 538 742 b 275 453 390 718 275 599 b 538 164 275 310 389 189 b 506 38 538 115 525 76 z m 435 453 b 538 714 435 601 467 692 l 538 196 b 435 453 464 224 435 314 z "},"@":{"ha":1260,"x_min":0,"x_max":0,"o":"m 650 -194 b 978 -114 751 -194 876 -171 l 967 -93 b 664 -167 861 -149 757 -167 b 224 347 414 -167 224 15 b 657 858 224 663 368 858 b 1090 401 946 858 1090 675 b 928 58 1090 251 1043 138 b 838 188 879 100 856 142 b 867 347 846 244 854 289 l 910 551 b 871 656 922 610 910 643 l 728 701 l 626 593 l 511 567 b 381 96 428 435 378 276 b 513 -8 422 49 460 24 b 665 135 574 42 622 89 b 769 -8 688 81 724 18 b 1190 429 1058 22 1190 222 b 657 886 1190 690 968 886 b 74 326 336 886 74 633 b 650 -194 74 33 371 -194 z m 533 178 b 656 563 549 319 582 442 b 750 526 690 554 717 544 l 724 378 b 608 122 694 253 656 172 b 533 178 575 139 557 154 z "},"ª":{"ha":457,"x_min":0,"x_max":0,"o":"m 322 464 b 415 564 357 503 383 533 l 397 581 b 379 560 392 574 385 567 b 339 601 360 574 349 586 b 346 706 343 631 346 667 l 346 800 b 313 863 346 835 336 858 l 149 892 l 96 826 b 65 760 79 806 65 781 b 126 699 65 733 85 708 l 63 683 l 63 663 b 50 556 63 610 58 585 b 169 464 72 519 126 481 b 233 544 193 489 214 517 b 322 464 256 514 290 482 z m 182 719 b 107 774 124 719 107 744 b 113 797 107 779 108 788 b 239 771 157 793 197 783 l 239 729 b 182 719 219 722 200 719 z m 168 683 l 168 694 l 169 694 b 239 707 190 694 211 696 l 239 672 b 215 561 239 615 231 586 b 160 600 190 572 174 585 b 168 683 164 624 168 657 z m 367 393 l 367 426 l 61 426 l 61 393 z "},"º":{"ha":407,"x_min":0,"x_max":0,"o":"m 211 464 b 360 597 261 519 299 542 l 360 750 b 300 864 360 838 351 851 l 182 892 l 140 817 l 63 797 l 63 671 b 50 556 63 614 60 588 b 211 464 72 517 157 481 z m 169 707 l 169 788 b 254 761 199 779 231 771 b 256 682 256 733 256 707 b 253 563 256 642 254 603 b 163 604 210 578 183 590 b 169 707 167 635 169 663 z m 360 393 l 360 426 l 63 426 l 63 393 z "},"#":{"ha":967,"x_min":0,"x_max":0,"o":"m 481 -8 l 583 274 l 800 274 l 813 410 b 626 392 760 400 692 393 l 706 606 l 908 606 l 921 742 b 749 724 872 732 810 726 l 768 776 b 899 982 796 851 844 932 l 796 1004 l 693 722 l 436 722 l 456 776 b 586 982 483 851 532 932 l 483 1004 l 381 722 l 167 722 l 154 586 b 338 604 206 596 272 601 l 258 390 l 58 390 l 46 254 b 215 272 93 263 156 269 l 185 189 b 68 14 158 115 117 63 l 168 -8 l 271 274 l 528 274 l 497 189 b 381 14 471 115 429 63 z m 650 606 l 571 390 l 314 390 l 393 606 z "},"€":{"ha":425,"x_min":0,"x_max":0,"o":"m 332 65 b 406 142 357 93 381 118 l 386 163 b 349 119 372 146 361 132 b 228 215 290 147 257 183 b 236 263 231 229 233 244 l 350 263 l 365 311 b 239 293 329 304 286 297 b 243 396 242 326 243 361 l 243 397 l 392 397 l 407 446 b 243 426 361 438 304 429 l 243 544 b 365 488 288 525 326 508 l 456 618 l 275 703 l 186 574 l 88 546 l 88 425 l 7 425 l -8 376 b 88 390 21 382 53 386 l 88 290 l 7 290 l -8 242 b 86 256 19 247 51 251 b 67 144 83 210 76 179 b 269 -8 101 83 194 13 z "},"$":{"ha":518,"x_min":0,"x_max":0,"o":"m 185 -204 l 263 -194 l 263 4 l 353 89 l 465 143 b 490 313 478 185 490 276 b 453 386 490 346 475 371 l 371 444 l 486 557 l 468 569 l 271 700 b 319 890 276 767 294 838 l 239 878 l 239 676 l 153 596 l 61 553 b 36 381 46 503 36 432 l 36 363 l 154 271 l 126 244 b 28 156 76 197 56 176 l 54 136 l 233 4 l 233 1 b 185 -204 233 -76 214 -142 z m 344 453 l 256 368 b 175 432 225 392 200 411 b 193 565 175 474 182 521 b 344 453 232 546 290 508 z m 350 274 b 332 125 350 242 344 182 b 175 254 268 161 222 203 l 264 340 b 350 274 297 322 322 303 z "},"¥":{"ha":660,"x_min":0,"x_max":0,"o":"m 444 -347 b 553 -211 478 -297 514 -253 b 581 -149 571 -192 581 -169 b 522 -64 581 -119 563 -90 b 314 46 457 -24 375 1 b 468 207 360 97 413 153 l 674 207 l 689 256 b 497 235 639 247 567 236 b 561 294 518 256 540 275 l 561 411 l 674 411 l 689 460 b 561 442 651 453 608 446 l 561 544 b 497 658 561 611 538 639 l 401 703 l 313 575 b 407 526 349 561 376 546 b 410 376 410 467 410 419 b 403 199 410 314 407 263 b 251 297 331 231 283 261 b 267 478 261 340 267 411 l 267 638 l 118 703 b -14 561 71 647 31 601 l 6 540 b 36 575 17 553 26 565 l 111 539 l 111 439 l -1 439 l -17 390 b 111 408 24 397 64 406 b 93 235 111 325 106 281 l -1 235 l -17 186 b 107 203 19 193 61 200 b 307 82 150 154 236 106 b 253 31 292 67 275 50 b 206 -43 224 4 206 -21 b 242 -92 206 -61 217 -78 l 346 -151 b 458 -262 429 -200 458 -232 b 440 -308 458 -278 451 -292 l 424 -332 z "},"£":{"ha":476,"x_min":0,"x_max":0,"o":"m 451 133 l 432 154 b 406 124 422 143 414 133 b 229 149 314 118 279 140 b 240 263 235 179 239 221 l 400 263 l 415 311 b 242 290 367 303 307 293 l 242 544 b 350 496 281 528 315 513 b 342 385 349 447 346 417 l 375 396 l 375 504 l 454 618 l 274 703 l 185 574 l 86 546 l 86 290 l 15 290 l 0 242 b 86 256 26 246 54 251 l 86 240 b 72 75 86 163 82 117 b 13 15 53 54 33 33 l 32 -6 b 68 35 44 10 56 22 b 319 -8 133 42 199 -8 b 451 133 367 47 407 93 z "},"₹":{"ha":460,"x_min":0,"x_max":0,"o":"m 271 -8 b 403 133 318 47 358 93 l 383 154 b 368 136 378 147 372 142 l 221 269 b 350 425 275 331 332 399 b 375 486 364 446 372 465 l 483 486 l 499 535 b 375 518 463 528 421 521 b 331 585 369 542 356 564 l 215 675 l 483 675 l 499 724 b 297 703 443 714 374 703 l 18 703 l 3 654 b 161 674 47 663 101 671 l 92 569 b 171 514 115 556 143 536 l 18 514 l 3 465 b 203 486 58 475 126 486 b 231 460 213 478 221 469 b 265 399 251 439 265 421 b 229 326 265 379 254 357 b 88 172 183 272 136 224 b 271 -8 147 124 213 61 z "},"¢":{"ha":396,"x_min":0,"x_max":0,"o":"m 251 -181 l 251 4 l 303 65 b 376 142 328 93 351 118 l 357 163 b 319 119 343 146 332 132 b 199 215 261 147 228 183 b 214 396 208 258 214 329 l 214 544 b 322 496 253 528 288 513 b 314 385 321 447 318 417 l 347 396 l 347 504 l 426 618 l 253 700 b 303 896 258 768 276 840 l 222 883 l 222 668 l 157 574 l 58 546 l 58 336 b 38 144 58 242 53 196 b 222 -3 69 89 150 24 b 174 -190 219 -72 200 -133 z "},"ƒ":{"ha":428,"x_min":0,"x_max":0,"o":"m -54 -347 b 185 -125 17 -261 61 -211 l 325 647 b 450 639 378 646 422 642 l 478 694 l 333 694 l 358 835 b 483 785 408 818 442 804 l 576 929 l 389 1000 l 332 876 l 200 843 l 174 694 l 121 694 l 92 633 b 165 643 118 638 142 640 l 21 -192 b -86 -132 -21 -171 -49 -156 l -179 -276 z "}}}
